<svg xmlns="http://www.w3.org/2000/svg" viewBox="0 0 1629.9 1473.4" width="100%" height="100%"><defs><style>.a,.aa,.ae,.af,.ag,.al,.av,.aw,.ax,.ay,.az,.ba,.bb,.c,.e,.f,.g,.h,.i,.j,.n,.o,.x,.y,.z{fill:none}.b{fill:#fff}.ah,.al,.av,.aw,.ax,.ay,.ba,.bb,.c,.e{stroke:#231f20}.aa,.ae,.af,.ah,.av,.aw,.ay,.c,.h,.j,.x,.y,.z{stroke-linejoin:round}.c,.h,.i,.n,.o{stroke-width:.3px}.ax,.az{stroke-linejoin:bevel}.aa,.ae,.af,.ah,.av,.aw,.ax,.ay,.az,.e,.h,.j,.x,.y,.z{stroke-linecap:round}.e{stroke-width:.6px}.az,.f,.g,.h,.i,.j{stroke:#010101}.al,.ba,.bb,.f,.g,.i,.n,.o{stroke-miterlimit:10}.f{stroke-width:0}.ax,.ay,.az,.g,.j{stroke-width:.45px}.n,.o{stroke:#ef4136}.al,.ba,.bb,.n,.o{stroke-linecap:square}.o{stroke-dasharray:4}.n{stroke-dasharray:5}.af,.ag{stroke:#ed1c24}.aa,.ae,.x,.y,.z{stroke:#000}.ah,.al,.x{stroke-width:.09px}.y{stroke-width:.35px}.z{stroke-width:.69px}.aa,.af,.ag{stroke-width:.26px}.ae{stroke-width:.17px}.af,.ag{stroke-dasharray:1.73}.ah{fill:#a7a9ac}.am{font-size:9px;fill:#231f20;font-family:Dosis-Regular,Dosis}.ao{letter-spacing:-.01em}.ap{letter-spacing:-.02em}.ar{letter-spacing:0}.av,.aw{stroke-width:.15px}.aw{stroke-dasharray:1.5}.ba{stroke-width:0;stroke-dasharray:1.2}.bb{stroke-width:.07px;stroke-dasharray:.6}</style><clipPath id="a"><path class="a" d="M440.4 143.6h48.1v33.46h-48.1z"/></clipPath><clipPath id="b"><path class="a" d="M488.6 143.9h36.7v33.17h-36.7z"/></clipPath><clipPath id="c"><path class="a" d="M421.4 177.1h28.3v35.36h-28.3z"/></clipPath><clipPath id="d"><path class="a" d="M449.7 177.1h38.8v45.41h-38.8z"/></clipPath><clipPath id="e"><path class="a" d="M488.6 177.1h31.1v42.29h-31.1z"/></clipPath><clipPath id="f"><path class="a" d="M519.7 177.1h31.1v36.75h-31.1z"/></clipPath><pattern id="g" width="71.9" height="54.09" patternTransform="matrix(.35 0 0 .35 33.7 -77.4)" patternUnits="userSpaceOnUse" viewBox="0 0 71.9 54.1"><path class="a" d="M0 0h71.9v54.09H0z"/><path class="e" d="M.1 54.1"/><circle class="e" cx="-9.9" cy="10" r=".4"/></pattern><pattern id="h" width="72" height="72" patternTransform="matrix(.35 0 0 .35 26.3 -98.6)" patternUnits="userSpaceOnUse"><path class="a" d="M0 0h72v72H0z"/><path class="b" d="M-23.8 66l6 6M-23.8 72l6-6"/><path class="c" d="M-7.5 10.5l18-18M-7.5 16.5l24-24M-7.5 22.5l30-30M-7.5 28.5l36-36M-7.5 34.5l42-42M-7.5 40.5l48-48M-7.5 46.5l54-54M-7.5 52.5l60-60M-7.5 58.5l66-66M-7.5 64.5l72-72M-7.5 70.5l78-78M-7.5 76.5l84-84M-1.5 76.5l78-78M4.5 76.5l72-72M10.5 76.5l66-66M16.5 76.5l60-60M22.5 76.5l54-54M28.5 76.5l48-48M34.5 76.5l42-42M40.5 76.5l36-36M46.5 76.5l30-30M52.5 76.5l24-24M58.5 76.5l18-18M64.5 76.5l12-12"/><path stroke-linejoin="bevel" stroke-width=".3" stroke="#231f20" fill="none" d="M-28.8 13.5l10-10"/></pattern></defs><path class="f" d="M118.4 333.8l-.5-.1M121.5 338.9h.1M121.6 333.8l-.3.1h-.9M101 372.4h-.4l-.8-.1h-.2M99.4 382.6h1M112.9 380.9v-.3M91.6 383.3v.2l.1.2M102.9 375.7v-.1M109.1 301.1l-.1-.8M101.3 301.3l.1.7M109 300.3l-.2-.5-.3-.4-1-.4-1.1-.2h-1.1M105.3 298.8l-1.3.2-1.2.4-1.1.7-.3.5-.1.6v.1M101.8 307.9v.5M109.9 306.4l-.4-.5M102.2 308.9l-.2.4v.4l.1.5.2.3M110 308.3v-.5l-.3-.3v-.1M102.3 310.5l-.1.8.3.7.1.1.6.4 1.1.3M109.9 310.2h.1l.2-.2v-.4l-.1-.4-.2-.2h-.1M103.6 316.9l.2.2M103.5 316.8v.1M102.7 315.5v.5M110.7 314.3l-.1-.4-.2-.3M108.9 315.6l1-.4.4-.5.3-.3M104.5 315.8l1.9.2 1.9-.2M110.4 312.3l-.2-.3"/><path class="f" d="M102.5 312l-.1.7.1.6.2.2.3.3.5.3 1.4.3 1.3.1 1.3-.1 1.4-.3 1.1-.6.3-.3.2-.2v-.7"/><path class="f" d="M108.6 312.6l.7-.3.7-.4.1-.2.2-.1.1-.4-.1-.4-.2-.3M103 318.4v.4M111 317.1v-.1M109.9 318.4l.6-.4M108.3 318.8l1-.2M107.9 318.9h.4M105.9 319h.5M105.3 318.9l.4.1M105.1 318.9h.1M103.8 318.4l.3.2M103.3 318.1l.2.1M102.8 317.1l.1.5.4.5M103 316.5l-.1.2M110.7 316.2l.1-.7-.3-.5M109.6 316.9l.4-.2M104.4 317.3l1.3.2h1.2l1.2-.1 1.2-.4M103.8 317.1l.6.2M103.5 316.9h.1M103.1 316.5l.4.3M102.7 316l.1.2.3.3M110.4 313.6l-.1-.1M110.6 314.4l.1-.1M108.6 315.7l.3-.1M108.3 315.8l.3-.1M102.5 314.3l.2.6.2.2.2.1.6.4.8.2M102.5 314v.1M103 318.8v.2M103 318.3v.1M111 317l-.4-.6M110.7 317.7l.3-.6M110.5 318l.2-.3M109.5 318.5l.4-.1M109.3 318.6l.2-.1M108.3 318.9v-.1M106.4 319l1.5-.1M105.7 319h.2M105.2 318.9h.1M104.1 318.6l1 .3M103.5 318.2l.3.2M102.9 316.9l-.1.2M102.9 316.7v.1M103.1 316.5h-.1M110 316.7l.6-.4.1-.1M109.3 317l.3-.1M104.3 312.8l2.1.2 2.2-.4M102.3 310.5l.9.5 1 .3 1.9.1 2.1-.3.9-.3.8-.6M101.8 308.4l.3.5h.1v.1l.3.3 1.2.4 1.1.2h1.1l1.2-.1 1.1-.2 1.1-.5.4-.3.1-.1.2-.4M102.6 307.8l.9.4 1 .1h2.1l2-.4.9-.6.2-.2.1-.2.1-.5M105.7 306.8h.1l1.1-.1 1.1-.2.9-.5.6-.4h.1M103.3 318.1v.5M103.1 316.5v.4l.1.4"/><path class="f" d="M102.9 315v.5l.1.3M102.7 313.6l.1.6M102.6 312v.1l.1.7M102.4 310.6v.6M102.2 308.9v.1l.1.7M109.6 306.5l-.1-.6v-.3M109.8 308l-.1-.5v-.3M109.9 309.6V308.7M110.1 311.1l-.1-.6v-.3M110.2 312.6v-.8M110.3 314.1V313.2M110.6 315.6l-.1-.6-.1-.2M110.7 317.1l-.1-.7v-.1M110.7 317.9v-.2M102.9 373.6h-.5l-.9-.1h-.1M135.8 363.9v.4M156.2 363.7v-.5M154.9 356.9l.1-.4v-.1M143.6 357.4l-.1.2v.1l-.1.1M99.9 331.2h-.1l-2.9-2.1M111.7 327l-3.1-2M115.5 346.1l-2 .8M122.4 351.3v.1l-1.9.6-.2.1M121.3 333.8v-.3l6.1-65.8M124.7 270.1l-5.9 62M13.2 300.7l44 38.2.6.5 11.9 10.4M72 348l-11.3-9.9-.6-.5-44.8-38.9M155.1 354.6l6.2-5 4.5-3.6 4.3-3.5 3.9-3.1 14.8-11.9 51.3-41.1M154.7 354.9l.4-.3M155.8 350.1l-2.7 2.1M242.3 279.5l-.3.3-54.9 44.7-23.3 19-3.8 3.1-4.2 3.5M96.5 395.5l-1.7 1-1.6 1.4-1.4 1.5-1.2 1.6-.8 1.9-.5 2-.2 2 .1 1.1.1.9M120.7 404.7l-.5-2.4-1-2.3-1.4-2-1.9-1.6-2-1.4-2.3-.9-1.2-.3-1.2-.4-2.5-.2M89.3 408.9l2.3 13.1.2 1 1.5 8.4M122.9 427.3l-.4-3.5v-.5l-1.8-18.5v-.1M107.1 395.8l-.1-.8-.2-1.4M107.1 396v-.1M99.9 396l.4 2.9M107.6 399.9l-.3-2.4M163.6 386.6l-.4-2.3-.7-2.1-1.3-2-1.6-1.6-1.9-1.4-2-1-2.2-.8-2.2-.4M163.2 409.4l.3-19.9v-1.3l.1-1.1M151.4 374.3v-1.1M151.4 376.2v-.8M163.5 389.5l21.6-10.1M98.3 336.3l-.1-.1-.2-.2M97.9 334.3l-.1-.1M102.8 316.2l-16.2-10.3M113.4 322.9l-.1-.1-5.1-3.1M71.2 319l15.2 12 9.3 7.4M109.5 328.6l.1.1 1.9 1.3M109.6 330.4h.1l1.9 1.4h.1M114 347.6h-.1l-.6.2M113.3 347.8l-.2-.1-.7-.6-.4-.2-8.9-6.9M73.4 362.9l-.6.3-.6.2-1.8.6-1.5.6-61 39.5M101 352.5l-1.4.6-1.3.4-.1.1-2.3.9-4.2 1.5-1.2.5-1.6.6-2.4.9-.9.3-.9.3-.8.4-2.9 1-2.7 1M90.6 346.9l7.6 6.6M76.6 334.7l.2.2 10 8.7"/><path class="f" d="M98.3 352.1l.2.2 1 .8M91.8 346.4v.1l6.4 5.5M76.3 333.2l.2.2 11.4 9.8h.1M90.4 342.3l-4-3.4-9-7.5M99.6 350l-3.4-2.8-1.9-1.6M103 352.9l-3.3-2.7v-.1M173.9 339.4h.1l14.1-5.6.1-.1M126.9 358.2l36.9-14.7M175.5 319.3l-51.4 19-.6.3-1 .3-2 .8-1.3.5-1.3.5-1.3.4-4.7 1.8M153.3 388.7l-3.5-2.9M122.5 423.8l13.5 15M12.4 414.8l-.5.2M32.1 467.5L91.8 423M108.4 362.3l.1.1 27.4 23.8M108.1 360.6l.2.1 27.5 23.7M137.5 382v-.1l-2.1-1.8-2.6-2.1-18.4-15.6-3.2-2.6-2.5-2.2M81.8 368.1l-70.5 43.8M108.5 357.7l-1 .4-3.4 1.3-17.8 6.9M150.6 380.6l-.2-.2M150.5 378.7l-.1-.2M150.3 376.2L127.9 359l-1-.7-3.7-2.9-.4-.3-.8-.6-.4-.3-.3-.2-.2-.2M120.8 352.8v.1l-.4.1-.5.2-.7.3M53.8 351l4.6 2.8 3 1.8 2 1.2 2.8 1.8 1.6.9 2.9 1.8.1.1 2.6 1.5 8.4 5.2 2.5 1.5 4.1 2.5 3.2 2 1.9 1.2 2 1.2.7.4.6.4.5.3h.1"/><path class="f" d="M99.2 374.9l-1.5-1.1-2.1-1.3-3.1-2-3.8-2.6-2.4-1.6-8-5.2-2-1.3-3.8-2.5-1.3-.9-2.3-1.5-2-1.3-2.7-1.8-8.5-5.6M81.2 353.9l4.4 4.4M81 360l-4.7-.2M76.7 352l.6.5.5.5.8.8 1.8 1.8 3.5 3.4M72.5 357.2l-.3-1.2-.1-.4-.1-.9v-.4l-.1-.6M84.7 358.6l-3.1-3.1-.9-.9-3-3h-.1M76.7 355.1l.1-.7-.2-.5-.5-.5-.5-.4-.6-.1h-.6l-.4.2h-.2v.1l-.3.4v.7l.2.6.4.4.5.4.7.2h.6l.5-.3.3-.5M74.4 348l-1.2-.2-1.2.2"/><path class="f" d="M81.6 355.6v-.1l-.3-1.2-.2-.4-.3-.8-.7-1.1-.9-.9M78.4 351.4l1.3 1.5 1 1.7M70.8 349.1l1.1-.5 1.1-.1M72 354.6l-.5-.7M88.9 357l-.3-.6-.5-.6-.6-.4-1.3-.7-1.7-.5-1.3-.1-.7-.1M70.8 361.4l.8 1 1.2.8M72.4 356.9l-.1.2M72.2 363.3l-.9-.8-.4-.6-.3-.6M117.9 340.3v.4M117.9 340.7l.2-4.4.3-2.5.1-.2.2-1 .1-.5.1-.4.3-.6.2-.1M120.7 331.1l-.2.1-.3.5-.3.8-.2 1.1-.3 2.5-.1 2-.1 2.1M121.3 333.9v-.4M110.6 345v-.6l.1-.3.1-.3.3-.7.6-.6 1.4-1.1 1.8-.7M114.9 340.7l1.7-.6M121.7 335.6l.1-.1.1.3.2.7-.1 1.5-.2.7-.1.2h-.2l-.1-.2-.1-.7v-1.5l.2-.7.2-.2z"/><path class="f" d="M122.5 339v-.9l-.1-.1-.1-2.3-.1-.8-.1-.6-.2-.3-.3-.2-.2.2-.2.5-.1.6-.2.9-.4 3.7M119.2 340.2l.3-3.9.4-1.7.2-.5.3-.3M98.9 378.2l.2 1.4.3 1.2.5.9.4.7M102.4 373.6l-.4-.7-.2-.2-.1-.1-.4-.2h-.4l-.4.2-.4.4-.3.4-.6 1.5M99.4 382.6l-.5-.3M99.7 382.6h-.1l-.1-.1M99.7 372.3h.1M97.9 373.9l.4-.7.4-.5.4-.4h.5M98.9 382.3l-.1-.1-.4-.5-.6-1.1-.3-1.4-.2-1.6v-.1M104.6 375.2h.8l.9.1 1.7.4 1.5.7 1.5.8.3.3.2.2.2.3.6.7.3.8.2.8V381.2l-.2 1-.5.9-.6.9-.9.8-.9.7-2.2 1.2"/><path class="f" d="M107.5 386.7l-1.8.7-2 .5-2.1.2-2.1-.1-2.1-.2-1.8-.6-1.4-.7-1.2-.8-.8-1-.5-1.1-.1-1.2.2-1.2.1-.1.6-1.2.9-1.2 1.3-1 1.5-.8"/><path class="f" d="M91.6 383.5l.1.1.4 1.2.7 1.2 1.3 1 1.7.9 2.2.6 1.2.1 1.3.1 2.5-.1 2.4-.5 2.1-.7M107.5 387.4l2.3-1.3 1-.8.9-.8.6-1 .2-.5.2-.5.2-.9v-1M102.3 378.9v-1.6l.2-.8.1-.4.1-.2.2-.2h.2l.2.3.1.5v1.7l-.2.7-.2.4v.3l-.3.2-.1-.1-.2-.3-.1-.5zM93.8 303.1l-.2-1.5M117.3 303.1l-.1-1.6M102 308l-.2-1.6M101.8 306.4l15.4-4.9M117.2 301.5l-8.8-4.5M108.4 297l-14.8 4.6M93.6 301.6l8.2 4.8M117.3 303.1l-7.8 2.5-3.7 1.2-3.2 1-.6.2M102 308l-.2-.1-8-4.8M101.4 302l.3.5.9.4 1.3.1h1.3l1.4-.2 1.4-.5.8-.5.2-.3.1-.4"/><path class="f" d="M101.3 301.3l.4.5.9.3 1.2.2 1.5-.1 1.4-.3 1.3-.5.7-.5.2-.3.1-.3M101.5 300.7l-.2.5"/><path class="f" d="M105.2 298.9l1.8.1.8.2.3.4v.3l-.7.6-.8.3-1.7.3h-1.7l-.8-.3-.3-.3v-.4l.7-.6.8-.3 1.6-.3zM103.4 318.6h-.1l-.2.2-.1.2.3.2h.2M99.2 385.8l-1.5-.2M97.7 373.8l.2-.3.4-.3M97.7 385.6l-.5-3.8-.3-1.9-.1-1.3V377.2M99.2 385.8l1.3-2.5M98.7 382.2l.5 3.6M102.3 386.1l-1.5-.1M101.5 373.5l.1.1M100.2 375.5l.3-.9.3-.6.4-.4.2-.1M100.8 386l-.3-2.7-.1-.7-.1-.2-.2-1.5-.1-.8-.1-1.2M141 368.2l2.7.6h2.9l2.8-.4 2.7-.8M142.4 358.2l-2 .6-.4.1-.3.1-.6.3-1.1.6-.9.9-.7.7-.5 1-.1.6v.3l.1.9v.1M152.1 367.6l1.4-.7 1.3-1 .8-1.1.6-1.1-.1-.5v-.7l-.4-1.1-.8-1-.5-.4-.2-.2-.5-.3"/><path class="f" d="M156.2 363.7l-.1.7-.2.6-.9 1.3-1.3 1.1-1.6.9M152.1 368.3l-2.4.7-2.5.4-2.6.1-.3-.1-2.1-.2M153.1 363.1l.2-.9M139 362.2l.3-.9M143.9 356.7l-.1.1-1.4 1.4-3.1 3.1M153.3 362.2v-2.3M139.5 362.2h-.5M153.1 363.1h-.1l-.1-.1M153.1 360.2v2.9M139 362.2l4.5-4.6.1-.1M150.7 358.9l-.2-.7-.5-.6-.5-.3-.7-.2-.7.1-.6.2h-.1l-.4.6-.2.6.2.7.4.6.6.3.7.2.7-.1.6-.2.5-.6.2-.6zM152.7 364.7l.3-.8M138.5 363.8l.3-.8M150.7 355.1l-1.1-.4-1.3-.1-1.2.3-1 .6-2.6 2.6-.2.3-3.8 3.8-.7.8"/><path class="f" d="M153 363.9v-.8l-.1-2.6v-2.6l-.4-1.2"/><path class="f" d="M154.7 354.9l.2 1.3-.1.9-.1.5-.6 1.1-.2.4-.3.4-.7.8v.1M143.3 358.4l.3-.9.1-.1.4-.9.7-.8.7-.7 1-.8 1.2-.7 1.5-.5 1.3-.3h1.3l1.1.3M143.5 357.6v.1"/><path class="f" d="M153.1 352.2l-1.1-.2-.8-.1h-.4l-1.4.2-1.3.5-1.3.7-1 .8-.3.3-.4.3-.6.8-.6 1.2-.3.7M155 356.4l.1-.9v-.9M154.9 356.8l.1-.3M66 361.4l-.5-2.9M163.2 368v-3.1M97.5 396.6l-.5-3.2M122.2 385.9l-2.6 1.1-9.5 4.1-3.4 1.5-.1.1-1.9.8-4.7 2-2.5 1.1M139.3 378.4l-.7.3-3.2 1.4M163.2 368l-11.8 5.2-1.4.6-1.1.5h-.1M69 364.6h-.1l-2.9-3.2M97.5 396.6l-1-1.1-9.2-10.4-3.5-3.9M97.4 334.8l-1.8-1.3M97.6 336.7l-1.7-1.3M97.5 337.4l-1.5-1.2M113.9 331.5l-1.3-.9M109.7 337l-11.5-8.4h-.1M105.6 338.5l-4.8-3.6M115.7 356.4l2.9-1.1M118.1 358.4l.7-.3M124.7 270.1l.2-.9.3-1 .7-1.1.4-.4.5-.3M126.8 266.4l.4.1.1.3.1.9M15.3 298.7l-1.3-.9-.8-.3-.7.1M12.5 297.6l-.4.2-.2.4.1 1 .5.8.7.7"/><path class="g" d="M242 279.8l.9-.6.3-.1.2.1.2.6-.2 1.2-.9 2.1-1.2 2-.7.8-.4.4h-.1l-.4.3h-.3l-.3-.1-.1-.6.2-1.1.9-2.1 1.1-2 .8-.9z"/><path class="f" d="M99.9 396l-1.3.7-1.1.8-.9 1-.6 1-.3 1.1.1 1.1.3 1 .6 1 1 .8 1.1.7 1.4.5 1.6.3h1.6l1.7-.1 1.7-.4 1.5-.6M108.3 404.9l1.9-1.1.8-.7.6-.7.5-.8.3-.8.1-.7v-.8l-.2-.8-.3-.7-.6-.7-.7-.6-1.7-.9-2-.6M89.3 408.9l.3 1.3.6 1.2.7 1.1 1.1 1 1.2 1 1.4.8 1.5.7 1.7.6 1.8.3 1.9.3h2l1.9-.1 2-.3 1.9-.4 1.9-.6 1.8-.7M89.2 407.2v1.1"/><path class="f" d="M113 415.1l1.8-1 1.6-1.1 1.4-1.3 1.1-1.2.9-1.4.6-1.5.2-1.4.1-1.4v-.1M93.3 431.4l.7 2 .5 1 .3.4.1.3.8.9 1.1.9 1.1.8 1.3.8 1.6.6 1.5.5 1.8.3 1.7.2h1.8l1.8-.1 1.7-.3 1.6-.5 1.5-.5 1.4-.7M115.6 438l1.6-.9 1.5-1 1.3-1.2 1.1-1.4.9-1.5.6-1.6.3-1.5v-1.6M104.7 393.5l.2 1.6M104.9 395.1l.6-.5.5-.6.4-.6.2-.7v-.1M100 395.5l.9.4 1.2.1 1.4-.3 1.4-.6M107.1 395.9v-.1M105.4 399.1l.7-.6.6-.7.3-.8.1-.4v-.6M105 396.1l.4 3"/><path class="f" d="M106.6 392.6h.1v.7l.1.3-.3.9-.6.9-.9.7M105.6 400.1l-1 .5-1 .3-1 .1-.8-.1-.7-.2-.4-.3-.3-.5.1-.5M104.4 399.6l1-.5"/><path class="f" d="M100.3 398.9l.1.4.1.1.2.2.9.3 1.3.1 1.5-.4M100.3 398.6v.3M105.6 400.1l.2 2.1M107.1 396.6l.1.6.1.3-.3 1-.6.8-.8.8M105 396.1l-.9.5-1 .3-1 .2-.8-.1-.7-.2-.5-.3-.2-.5.1-.5M154.9 383.4v.1l-.9.7-1 .5M151.9 376.6l1.3.5 1.1.6.8.8.7.8.3.8.2 1-.3.8-.5.9M153 384.7l-1.2.5-1.3.3M163.3 388.2l-.6 1.7-1.3 1.6-1.6 1.4-2.2 1.2M163.5 386.9v.6M157.6 394.1l-1.7.7-1.8.6M163.2 409.4v1.1l-.4 1.1-.4 1.2-.7.9-.8 1-1 .8-2.2 1.4M157.7 416.9l-1.7.7-1.7.6M150 373.8l-.1 1.3M151.4 374.3l-.3.5-.1.2-.8.3"/><path class="f" d="M151 376l.1-.1.2-.2.1-.3v-.3l-.2-.1-.1-.2M154.8 357.1l33.2-13.8M163.5 388.6l22.3-10.4M186.2 339.5l.8.7.6 1 .3 1 .1 1.1M185.8 378.2l2.2-34.9M185.8 378.2l-.2.7-.5.5M97 344.6l2 1.5v.1M80.8 350.5l1.9 1.7M75.6 345.5h.1l1.6 1.5M75.6 345.5v-.1l.1-1.1.4-1.1M100.9 340.8l-3.5-2.7M112.1 332.8l-2.4-1.6"/><path class="h" d="M97.3 335.6l.1-.8M112.2 329.6l.3.6M112.7 332l1.2-.5M112.4 331.4l.3.6M112.5 330.2V330.8l-.1.6M109.7 337l-.7-6.4-.1-.8v-1l.4-1 .9-.8.6-.1h.5l.3.2.2.1.3.4.2.6v.8l-.1.6M105.6 338.5l4.1-1.5M101.5 340l4.1-1.5M97.4 334.8l-.3-.5-.1-.4v-1l.2-.6.3-.4.8-.8.6-.1h.6l.3.2.2.1.4.4.1.6.1.4v.8l.2 1.4.7 5.1M97.6 336.7l-.2-.5-.1-.6M97.5 337.4l.1-.7M96.2 337.9l1.3-.5"/><path class="h" d="M113.9 331.5l-.4-4.2-.2-2.1-.1-1.1v-.3l-.2-.2-.5.1-3.9 1.3-4.4 1.5-6 2.1-1.3.5-1.1.4-.6.2v.6l.1 1.1.3 2.1v.1l.3 1.8.1.8.2 1.7M105.7 339.1l4.7-1.7"/><path class="h" d="M110.4 337.4l-.3-2.3-.2-2.1-.2-1.8V330.4l-.1-.9-.1-.4.1-.4v-.2l.3-.5.5-.3.6-.1.5.4.2.5v.8l-.2.5.1.1.2.4.1.4v.5l-.3.6.4.4.1.6"/><path class="h" d="M112.1 332.8l1.2-.4.6-.2.4-.2.2-.4-.2-2.6-.5-5.2v-.3l-.2-.4-.4-.2h-.4l-1.2.4-2.5.8-5 1.8-5.1 1.7-2.5.9-1.3.5-.4.2-.3.5-.1.3.1.4.7 5.2.4 2.6.2.2.1.1h.4l.7-.2.4-.2.9-.3"/><path class="h" d="M98.3 337.8l-.1-.4-.1-.4.3-.6-.2-.2-.2-.2-.1-.7.2-.5.1-.3-.1-.1-.2-.1-.2-.3v-.2l-.1-.3v-.5l.2-.7.5-.4.7-.2.5.2.4.5v.5l.2 1.6.3 1.8.2 2.1.3 2.4"/><path class="h" d="M100.9 340.8l2.2-.8.7-.2 1.9-.7"/><path class="f" d="M86.6 305.9l-.7-.2-.3.2-.7.2-1.5.4-3 1-5.9 1.8-3 .9-.7.3-.5.1-.4.4-.1.6.1.4.1.8.6 3.1.2 1.5.2.7v.5l.2.4M115.5 356.7h-.1l-1.8.7M113.6 357.4l-14-11.5-2-1.6M113.6 357.4l-.8-7.6M112.8 349.8v-.8l.3-.9M113.1 348.1l.2-.3M86.6 332.4v-.1l-.2-1.3M111.9 346.1l-1.3-1.1-1.3-.9-1.5-1.2-4-3.1M9.1 407.8h.1M11.6 413.7l.3-.1M76.8 334.9l-.2.7.1.7.2 1.4M76.5 333.4l-.2.7.3.6M76.1 332.9l.2.3M84.5 344.4l-7.6-6.7M95.8 354.4l-7.5-6.7M80.6 345.9h-.1l-7.4-6.9M91.7 356l-7.5-6.7M79.4 346.3l-3.3-3.1-.5-.5-2.2-2.1M90.5 356.4l-5.6-5.1-1.8-1.7M77.4 331.4l-.3-.1-.3-.1-.5.4-.3.6.1.7M77.7 331.8l-.3-.4M88.1 343.2v-.1l-12-10.2M99.5 353l-1.4-1.2-6.2-5.4M101.7 352.4l-.7.1M103.3 353.4l-.2-.4-.2-.1-.3-.2-.4-.3h-.5M104 359.4l-.6-4.8-.1-1.2M10.3 410.7l-.8-2.3-1.3-3.2M9.1 407.8l1.2 2.9M9.8 409.7l-.7-1.9M11.6 413.7l-1.8-4"/><path class="f" d="M8.2 405.2l-.1-.5-.1-.3-.1-.2v-.1l.1.1v.1l.1.2.3 1 .4.8.2.7.5 1.3 2.1 5.4M73.1 339l.3 1.6M76.9 337.7l-3.8 1.3M64.2 351.8l5.5-2 4.7-1.8 1.6-.5 1.3-.5 2.1-.7 1.1-.4 4-1.5 2.3-.8 1.1-.4.2-.1 2.3-.8.3-.1 1.3-.5M2.5 390.3l47.4-33.4 2-.8 6.5-2.3M68.9 354.8l3-1.1 4.8-1.7 1-.4.7-.2.8-.3.2-.1 1.4-.5 2.3-.9 1.1-.4 4.1-1.5 2.3-.8 1.2-.4.1-.1 2.4-.8 2.7-1 .6-.3 1.4-.5M4.4 394.8l51.4-35.2.8-.3 6.8-2.5M66.9 353.5L98.7 342M3.7 392.9l57.7-37.3"/><path class="f" d="M90.7 342.2l-4-3.4-16.2-13.6M92 341.7l-21.8-18.1M92 341.7l6.7.3M98.7 342l-12.1-9.7-12.5-10M98.7 342l.3 1.8M3.2 392.2l1.2 2.6M2.5 390.3l.7 1.9M3.7 392.9l-1.2-2.6M4.4 394.8l-.7-1.9M70.2 323.6l3.9-1.3M70.5 325.2l-.3-1.6"/><path class="i" d="M119.9 353.2v-.5l.1-.4.3-.1.3-.1.3.3.5.6.4.7.2.8M118.1 358.4l.9.6M115.7 356.4l2.4 2M113.1 347.6l.1-.5.3-.2h.4v.1l.2.2.3.4.5 1 .2.9.2 1.4.4 5.5"/><path class="i" d="M122.8 355.1l-.3-3v-.5l-.1-.2-.1-.2-.5-.4-1-.7-3.7-2.7-1.6-1.3-1.9-1.4-.9-.7-.4-.3-.1-.1-.2.1.1.1v.3l.3 3M118.2 359l.8.6"/><path class="i" d="M120.4 353l.1-.2h.3v.1l.3.3.5.9"/><path class="i" d="M123.2 355.4l-.3-3.3-.1-.5-.2-.6-.4-.5-.2-.2-1-.7-4-3-3.9-2.9-.9-.7-.3-.1-.1.1-.1.7.3 2.4.1.7"/><path class="i" d="M113.5 347.7l.1-.1H113.9l.2.1.4.7.2.8.1.5.2 1.9.2 2.4.2 2.7v.1M115.4 356.8l2.8 2.2"/><path class="f" d="M187.1 324.5l-5.8-2.7-2.8-1.3-1.4-.6-.7-.4-.3-.1-.2-.1h-.4M188.2 333.7l.2-.2.1-.2v-1.1l.1-1.6.2-3.1M188 333.8l.1-.1M151.3 389.7l1.4 1.2M153.2 428.8l-17.8-17.6M151.5 431.3l-15.9-16M138.9 437.8l-2.1-2.2M134.1 392.9l2.5 2.2M150.7 388.6l-2.5-2.1M119.5 387h.1l13.6 12.9M122.4 423.2l.1.1 13.2 14.6"/><path class="g" d="M138.9 437.8l12.6-6.5M138.9 437.8l-.7.3h-.7l-.4-.3-.2-.5M134.6 399.3l.7 11.9.3 4.1 1.2 20.3.1 1.7M134.6 399.3l.2-.9.4-.8.7-.7.7-.5M150.7 389.9l-14.1 6.5M150.7 389.9l.6-.2h.1l.7.1.5.5.1.6M153.2 428.8l-.5-37.9M153.2 428.8l-.2.8-.3.7-.6.6-.6.4M139 438.9l-1.2.4h-1.1l-.4-.2-.3-.3-.3-.9M151.5 432.4l-12.5 6.5M154.4 428.2l-.1 1.1-.7 1.2-1 1.1-1.1.8"/><path class="g" d="M154 390.3v5.1l.3 22.8.1 10M150.7 388.6l1.2-.3h.6l.6.2.2.2.2.1.3.5.2 1M136.6 395.1l14.1-6.5M133.2 399.9l.1-.6.1-.7.7-1.4 1.2-1.3 1.3-.8M135.7 437.9l-2.5-38"/><path class="f" d="M31.5 465.9l-.2-.4M31.2 465.5l.3.6M16.9 426.7l-.3-.7M17.8 429.2l-.2-.7M12.5 416.5v.3M12.6 416.9l-.1-.4M26.2 453.5l.2.5.5 1M26.5 452.6l-.5.3h-.1M31.2 465.5h.1M27.6 455.5l-.5.2M12.4 416.5h.1M12.2 415.7l.4-.2h.1M16.1 424.8l.2-.1M87.2 385.1l-68.9 45.1M31.7 466.5L91.6 422M31.5 466.1v-.2M31.2 465.5l-4.1-9.8M26.9 455l.2.7M25.9 452.9l.3.6M25.9 452.9l-.1-.5-13-35M12.5 416.8l.3.6M12.5 416.5h-.1M12.6 416.9l.2.5 3.8 8.6M17.6 428.5l-.7-1.8M17.8 429.2l8.7 23.4 1.1 2.9 3.7 10M31.6 466.5l-4.1-9.8M31.6 466.5l.3.7.1.2.1.1-.1-.2-.3-.8M18.3 430.2l13.4 36.3M18.3 430.2l-2.2-5.4M12.2 415.7l3.9 9.1M11.9 415v.1l.2.5.3.9M12.2 415.7l-.3-.6M25.6 451.9l-13.2-35.4"/><path class="f" d="M25.6 451.9l.2.5.2.5.4 1.1 1.1 2.7M110.4 393.7l-.3-2.6M135.9 389.8l.2.2M106.9 371.7l12.9 11.9 2.4 2.3 9 8.3M108.1 360.3l27.6 23.7M108.4 363.5l.1.7M108.4 362.8v.7M108.5 362.5l-.1.3M108.2 362.1l.2.2M108.2 361.8v.3M108.3 361.1l-.1.7M108.3 360.7v.4M108.1 360.3v.3M106.8 369.9l.1 1.8M102.5 373.6l4.4-1.9M16.5 425.1l67.3-43.9 1.6-.6.1-.1 10-4M88.7 367.9l19.4-7.6M12.3 414.3l72-44.7M108 359.8l.1.5M108.3 357.9l-.3 1v.9M108.7 357.6l-.2.1-.1.1-.1.1M108.8 358.1l-.1-.4M135.9 390h.2M13.7 418.2l-1.4-3.9M16.5 425.1l-.7-1.9M14.5 420.4l1.8 4.3.2.4M11.3 411.9l.3.7.1.5.2.5.3.6.2.6.2.7.3.8 1.6 4.1M12.3 414.3l-1-2.4M106.8 369.9l24.3 22.3M106.5 368.1l24.4 22.2M108.4 364.1l.1.1 27.3 23.9M100.6 372.4l6.2-2.5M97.4 373.6l.5-.1"/><path class="f" d="M15.8 423.2l77.7-47.9v-.1M106.8 369.9l-.3-1.8M95.7 372.5l10.8-4.4M15.1 421.4l76.5-47.3M106.5 368.1l1.9-4M92.5 370.4l15.9-6.3M13.7 418.2l74.7-46.1M130.9 390.3l4.9-2.2M131.1 392.2l-.2-1.9M135.8 388.1l.1 1.7v.2M15.8 423.2l-1.4-3.1M15.1 421.4l.7 1.8M13.7 418.2l1.4 3.2M14.4 420.1l-.7-1.9M129 359.1l1.6 1.2 1.5 1.2.7.5 1.4 1.1 1.6 1.2h.1l5.1 3.9 1.2 1 1.8 1.3 1.5 1.2.7.5 2.7 2.1 1 .8.3.2.9.6.3.3.5.4 3.6 2.7M150.7 381.3l.2.1M150.8 383.1v.1l.1.1M129 359.1l-1.1-.1M160 346.6l-31 12.5M189.8 334.6l-19.7 7.9h-.1M155.5 379.3l-.1 1.9M150.9 381.4l4.6-2.1M150.9 383.3v-1.9M189.8 334.6l-.2 1.8M188.1 333.8l1.7.8M119.2 362l17.5 14.3 2.6 2.1 9.5 7.8"/><path class="f" d="M145.8 354.1l-15.2 6.2h-.1M155.8 350.1l-4.6 1.8M189.6 336.4l-23.8 9.6M143.8 356.7l-11.7 4.8M189.5 338.1l-3.3 1.4-24.9 10.1M119.2 362l-.2-2.4v-.6l-.4-3.7-.1-1M118.5 354.3l.2-.5.3-.3h.2l.8-.1M121.2 353.8l.1.2.2.2M120 353.4l.6.1.5.3"/><path class="j" d="M136.1 390l-.2-1.4v-1l.1-.5.2-.4v-.2l-.1-.1-.2-.2-.1-.2v-.4l.3-.8v-.2l-.2-.2-.2-.4M131.2 394.2l-.1-2M138.2 391l-4.1 1.9-2.9 1.3"/><path class="j" d="M135.7 384v-1l.3-.4.3-.4.4-.3.4-.1.4.1h.1l.2.5.1 2.9.3 5.7M135.9 390l-4.8 2.2M150.6 377.4l-.3.8v.3l.2.2.2.3v.4l-.2.5-.1.4v.2l.2.1.1.4v.3h.1v2"/><path class="j" d="M148.8 386.2l-.2-5.6v-2.9l.3-.9.8-.6h.5l.1.1.3.2v.9"/><path class="j" d="M155.5 383.2l-.6.3-4.5 1.9-.7.4-.9.4M155.4 381.2l.1 1.6v.4M150.8 383.3l4.6-2.1"/><path class="f" d="M189.5 338.1l.1-1.7"/><path class="g" d="M51.8 345.2l-.6.4-.4.5-.1.7.1.7.5 1.2.9 1.1 1.1.9.5.3.7.3 1.4.4h.7l.6-.1.6-.4.4-.5.1-.6-.1-.8-.5-1.2-.9-1-1.1-.9-1.2-.7-1.4-.4h-.6l-.7.1z"/><path class="f" d="M86.5 358l-4-4-1.3-1.2-1.8-1.8M73.8 353.2l.2-.1.2-.2.5-.1.7.1.6.3.5.5.2.5.1.2v.4l-.1.3v.2M67.9 359.5h-.1l-.7-.1-.3-.5M83.4 353.7h-.1l-.4-.1-.4-.2-.1-.3.1-.3.4-.3.4-.2 1.1-.2h.1l.6.2.2.2.1.3-.1.3-.3.3-.5.2-1.1.1z"/><path class="f" d="M84.9 351.3l-.5.8-1 1.6-.2.3M65.5 358.5l.7.1M154.2 358.8l9 6.1M122.5 337.5l.2-.1.3.1.4.3.7.5.1.1M107.8 342.9l8.9-3.2v-.1M96.2 347.2l2.8-1.1.6-.2M81.2 352.8l1.5-.6 2.2-.9M71.2 356.4l1-.4h.1M70.4 364l-2.6-2.9-1.3-1.4-.6-.7-.3-.3-.1-.2.4-.1M119.8 383.6l-11.3 4.8-11.5 5-3.1-3.4-2.9-3.3-5.6-6.1-.1-.1M136.7 376.3l-3.9 1.7M163.2 364.9l-17 7.3v.1M98.3 352.1l-.2-.3M98.3 353.5v-.6l.2-.6M98.1 351.8l-.1-.8.1-.4.4-.5.4-.2h.5l.2.1v.1h.1v.1l.2.3M109.4 344.1l.1-.3-.2-.2-.4-.3-.6-.1M123.5 338.6l-.3-.3-.7-.2M122.7 337.4l-.2.6M109.3 344.1H110.7M121.7 335.6l-.2.1-.2.3-.1.6v1.4l.1.5.1.3.1.1"/><path class="f" d="M116.5 341.2l.1-.1v-1l.1-.4.2-3.2.2-1 .2-1 .3-.6.3-.2M114.4 383.2l-.1.4.3.4.5.3.7.1h.8l.6-.3.5-.3.2-.4.1-.1-.1-.4-.3-.3-.4-.3-.7-.1h-.8l-.6.2-.4.4-.3.4zM105.6 374.8h.1l.7-.1.6-.2.5-.3.3-.4-.1-.4-.2-.3-.5-.2-.5-.2h-.1l-.7.1-.6.2-.5.3-.2.4v.4l.2.3.4.2.6.2z"/><path class="f" d="M105.4 375.3v-.1l.2-.4.9-2.1.4-1M87.1 380.7l-.1.5.3.3.4.3.6.1h.7l.7-.3.4-.3.3-.3.1-.1v-.4l-.2-.4-.4-.2-.7-.1-.7.1-.6.1-.5.3-.3.4zM97.6 392.2h.1l.7-.1.7-.2.5-.3.3-.5.1-.5-.3-.4-.5-.2-.5-.2h-.2l-.7.1-.6.2-.6.3-.3.5v.5l.2.4.5.2.6.2z"/><path class="f" d="M97 393.4l.6-1.2 1.1-2.4.5-1.1M91.8 381.1l-1.4-.1-3.3-.3-1.6-.2h-.1M119.8 383.6l-1.9-.2-3.5-.2-1.9-.2M143.9 370.5h.1l.7.1.5.2.3.4v.5M132.8 362l.7.1.5.2.2.4v.4"/><path class="f" d="M135.8 363.1l-1.6-.1h-.1M163.2 364.9l-1.8-.2-3.5-.2-1.8-.1"/><path class="f" d="M161.4 364.7v.1l-.2.4-.5.3-.6.1h-.8l-.6-.2-.5-.2-.2-.3-.1-.4.3-.4.5-.2.5-.2h.8l.7.1.4.3.3.4v.2zM146.9 358.1l.4-.5.1-.2h.1l.2-.2.7-.2.6.1.7.2.5.4.4.5.1.6M150.7 358.8v.2"/><path class="f" d="M138.5 363.8l6.4-6.6.8-.8.9-.6 1.3-.4 1.4.1 1.2.4 1.1.7.8 1.1.2 1.1.1 4.5V364.7h-.3l-.7-.1-2.7-.1-10.5-.7zM102.9 375.7l-.2-.1-.2.2-.2.8-.2 1.2v1.1M102.1 378.9l.2.6.3.3"/><path class="f" d="M102.3 386.1l.2-.2.1-.4.8-1.8 3-6.6-1.8-1.9-1-1-.3-.4-.4-.2-.4.4-.4.8-.4 1.1-.2 1.4v2.8l.6 4.6.2 1.1v.3zM144 370.5l.3-1.1M57.3 338.9h-.1l-2.1 1.4-2 1.8-1.5 2.1-.9 1.9-.2.4-.8 2.4-.3 2.4v2.5l.3 2.4M60.7 338.1l2.7-.6 2.8-.3.7-.1.4.1-.1.3-.3.6-.1.3v.2l.1.1.3.2h.2l.1-.1.2-.6.4-1.4-1.1-1.2-.7-.6v-.2l-.2.1-.3.2 1.1 1.3.1.1h-.5l-.8.1-2.8.3-2.8.7"/><path class="f" d="M51.8 345.2l1.1-1.7 1.4-1.6 1.7-1.4 1.8-1.1v-.1M51.9 356.1l-.2-.3-.1-.1-.2.1-.6.3-.3.1-.1.1-.1-.1-.2-.6-.2-2.7.2-2.7.7-2.7M49.7 356.2l-1-.6-.5-.3-.2.4.2.2.2.1.5.3 1 .6M56.7 359.4l-.7 1.3-.4 1.5-.1 1.4.2 1.3.4 1.3.7 1.1.1.1.2-.2.4-.3.4-.3.2-.1h.3l.2.1-.2.2-.4.3-.9.7-.2.2h-2.2l-.3.1-.1-.1v-.1l.1-.1.2-.1 1.2-.1h.3l-.1-.1-.1-.3-.4-.6-.4-1.3-.2-1.3v-1.5l.3-1.4.6-1.5M111.1 359.8h.1l.6-.1M111.8 359.7l1.7.2.8.2.5.4.2.5v.4l-.2.5-.4.5M103.4 354.6l4.1 3.4M110.7 317.7v.7l-.7.6-1.1.4-.7.2-.7.2-1.3.1-1.3-.1-1.1-.4-.3-.2-.1-.3M75.6 342.7l-.3.1-.2.1.1.2.1.6.3 1.3v.4l.1.1.3 2M86.6 338.8l-.2.1M107.6 399.9l-.2.6-.3.5-.4.5-.4.4-.5.3"/><path class="f" d="M105.8 402.2l-.4.3-.5.2-.6.1-.5.1-.5-.1-.6-.1-.5-.3-.5-.3-.3-.3-.4-.5-.3-.4-.2-.5-.1-.5M99.9 378.9v-1.1l.1-1.2.2-1.1M150.7 355.1l.3.1.2.1.2.1.2.1.2.2.2.1.1.2.1.3.1.2.2.2M152.9 353l1.8 1.9"/><path class="i" d="M136.6 395.1l14.1-6.5-.2-3.1-14.2 6.5.3 3.1z"/><path d="M106.6 260.3A106.5 106.5 0 1 1 .1 366.8a106.4 106.4 0 0 1 106.5-106.5" stroke-width=".26" stroke-dasharray="3.97" stroke-linecap="square" stroke="#ef4136" stroke-miterlimit="10" fill="none"/><path d="M197.9.1a63.7 63.7 0 1 1-63.6 63.7A63.7 63.7 0 0 1 197.9.1" stroke-dasharray="4" stroke-width=".25" stroke-linecap="square" stroke="#ef4136" stroke-miterlimit="10" fill="none"/><path d="M397.6 209.1a4.7 4.7 0 0 1 4.7 4.7 4.8 4.8 0 0 1-4.7 4.8 4.9 4.9 0 0 1-4.8-4.8 4.8 4.8 0 0 1 4.8-4.7" opacity=".25" fill="#ed1c24" stroke-dasharray="3" stroke-linecap="square" stroke="#ef4136" stroke-miterlimit="10" stroke-width=".3"/><path class="n" d="M114.4 260.6L378 280.8M383.6 320.7L158.5 462.5"/><path class="o" d="M400.1 209.8L244.7 20.6M395.9 218.3l-222.9-96"/><path d="M375.6 280.7a20.8 20.8 0 1 1-20.8 20.8 20.8 20.8 0 0 1 20.8-20.8" opacity=".2" stroke="#ed1c24" fill="#ed1c24" stroke-dasharray="3" stroke-linecap="square" stroke-miterlimit="10" stroke-width=".3"/><g opacity=".29"><path class="b" d="M474.7 221.7a8.1 8.1 0 0 0-2.2-.7 9 9 0 0 0-4.7-2 8.9 8.9 0 0 0-3.8-1.8l-1.6-.6-.9-.4-2.4-.9-.6-.3a12.3 12.3 0 0 0-2.6-1.2 8.1 8.1 0 0 0-2.7-1.1 8.5 8.5 0 0 0-2.6-1.1l-2.1-.9-1.3-.5a9.4 9.4 0 0 0-5.2-1.6h-1.3a9.2 9.2 0 0 0-3.8-.8 8.3 8.3 0 0 0-2.2.3 9.2 9.2 0 0 0-4.3-1.1 9.6 9.6 0 1 0 0 19.2l2.2-.2a10.4 10.4 0 0 0 4.3 1h1.3l.8.4a13.9 13.9 0 0 0 2.8 1.2 10.2 10.2 0 0 0 2.1.8 9.2 9.2 0 0 0 2.3.9 7.8 7.8 0 0 0 2.1.9l1.2.6a8.5 8.5 0 0 0 3.1 1.3l1.2.6 1.8.7 1.7.7a9.5 9.5 0 0 0 4.1 1.4 10.1 10.1 0 0 0 3.2 1.4 14.1 14.1 0 0 0 3.2 1.7 10 10 0 0 0 4.2 1 9.7 9.7 0 0 0 2.7-18.9z"/></g><path class="x" d="M376.6 305.3l.8.2.7.2a2.9 2.9 0 0 1 1.2.7 2.4 2.4 0 0 1 .8.9 2.7 2.7 0 0 1 .3 1.2M371 309a1.3 1.3 0 0 1 .1-.6c0-.2.1-.4.1-.6a4.1 4.1 0 0 1 .7-1.1l1.2-.8 1.5-.5M371.4 317.1l-.4-8M380.4 308.6l.2 8M374.8 305.2h.1M374.5 303.6v-.2M376.5 303.2l.1.9M374.5 304.9v-.9M376.6 304.6v.9M374.6 306.2l-.1-.9M376.6 305.8l.1.9M419.3 247.4h.5l.6.2.8.4a1.8 1.8 0 0 1 .5.7 2.4 2.4 0 0 1 .2.8M415.1 249.6c0-.2 0-.3.1-.4s0-.3.1-.4a1.8 1.8 0 0 1 .5-.7l.9-.5 1.1-.2M415.1 255.9v-6.3M421.9 249.7l-.1 6.2M417.9 247.9h.1M417.9 246.9c.1-.1.2-.1.1-.2M419.3 245.8v.3M417.8 246.6v-.5M419.3 246.4v.7M417.8 247.6v-.7M419.3 247.4v.7M227.8 263l83.1-33.2M228.2 263.2l12 20.2M240.1 283.4h.2M334.7 253.9l-23.9-23.2M335.1 253.9l-24.4-23.6M310.9 229.8l24.9 23.9M372 220.3l10.9-1.7M313.4 229.4l57.6-9M396.1 226.3l20 11.8M382.9 218.6l12.5 7.3M313.7 229.5l25 23.5M419.3 212.9l24.7-3.8M409.3 214.5l9.1-1.4M398.3 216.2l10.3-1.6M385 218.2l12.4-1.9M444.1 209.1l41.6 17.6M436.9 235.8l48.5-9.2M422.5 238.6L436 236M416.2 236.2l3 1.7M396.4 224.8l18.9 10.9M385.3 218.3l10.4 6M259.3 331.1l.1-.1M260.1 333.2l.1-.1M259.3 331.3h.1M377.1 296.5L261 335.8M258.9 329.7l115.5-38.4M260.1 333.4h.1M442.6 350.6l.8.7M443.9 349.9l.2.2M438.3 352l.8.8M443 351.3l.3.2M436 354.2l-58.9-57.7M382.7 292.4l61.5 57.5M438.7 352.8l.2.2M390.8 251.2l-7.8 36.6M398.3 216.2l-6.1 28.6M391.4 244.7l6.1-28.7M382.4 286.9l7.6-36M372.3 291.8l-34.9-34.1M379.8 289.7l.2.2M342.1 254.5l37.6 35.2M381.9 287.6h.1M382.7 287.7l.4.1M389.9 213.4l-2.5-.4-2.5-.4a28.5 28.5 0 0 1-3.9-1.1l-1.5-.7a4.1 4.1 0 0 1-1.1-.7 2.7 2.7 0 0 1-.8-.7 1.2 1.2 0 0 1-.4-.8M409.1 213l-2.1.3-2.2.2c-1.5.2-3.1.2-4.6.3a72.3 72.3 0 0 1-9.3-.3M420.2 208.3a1.5 1.5 0 0 1-.3.7 6 6 0 0 1-.8.8l-1 .6a3.4 3.4 0 0 1-1.2.6 24.2 24.2 0 0 1-3.5 1.2l-4.3.8M418 206.7l-1-.8-1.6-.8-2-.7-2.4-.5a36.8 36.8 0 0 0-5.8-.8c-2.1-.2-4.3-.3-6.5-.3a47.3 47.3 0 0 0-6.5.4 36.9 36.9 0 0 0-5.8.9 10.2 10.2 0 0 0-2.5.6l-2 .7-1.5.8-1 .8M378.9 206.2"/><path class="x" d="M408.4 209.9l2-.4 2-.4 3.2-1 1.2-.6.9-.6.6-.6c.1-.2.2-.3.2-.5M378.9 206.1a.6.6 0 0 0 .3.6 3.4 3.4 0 0 0 .6.6l.9.6 1.3.5 3.3 1 4 .7 4.6.4h4.9l5-.2 4.6-.5M378.9 206.1"/><path class="x" d="M377 206.1a1.9 1.9 0 0 1 .4-1.2 2.9 2.9 0 0 1 1.1-1.1 6.7 6.7 0 0 1 1.8-1.1l2.7-.9 3.2-.8 3.9-.6a81.5 81.5 0 0 1 17.1-.1l3.8.5 3.3.7 2.6.9 1.9 1a4.6 4.6 0 0 1 1.2 1.2 2.5 2.5 0 0 1 .4 1.2M420.3 205.9v1.9M377.1 208.2l-.1-1.9M366.5 290.9l.2-.2M366.9 291.8l.2-.2M391.4 296.8v.1M374.4 297.3l.4.1M374.4 300.3h-.1M378 300.2v.1M372 300.6v-.2M375 297.7l.3.1M259.1 331.4h.2M240.9 285l18.4 46.4M240.4 284.8l.4-.1M259.6 333.6l.6-.1M260.3 334l31.8 89.6M292 423.6l146.5-70.3M438.8 353l.5.4M473.4 276.1v.2M468.1 275.9v-.1M470.2 273.5l.3.1M483.8 271.5l-.1.1M480.7 271.8v-.1M483.9 273.5v.1M470.6 273.2l.4.1M470.7 275.9h-.3M471 273.6l.4.1M421.9 236.6l.2.1M422.3 236.1h.3M411.2 238.3v-.1M422.5 236.7h.3M342.9 250.8l.3.1M329.4 253.5l.1-.1M337.8 260.2v.1M343 251.6h.3M334.6 257.8h.3M335.1 258.1l.3.1M329.8 254.2l.1-.1M461.3 268.9h.1M417.9 241.7l.2.1M418.2 242.1h.3M398.2 213.8v.7M397.6 214.5v-.7M398.2 214.4h.3a.2.2 0 0 1 .2.2M397.1 214.7h.5M398.7 214.7v1M397.1 215.7v-.9M398.7 215.7a.1.1 0 0 1-.1.1h-1.4c-.1-.1-.1-.1-.1-.2M398.3 216h-.1M418.1 212.2h-.3M418.7 212.1h-.1M418.5 210.2v.5M417.9 210.7v-.2M418.5 210.6h.4v.2M417.5 210.9v-.2M419 210.9v.9M417.5 211.8v-.9M419 211.8v.2h-1.4v-.2M406.4 205.1c-.3.3-.5.3-.8 0M405.7 203.8v-.7M406.3 203.2v.6"/><path class="x" d="M406.3 203.7h.3c.1 0 .1.1.1.2M405.3 204h.4M405.3 204.9v-.9M406.7 204v.9M405.8 205.2h-.5M406.7 204.9h-.9M362.9 233.9l-14.4 21.6M378.6 210.3l-12.3 18.5M365.7 228.4l12.3-18.5M347.9 255.2l14.4-21.7M412.8 225.5l5.3 16.8M408.9 213.1l2.1 6.6M406.4 205.2l1.5 4.7M407.2 210.1l-1.5-4.7M410.3 220l-2.1-6.8M417.4 242.1l-5.3-16.4M441 241.3l20.5 26.5M418.6 212.1l18.5 24M436.5 236.6l-18.6-24.2M460.9 268.3l-20.5-26.6M377.5 291.5v-.2M379.5 291.2v.2M377.5 291.3c0-.2 0-.3.2-.4M377.7 290.9l.2-.2h1l.5.2c0 .1.1.1.1.2v.2M471.4 268.5v-.2M473.2 268.5v.1M471.4 268.3c0-.1 0-.2.1-.2M471.5 268.1a.1.1 0 0 1 .1-.1h1l.4.2h.2v.2M550.2 313.6l.9.5M551.5 312.9l.2.2M547 314.7l.9.5M550.7 314.2l.3.1M544.9 316.5l-73.3-43.6M475.7 269.1l76.1 43.8M547.5 315.3l.3.1M547.7 315.4l.5.3M443.3 351.7l104.2-36.1M443.1 351.5l.2.1M457.2 262.2l10.8 6.4M420 240.3l35.4 20.9M471.6 272.9l-86.7 21.6M380 289.9l89-21.5M346.5 255.9l-2.4.5M390.4 247.4l-41.8 8.1M417.3 242.2l-25.2 4.9M419.9 241.8l-1.5.2M416.9 238.5l.8-.2M392.6 243.1l23.7-4.5M351.7 250.7l40-7.5M340 252.9l10.7-2M240.2 283.1h.2M240.7 284.5l.1-.1M334.1 258.3l-92.6 28.2M337.4 257.7l-2.1.4M240 282l96.2-28.4M337.9 253.8v-.1M339.6 253.6v.1M337.9 253.7l.2-.2M338.1 253.3c.1 0 .2 0 .2-.1h1.2v.2M419.5 238.4v-.1M421 238.3v.1M419.5 238.2v-.2M419.6 238h1.3v.2M476.6 269.7l70-17.3M546.6 252.4l82.9 35.1M551.1 314.4l78-26.9M550.8 314.3l.3.1M373.9 211.6l.2.1M371.2 213.2L347.4 199M350.3 197.1l24.2 13.9M371.7 212l.2.1M305.7 222.6l-.5-.4M305.6 222.2l-.4-.4M305.4 221.6l.2.2M302.2 223.3l-16.9-16.5M288.7 204.7l17.4 16.2M302.9 222l.1.1M302.7 222.5l-.2-.1M302.7 222.9l-.1-.1M373.4 211.2l.8.5M374.3 211l.2.1M371.3 211.6l.7.4M305.1 221.1l.6.5M305.8 220.9l.2.1M302.6 221.5l.5.5M479 170.2l.2-.1M559.2 164l-77.2 8.7M478.5 168.8l77-8.2M481.4 170.8l.3-.1M479 169.9l2.2-.2M481.4 170.6l.7-.1M463.5 149.4l-.4-.2h-.3l-.5-.2-.3-.3a.4.4 0 0 1-.1-.3M463.9 149.5h-.4M468 150.3h-.1M468.7 150.4h-.1M469.5 150.5h-.1M486.2 151.4h-1.1M488.4 151.4h-.3M490.2 151.3h-.1M497 150.9h-.1M503 149.2c0 .1-.1.1-.1.2h-.1l-.5.3-.8.3-1 .3M476.7 215.5l.4.1M485.4 147.3l.1-.8M486 146.5v.8M486.1 147.3h.3M485 147.5c0-.2.1-.2.2-.2M484.9 148.3l.1-.8M486.4 147.5l-.1.9M489.7 188.9h.3M501.6 152l-.3-.2M502.2 151.8h-.1M477 216.3l.3.1M446.2 174.4l-16 22.6M463 150.7l-13 18.4M449.4 168.7l13-18.3M429.6 196.6l16.1-22.6M462.4 150.4h-.1M463.2 150.3l-.4.2M481.7 182.5l-4.5 33.9M482.9 173.5l-.3 2.5M485.5 153.8l-1.9 14.5M462.1 149.2h.3M462.1 150.1v-.9M463.5 149.4v.7M462.5 150.3h-.4M463.4 150.2c0 .1 0 .1-.1.1h-.7M463.5 150.1h-.1M488.2 172.9l1.5 16M486.2 151.4l1.5 16.4M487.1 167.9l-1.4-14.3M489.1 188.9l-1.5-15.9M484.8 153.7h-.1M485.7 153.6h-.2M476.2 216.3h.3"/><path class="x" d="M498 147.8l-3-.5-3.7-.4c-2.9-.3-5.9-.4-8.8-.5h-8.8l-3.8.2-3 .4"/><path class="x" d="M496.4 147.9h1.9l1.4-.2 1.1-.3.4-.2h.2M463.7 146.1h.2l.3.2 1 .3 1.3.3 1.7.3M497.9 144.8l1.4.2 1.1.3.9.3.8.2.5.3.3.3.2.3c.1.1.1.2.1.4M493.5 144.3l3 .3M467.7 144.2l1.3-.2M462 146.2v-.3q.2-.3.3-.3c.1-.2.2-.2.3-.3l.5-.2 1.6-.5 2.3-.4M503.2 147.1l-.2 2M461.9 148.2l.1-2M502.1 149.9v.6M501.5 150.5l.1-.4M502.2 150.4h.3M501.1 150.5h.2M502.5 150.7l-.1.9M501 151.6l.1-1M502.4 151.6a.1.1 0 0 1-.1.1h-1.2a.1.1 0 0 0-.1-.1M475.7 218.7l74.5-13.1M541.1 202.9l9.3 2.8M490.2 187.8l49.7 14.8M489.6 187.9l.6-.1M480.8 189.1l8.2-1.1M431 195.9l49-6.7M422.7 197l7.4-1M422.9 197l52.8 21.7M522.3 178.3l19.9 26M515.8 169.8l2.5 3.3M502.1 151.9l10.2 13.3M511.4 165.3l-10-13.1M517.7 173.5l-2.8-3.6M541.6 204.7l-19.9-26M485.6 151.4v.8M485 152.2l.1-.8M485.8 152.2h.1c0 .1 0 .1.1.1M484.5 152.4h.3M486 152.5v.9M484.5 153.4v-1M486 153.4h-1.5M477.3 216.9c0-.2-.2 1.1-.1 1M542.7 205.5h.3M493.3 147.1c-7-.8-19.3-1.1-26.3 0M497.9 147.8l-4.6-.7M371.4 317.1c.1 1.3 1.9 1.9 2.8 2a8.2 8.2 0 0 0 3.8-.2M378 318.9c.9-.2 2.7-.9 2.6-2.3M427.3 198.9c.5-.6 1.3-2.2 2.3-1.4s.3.9.3 1.4v.7c0 .3-.3 0-.4 0h-.3M375.9 303.6c.4-.2.6-.3.6-.7M475.8 218.7c0-.4.1-.8.1-1.2a1.3 1.3 0 0 0 .1-.6.4.4 0 0 1 .1-.3c0-.1-.1-.4.1-.3M490.4 190.7a5.9 5.9 0 0 1-.2-1.3c-.1-.2-.2-.6-.3-.4a1.4 1.4 0 0 0-.2.7 5.3 5.3 0 0 0-.1 1.3c0 .5.5-.1.8-.3zM376.5 303c.2.6-.1.7-.6.9M374.5 303.6c0 .5.4.2.7.2l.7-.2M376 304.9c.3-.2.6-.3.6-.8M374.5 304.9c.1.5.5.2.7.2l.8-.2M376 306.2c.4-.2.6-.3.6-.7M376.6 304.3c.2.6-.2.7-.6.9M375.9 303.9c-.4.3-2 .1-1.2-.1M376 306.5c-.5.3-2 .2-1.2-.1M375.7 306.3h.3"/><path class="x" d="M374.6 306.2c0 .3.3.2.5.2h.6M489.8 189.8c0 .1-.2.3.1.3M376.6 305.6c.2.6-.2.7-.6.9M376 305.2c-.5.3-2 .1-1.3-.1M490 189.3c-.3-.1-.2.3-.2.5M502.3 150.4c.6.4.7.8.1 1.2a10.1 10.1 0 0 1-3.8.9 49.5 49.5 0 0 1-5.4.6c-3.6.2-7.2.2-10.9.1a97.7 97.7 0 0 1-10.8-.6l-5.4-.7a16.6 16.6 0 0 1-3.8-1.1c-.5-.3-.8-.7-.2-1.1M474 148c3.7-.2 7.3-.1 11 0M486.3 148.1l4.3.2M415.1 255.9c0 .9 1.7 1.1 2.3 1.2a8.9 8.9 0 0 0 2.8-.1M420.2 257c.4-.1 1.6-.4 1.6-1.1M502.1 150.3h.2M418.9 246.5c.2-.1.4-.1.4-.4M417.8 246.6c0 .4.3.1.5.1l.6-.2M418.9 247.5c.2-.1.4-.1.4-.4M486.9 229.7l-47.1 9.2M419.2 246.3c.2.3-.1.4-.3.5M418.9 247.8h-.9M418.7 247.6h.2M417.8 247.6c0 .3.3.1.4.1h.5M438 239.2l-11.7 2.3-1.9.3c-.1.1-.4.1-.2.2h.2l.6.4 2.4 1.4c1.8 1 3.6 2 5.3 3.1l21.4 12.4M419.2 247.3c.2.3-.1.4-.3.5M418.9 246.8h-.9M228.8 264.7l82-33.3M229.9 264.9l80.2-33M230.1 265.3l80-33M455.8 260.5l13.6 7.9M240.8 281.9l-10.9-17M240.1 286.1l-12.1-21M227.7 263.2l.3 1.9M227.9 263h-.2v.2M228.2 263.2c0-.1-.1-.2-.3-.2M240.4 286.1h-.3M239.7 283.9l.4 2.2M240 283.5c-.2.1-.3.2-.3.4M240.1 283.4c-.1 0-.1 0-.1.1M240.2 283.4h-.1M310.8 230.9v.5M310.7 230.6h.1M310.7 230.5v.1M310.8 230.4h-.1M240.4 286.1h-.3M310.8 231.4l23.2 22.7M310.1 231.9v.4M310.1 231.9l22.7 22.4M310.1 232.3l22.3 22M310.7 230.1v.1M310.8 229.8a.4.4 0 0 0-.1.3M310.9 229.8c0-.1 0-.1-.1 0M421.8 244.6l38.7 23.2M369.9 222.2l-54.8 8.6M382.8 220.1l-12 1.9M369.6 222.5l-54.2 8.6M382.4 220.5l-11.8 1.9M369.3 223l-53.5 8.4M382.4 220.9l-12.1 1.9M549.9 317.3l.7.4M347 256.4c.3-.3.7-.2.8.3M382.8 219.7v-.2M382.8 220.1v-.4M395.1 227.4l-12.3-7.3M414.4 238.9l-18.6-11.1"/><path class="x" d="M345.4 257.6l1.3-1.5a.9.9 0 0 1 1.5.5c.1.4.5 1.6-.2 1.6h-2M394.9 228l-12.5-7.5M411.7 238l-16-9.5M413.5 239.1l-.4-.2M382.4 220.9v-.4M394.9 228.4l-12.5-7.5M411.3 238.2l-15.7-9.4M382.8 218.9a.4.4 0 0 1 .1-.3M382.8 219v-.1M418.2 243.1a.4.4 0 0 0 .1.3M418.5 242.5c-.4 0-.3.3-.3.6M313.5 229.4h.2M313.2 229.6h.3M313.4 231.3l-.2-1.7M313.4 231.3l23.1 22.2M397.1 217.9l-9.9 1.5M409.1 216l-11.2 1.7M419.4 214.4l-9.6 1.5M443.9 210.5l-23.6 3.7M397 218.2l-9.3 1.5M409.2 216.3l-11.3 1.8M419.6 214.6l-9.8 1.6M443.7 210.8l-23.2 3.7M396.9 218.6l-8.7 1.4M409.3 216.6l-11.5 1.9M419.9 215l-9.9 1.5M443.7 211.2l-23 3.6"/><path class="x" d="M419.3 243.6l-.6-1.3c-.3-.7-.6.4-.7.9v.8c0 .2-.2.7.1.5zM458.8 270.6h.1M333.5 262l.7-.7M332.5 260.2c.2 0 .4-.2.2-.2a.5.5 0 0 0-.5 0c-.2 0-.3.2-.2.2a.4.4 0 0 0 .5 0zM444 209.8v-.1M443.9 210.1h.1M443.9 210.5v-.4M482.8 227.1l-38.9-16.6M334 261.8c.2 0 .4-.2.2-.3h-.5c-.1.1-.3.2-.1.3zM482 227.3l-38.3-16.5M443.7 211.2v-.4M481.3 227.4l-37.6-16.2M444 209.1h.1M444 209.3v-.2M444 209.4v-.1M339.1 260.9l-1.6-.2M438.8 237.6l46.9-9M421.1 241l16-3M485.8 226.9l-.1 1.7M485.6 226.6h.2a.1.1 0 0 1 0 .2M485.4 226.6h.2M385.1 218.2h.2M384.9 218.4h.2M384.9 219.7v-1.3M420.7 239.3l-.1 1.4M259.8 333.6l-.3-1.4a1.5 1.5 0 0 0-.1-.7c0-.2-.1-.3-.1-.4v.3M259 329.9a24.7 24.7 0 0 1 1.5 4.6M259.2 331.2a5.9 5.9 0 0 1-.2-1.3"/><path class="x" d="M260.4 334.2a6.4 6.4 0 0 0-.2-.7.4.4 0 0 0-.1-.3c-.1-.2 0 .2 0 .3M259.7 333.6c0-.4-.1-.8-.1-1.2a1.3 1.3 0 0 1-.1-.6c-.1-.1-.2-.7-.2-.4M375.4 291.4l-.2-.2M377.6 293.5l-.2-.2M260.5 334.5"/><path class="x" d="M259.2 331.3c-.1-.3-.1-.6-.2-.8s-.3-1.3-.1-.8a10.1 10.1 0 0 1 .7 1.5 17.8 17.8 0 0 1 .9 3.3M260.3 334c0-.2-.2-.9-.2-.5"/><path class="y" d="M440.7 355.4l1.5-.5"/><path class="x" d="M333 260.2l-1.4-.2"/><path class="y" d="M442.2 354.9a18.5 18.5 0 0 0 .1-2.3c0-.9 1-2.1 1.3-1"/><path class="x" d="M439 351.8l3.2 3.1"/><path class="y" d="M444.1 351.4v-1.2c0-.5-.8.1-1 .2l-2.3.8-2.2.8c-.2 0-1 .2-1 .5s-.1.7-.1 1.1"/><path class="y" d="M438 353.5c.1-.4.3-.7.7-.7s.6.2.6.6"/><path class="x" d="M437.5 353.6h.1"/><path class="y" d="M439.4 355.9l1.3-.5M440.7 355.6l1.8-.6"/><path class="x" d="M336.9 259.4c.2-.1.3-.2.1-.3h-.4c-.2.1-.3.2-.2.3z"/><path class="y" d="M442.5 355v-2a3.1 3.1 0 0 1 .1-1c.1-.5.5-.9.7-.4"/><path class="x" d="M381.6 292.2l.6-.1M376.9 293.4l.5-.1"/><path class="y" d="M444.3 351.3a5.6 5.6 0 0 0 0-1.3c0-.5-.8 0-1.1.1l-2.4.9-2.4.8c-1.4.5-1.1.7-1.1 1.9M438.3 353.4c.1-.4.7-.7.7-.2M439.4 356.1l1.3-.5"/><path class="x" d="M398.3 216.2h-.1M337.2 255.1h-.1M337.6 255l-.4.1M341.7 254.3l-.5.1M383.4 289.1c0-.5.2-1.9-.4-1.3s-.3 1-.4 1.5M382.1 289.4c.1-.3.1-.6.2-.9s.1-.3.1-.4.1-.4.3-.4"/><path class="x" d="M382.9 289.3a1.6 1.6 0 0 1 0-.7c.1-.1 0-.3.2-.3s.1.2.1.3M383.2 288.6a1.3 1.3 0 0 1-.1.6M381.7 289.5a6.8 6.8 0 0 1 .2-1.4c.1-.3.1-1.4.6-1.3M382.9 286.8c-.4 0-.5 1-.6 1.3a5.9 5.9 0 0 0-.2 1.3M383.1 287.8v-.4M485.7 229.3l1.4.6M439.3 238.3l46.4-9M427.3 240.6l10.3-2M487.1 229.9l-.8 10.4M439.9 239.1l47.2-9.2M428.6 241.3l9.6-1.9M446.7 248.5l39.6-8.2M437.3 250.5l8.5-1.8M383.3 230.8l-.3-9.5M393 237l-9.7-6.2M400.1 241.6l-6.4-4.1M423 358.7l-42.4-44.4M438.8 375.2l-13.1-13.7M439.3 357.9l-.9-.9M442.9 356.6l-1.3-1.3"/><path class="z" d="M439.3 357.9l-.5 17.3M442.9 356.6l-3.6 1.3M442.3 373.9l.6-17.3M438.8 375.2l3.5-1.3"/><path class="x" d="M442.3 373.9l-3.4-3.5M546.1 255.5l-1.6 11.8M495.5 280.5l49-13.2M242.6 300.2h.3M240.3 287l2.3 13.2M240.7 288.1l-.4-1.1M240.3 287h.2M243.1 301.4l-2.4-13.3M243.1 287.7l88-27.5M240.7 288.1h.2M242.6 300.2l.5 1.2M248.2 300.3l90.9-29.3M243.1 301.4l2.8-.6M449.2 273.2l-27.4-17.6M419.7 245.7v1.8M348.6 256.8l41.5-8M388.8 260.6l26.3-5.5M356 267.5l31.9-6.7M339.1 271l-.6-9.2M361.5 294.4L339.1 271M526.5 322.9l-55.6-35.8M545.6 335.2L529.8 325M547.9 319.7l-1.1-.6M550.5 318.7l-1.6-.9"/><path class="z" d="M547.9 319.7l-2.3 15.5M550.5 318.7l-2.6 1M548.2 334.2l2.3-15.5M545.6 335.2l2.6-1"/><path class="x" d="M548.2 334.2l-2.3-1.4M312.3 242.9l-.9-9.4M324.6 255.8l-12.3-12.9M313.3 232.1l.2-.1M336 253.7L313.5 232M330.1 254.5a.4.4 0 0 1 .5.2M331.7 254.5c-.2-.2-.3-.5-.6-.7M338.5 260.9c.1 0 .3-.2.1-.2h-.5c-.1 0-.3.1-.1.2a.5.5 0 0 0 .5 0zM336.5 259.4l.6-.5M343.3 252c-.2 0-.2.2-.2.3M341.9 252.6c0-.3 0-1.2.5-1.1M420.3 207.8c0 2-3.6 3.2-4.9 3.7a42.9 42.9 0 0 1-6.2 1.4M409.2 212.9l-5.4.6-5.3.2-5.5-.2-5.2-.5a32.9 32.9 0 0 1-4.3-.9 20.4 20.4 0 0 1-3.5-1.1l-1.3-.7-.9-.7a1.8 1.8 0 0 1-.5-.7 1.9 1.9 0 0 1-.2-.7M335.9 253.9l.4-.1M340.2 253.1h.2M369.6 292.5a3 3 0 0 0-1.2-1.5c-.4-.4-1.3-.8-1.7-.3"/><path class="x" d="M366.8 292.6c-.6-.9-.7-2.2.6-1.9a2.8 2.8 0 0 1 2 1.8M368.2 292.8c.3-.6-.8-1.1-.9-.4M367.3 292.5a.5.5 0 0 0 .3.5M366.8 293.2c-.1-2.1 1-2.1 2.2-.6M367.1 291.7h-.1M368.7 291.8c-.5-.6-1-.9-1.6-.2M369.3 292.6l-.6-.8M390.2 297.3l.1-.2M390.3 297.1c0-.9.4-2.6-1-2.9s-2.2 1.7-2.5 2"/><path class="x" d="M387.7 295.2a2 2 0 0 1 2.2-1.5c1.3.2 1.2 1.5.4 2.3"/><path class="x" d="M390.6 295.6c.5-.7.6-1.7-.3-2s-1.6 0-2.2.8M388.8 298.2l.9-.2M387.3 295.6a1.6 1.6 0 0 0-.9.3M389.7 298c1.3-.3 2.3-1.5.9-2.2M391.4 296.9c0 .8-1.1 1.2-1.6 1.3M389.8 298.2h-.8"/><path class="x" d="M389.6 295.5c0-.7-1.1-.9-1-.2s.1.5.5.6.5 0 .5-.4zM375.2 297.8c-.6-1.5-1.5 1.1-.8 2.3M374.4 300.3l-.4-.2"/><path class="x" d="M374 300.1a2.7 2.7 0 0 1-.3-1.5c.1-.4.1-1.4.7-1.3M376.1 298.8c2.5.4 2.6 2 .1 2.7"/><path class="x" d="M376.2 301.5a5 5 0 0 1-3.4-.2c-1.4-.7-.5-1.9.8-2.3"/><path class="x" d="M372 300.6c.1.8 1.3 1.1 1.9 1.2a6.5 6.5 0 0 0 2.4-.1M376.3 301.7c.5-.2 1.7-.6 1.7-1.4M374.9 301.2h-.4M374.5 301.2a11.5 11.5 0 0 1-.1-1.9 2.8 2.8 0 0 1 .1-.9c.1-.3-.1-.8.5-.7M376.1 298.9l-.2-.3M390.5 296.9l.1-.2M387.7 295.1l-1 1.1M390.6 296.7v-1M390.5 296.9h-.2M390.4 295.9l.1 1M386.7 296.2l1-1M375.1 299.2a.8.8 0 0 1 .1-.7c0-.1.2 0 .2.1a.8.8 0 0 1-.1.7c0 .2-.2.1-.2-.1zM374 301.1l-.4-.1M373.6 301c0-.7-.2-2.6.3-3.3M374 301.1l.4-.5M374 300v1.1M259.1 334.8l.4-.1M242.9 287l17 42.4M240.6 287.2l18.5 47.6M258.7 332.1l.4 2.7M259 331.5a.1.1 0 0 0-.1.1h-.1v.2a.4.4 0 0 0-.1.3M259.1 331.4h-.1M334 258.6l-92.5 28.1M337.6 257.9l-2 .4M336.5 253.5l-23.1-22.2M333.9 259.1l-91 27.9M337.1 258.5l-1.2.2M334 259.6l-90.9 27.9M337.1 258.9l-.9.2M240.2 285l.4 2.2M240.5 284.8h-.3v.2M240.9 285l-.4-.2M335.3 253.8c-.1-.5.8-.4 1.1-.5l1.3-.2 1.3-.3c.3 0 1.2-.5 1.2.1M371.2 292.1l-34.1-33.6M337.1 258.9v-.4M370.8 292.2l-33.7-33.3M374.5 297.3l2.7-.7M261.1 336l113.1-38.6M375.5 297.8l1.3-.3M262.8 336.4l110.9-38.1M375.8 298.4l1-.3M263 337.1l110.6-38.2M337.7 253.1v.1M293.9 423l-31.1-86.6M291.9 428.1l-32.1-91.5M259.4 333.9l.4 2.7M259.8 333.6h-.4v.2M260.3 334h-.1a.1.1 0 0 1-.1-.1h-.3M439.4 356.7l-147.5 71.4M291.4 424.7l.5 3.4M291.7 423.8c-.1.1-.1.1-.1.2a.3.3 0 0 0-.1.2v.4M292 423.6l-.3.2M292.1 423.6h-.1M333.5 262l5.6-1.1M376.8 297.5v.6M376.8 297.5l57.9 57.1M376.8 298.1l57.4 56.7M439.4 353.7v3M438.9 353.3h.4a.1.1 0 0 1 .1.1M438.5 353.3h.4M471.3 274.9v-.5c.1-.1.1-.3.1-.2v.8c-.1 0-.1.2-.1.1v-.2M470 278.8l.1-.9M485.6 274.8l.1-.9M465.2 275.8l4.8 3M470 278.8l6.2-1.6M471.6 274.9c1.6.3 2.6 1.5.8 2M472.4 276.9a5.3 5.3 0 0 1-3.5-.3c-1.6-.7-.4-1.7 1.1-1.8"/><path class="x" d="M468.1 275.9c-.1.9 1.3 1.1 1.9 1.2a4.5 4.5 0 0 0 2.3 0M472.3 277.1c.5-.2 1.1-.1 1.1-.8M483.1 273.3l.1-.1M480.8 271.5l-.3.4M483.2 273.2v-.8M483.2 272.5l-.1.8M480.5 271.9l.3-.2M470.3 276.6h-.4"/><path class="x" d="M469.9 276.6c0-.6.1-1.1.1-1.6a1.7 1.7 0 0 1 .1-.7c0-.3 0-1.2.2-.7M470.3 276.6l.2-.7M470.3 275.6v1M483.1 273.4c0-.6.3-2-.4-2.4s-1.5.4-2.1.9"/><path class="x" d="M480.7 271.8a2.3 2.3 0 0 1 2.2-1.4c1.4.1 1.1 1.3.2 2.1M483.8 271.5c.5-2-2.5-1.5-3.1.2M483.8 273.7c.4-.5-.1-.8-.6-1M483.9 273.6v.2M483.9 273.5"/><path class="x" d="M482.6 272a.5.5 0 1 0-.9-.1c-.1.3.1.5.4.5s.5-.1.5-.4M471.1 273.6c-.1-1.3-.4 1.3-.4 2.1M470.4 275.9c-.1 0 0-.1 0-.2M470.4 275.7a2.8 2.8 0 0 1 0-1.3v-.6c.1-.2 0-.9.2-.5M471.1 276.7h-.4"/><path class="x" d="M470.7 276.7a8.1 8.1 0 0 1 .1-1.6v-.7a.8.8 0 0 0 .1-.4c0-.1-.1-.4.1-.4M462.5 269.9c.3-.5-.8-.9-.9-.3M461.6 269.6a.5.5 0 0 0 .3.5M421.8 238v.2M421.8 238.2c.1-.4.1-.8.2-1.1s0-1 .3-1M422.7 236.7c.1-.2.3-.7-.1-.6s-.2.4-.2.6a7 7 0 0 0-.3 1.4M422.9 238.4h.1M417.3 246.2v-.7M431.1 243.5v-.8M413.8 244.1l3.5 2.1M426.8 244.3l4.3-.8M417.3 246.2l5.5-1.1M413.2 239.2c-.3-.7-1.3-1.8-2-.9M411.2 239.5c-.8-1.5 1-1.8 1.9-.3M422.9 237.4a.6.6 0 0 1-.1.4c0 .1-.1 0-.1-.1v-.5c.1-.1.2.1.2.2z"/><path class="x" d="M422.9 238.5v-.9c0-.3.3-1.2-.1-.9s-.2.6-.3.9-.1.6-.1.9M422.1 238.3c0-.2.1-.5.1-.8a.6.6 0 0 0 .1-.4c.1-.2 0-.4.2-.4M412.4 239.3c-.3-.3-.6-.3-.7.2M411.3 239.5c0-1 1-1 1.5-.3M413 239.2c-.4-.5-.9-.9-1.4-.3M335.2 259.3a.7.7 0 0 1 .1-.6c.1-.2.2 0 .3.2a.7.7 0 0 1-.1.5c-.2.2-.3 0-.3-.1M342.1 252.5l.3-.9c.1-.3 0-.8.5-.8M343.5 251.7c0-.6-.3-1.1-.6-.5a5 5 0 0 0-.4 1.3M333.6 262.8l-.1-.8M350.5 259.4v-.8M331 260.1l2.6 2.7M347.9 260l2.6-.6M333.6 262.8l6.2-1.2M331.6 254.5c-.3-.6-1.3-1.7-2.1-1.1"/><path class="x" d="M329.4 254.9c-.3-.7-.6-1.6.4-1.5a2.1 2.1 0 0 1 1.6 1.1M336.3 259.4c.5 0 1.8.1 1.4.9s-.9.7-1.6.8M336.1 261.1a5.3 5.3 0 0 1-2.5 0c-1.2-.4-.7-1.2.4-1.5"/><path class="x" d="M332.9 260.6c0 .6 1.1.7 1.5.8h1.7M336.1 261.3c.5-.1 1.7-.3 1.7-1M343.1 252.3c.1-.2.3-.3.4 0M334.4 260.9l-.3-.1M334.1 260.8a5 5 0 0 1-.1-2.1M334.4 260.9l.3-.3M334.3 259.9l.1 1"/><path class="x" d="M343.6 252.2c0-.3.1-.8-.4-.6s-.2.5-.3.8"/><path class="x" d="M342.6 252.4a1.1 1.1 0 0 1 .1-.5c.1-.1.1-.4.3-.3M335.4 258.2c-.4-.6-.9-.4-1 .3a2 2 0 0 0 .2 1.5M334.7 260.2c-.2 0-.3-.1-.3-.2M334.7 257.8h.1"/><path class="x" d="M334.4 260a1.9 1.9 0 0 1-.4-1.2c0-.5-.1-1.1.6-1M335 260.9h-.3M334.7 260.9c0-.5-.1-1-.1-1.5s-.1-1.3.5-1.3M330.6 254.7c-.3-.3-.7-.3-.7.1M329.5 254.9c-.1-1 .9-1 1.5-.3M331.2 254.6c-.3-.5-.7-1-1.3-.5M462.3 269.3c-.3-.3-.7-.2-.7.2M461.6 269.5v.2M461.1 269.5c.1-1.4 1.5-.6 2.1.3M461.1 270.3v-.8M463.4 269.7c-.4-.5-.6-1.3-1.5-1.1M463.7 269.6l-.3-.5M463.6 269.7c-.2-.8-1.1-2-2.1-1.9M461.4 267.9c1 0 1.8 1.1 2.1 1.8M461.1 269.8c-.3-.5-.6-.9-.2-1.5M418.3 243.1a.9.9 0 0 1 .1-.5c.1-.1.2.1.2.2a.9.9 0 0 1-.1.5c-.1.1-.2-.1-.2-.2zM417.5 244.5l-.3-.1M417.2 244.4a5 5 0 0 1 .1-2.1M417.5 244.5l.2-.2M417.5 243.6v.9M419.2 243.4c.4.1 1.5.1 1.2.8s-.9.5-1.4.6"/><path class="x" d="M419 244.8a4.5 4.5 0 0 1-2.3-.2c-1.1-.4-.6-1 .5-1.2M417.7 242.2a1.6 1.6 0 0 0 .1 1.5M418.5 242.1c-.1-.2-.2-.5-.5-.3M417.7 244c-.1-.1-.2-.2-.2-.3M417.5 243.7a1.8 1.8 0 0 1-.1-1.6M418 244.6l-.3-.1M418.1 242.2h.1M417.7 244.5a6.2 6.2 0 0 1 .1-1.9M348.5 255.5c.6.7.3 1.1-.2 1.7M346.1 256.8a1.8 1.8 0 0 1 1.7-1.5M347.9 255.1c-.9 0-1.3.4-1.7 1.3M348.7 256.5a1.1 1.1 0 0 0-.1-1.1M348.4 258l.1-.2M346.1 256.6l-.8 1M348.5 257.8l-.1-.8M348.4 257.1v.9M345.4 257.6l.7-.9M346.8 258.9l1.4-.2M345.5 257.3h-.3M348.2 258.7c.9-.3 1.4-1 .2-1.4M347.8 256.7c-.1-.6-1-.6-.9 0s.1.4.4.5.5-.1.5-.5M348.3 258.2l.1-.1M347.5 255.8c-.8-.2-1.8 1.5-2.1 1.8M348.4 258.1c-.1-.7.2-1.3-.3-2M398.2 214.5c0 .2-.7.2-.6 0M347.2 259.3l3.3-.7M331.6 260l1.9 2M336.5 259.7l-.9-1.4c-.3-.4-.5.1-.6.4a1.9 1.9 0 0 0-.1.8 2.5 2.5 0 0 1 .1.8c0 .2 0 .7.2.5zM335.1 259.3c0 .1 0 .2.2.2M418.5 210.7c0 .1-.6.1-.6 0M335.4 258.6c-.4-.1-.3.4-.3.7M412 239.2c.2-.1.3 0 .4.1M426.7 243.6l1.7-2.4M431.1 242.7l-7-.6M430.6 242.8h-.4c-.2-.1-.1-.2 0-.2h.4c.2 0 .1.2 0 .2zM428.4 241.6h-.4c-.1 0 0-.1.1-.2h.4c.1 0 .1.1-.1.2zM406.3 203.8c-.1.2-.3.1-.4.1M405.9 203.9h-.2M424.9 242.2c-.1.1-.2.1-.4 0s0-.2.1-.2h.4c.1.1.1.2-.1.2zM427.1 243.5h-.4c-.2-.1-.1-.2 0-.3h.4c.2.1.1.3 0 .3zM422.8 237.1c-.2 0-.2.9-.1.8M421.5 238c.1-.2.1-.5.2-.7v-.4c.1-.1 0-.3.2-.3M420.3 239.4l-.1 1.1M417.5 238.5h.4M406.4 205.2c-.1.4-1 .4-.7 0M418.1 212.2l-.2.2M373.2 303.7v-1M393.2 298.6v-1M369.6 299.9l3.6 3.8M390.1 299.4l3.1-.8M373.2 303.7l7.4-1.9M375.4 291.4v-.4M377.4 293.3v-.4M381.6 292.2v-.4M381.6 291.8l-4.2 1.1M377.4 292.9l-2-1.9M375.4 291l4.2-1M379.6 290l2 1.8M379.6 292.7h.1M379.5 291.4c0 .6-2 .7-2 .1M379.4 291.1c.1.1.1.1.1.2M421.2 237.8h.2M420.4 239.3v1.3M416.9 238.3c.2-.4.6-.2.9-.2l1-.2 1.1-.2c.1-.1.8-.4.9-.1M419.8 239.4v.2M419.9 239.4v.2M469.4 268.6v-.4M471.9 270v-.3M475.2 269.2v-.3M471.4 268.5c-.1.5 1.8.6 1.8.1M475.2 268.9l-3.3.8M471.9 269.7l-2.5-1.5M469.4 268.2l3.3-.8M472.7 267.4l2.5 1.5"/><path class="y" d="M548.8 317.6l1.1-.4"/><path class="x" d="M418.8 237.9v.1"/><path class="y" d="M549.9 317.2l.3-1.9c.1-.6 1-1.8 1-.9"/><path class="x" d="M548.4 316.3l1.5.9"/><path class="y" d="M551.6 314.2c0-.3.1-.6.1-.9s-.4-.1-.6 0l-1.8.6-1.7.6c-.3.1-.6.1-.7.5s-.1.6-.1.9M547.2 315.8c.1-.5.9-.8.9-.2M548.1 317.9l.7-.3M548.8 317.8l1.3-.4"/><path class="x" d="M417.3 245.5l4.5-.9"/><path class="y" d="M550.1 317.4c.1-.6.1-1.2.2-1.8s.1-.5.2-.8.4-.8.5-.4"/><path class="x" d="M471.4 270.1l2.2-.5 1-.3c.4 0 .6-.4 1.1-.2"/><path class="y" d="M551.8 314.2c0-.3.1-.7.1-1s-.4-.3-.7-.2l-1.9.7-1.9.6c-.8.3-.7 1-.8 1.7"/><path class="x" d="M547.3 315.7c.1-.3.5-.6.6-.2"/><path class="y" d="M548.1 318.1l.7-.3"/><path class="x" d="M389 293.7l-3.9 1M470.6 273.3l-80.9 20.2M471.7 273l-1 .2M387.9 294.7l-2.2.6M470.1 274.1L390.8 294M387.4 295.4l-1.2.3M470 274.6l-79 19.9M471.7 273v-.1M544.8 316.6L471.7 273M425.8 243.8l5.3-1.1-4.7-2.7M543.6 317l-72.1-43.2M542.9 317.2l-71.4-42.8M443 355.4l105-36.8M548.4 316l-.4 2.6M547.9 315.6h.4c0 .1.1.1.1.2M547.5 315.6h.4M442.5 355l.5.4M443.1 352.5l-.1 2.9M443.2 351.8a1.5 1.5 0 0 0-.1.7M443.3 351.7c-.1-.1-.1 0-.1.1M460.2 266.2l5.1 3M419.6 242l38.9 23.2M463.3 268.9l1 .6M419.2 242.5l40.5 24.3M423.5 238.4l-.5-.3h-.1M414.7 243.9l2.6 1.6M419.6 242v-.2M418.6 242.2l1-.2M392.1 247.3l25.2-4.8M348.7 255.7l41.5-8M344.3 256.6l2-.4M423 238.1h-.1M418.8 242.6l.4-.1M392 247.8l25.2-4.9M348.8 256.2l41.5-8.1M344.7 257l1.3-.3M419.2 242.8v-.3M391.9 248.3l22.8-4.4M348.6 256.7l41.6-8.1M471.4 278.4l-.5 8.7M398 306.7l72.9-19.6M261.9 351.7l.4-.1M259.3 335.9l2.6 15.8M260 337.6l-.7-1.7M259.3 335.9l.4-.1M262.6 353.5l-2.6-15.9M378 302.5l.2 3.2M260 337.6h.2M261.9 351.7l.7 1.8M269 351.8L371.3 314M262.6 353.5l3.5-.9M381.9 292.5c0-.1-.2-.2-.3-.3M469 268.4c.4-.1.5.2.8.4l.8.5 1.6.9M341.4 254.6a.2.2 0 0 0-.2-.2M419.6 239.5c.5.2.4.6.4 1s.1 1.2-.1 1.3M417.7 238.3c.1 0 .1.1.2.2M240.6 284.7a2.9 2.9 0 0 1-.2-.9c0-.1-.1-.3-.1-.4s0-.4-.1-.2v.2M240 282.2a16 16 0 0 1 1 3.1M240.2 283.3a3.6 3.6 0 0 1-.2-1.1M240.9 285.2c0-.2-.2-.9-.1-.5"/><path class="x" d="M240.5 284.7a1.7 1.7 0 0 0-.1-.7c0-.2-.2-1.1-.1-.6M336.3 253.8s0-.2-.1-.2M337.8 255.2l-.2-.2"/><path class="x" d="M240.2 283.2a2.3 2.3 0 0 1-.2-1.2c.1-.3.1.4.2.6s.1.4.2.6a8.6 8.6 0 0 1 .6 2.3M240.9 285.1c0-.2-.1-.7-.1-.4M240.9 285.2v-.1M422.9 238.4c.2 0 .2-.2 0-.2M470.1 277.9l.3-.7M336.3 253.8v-.3M337.6 255v-.3M341.2 254.4v-.4M337.9 253.8c0 .3.2.2.4.2h.9c.2-.1.4 0 .4-.3M341.2 254l-3.6.7M337.6 254.7l-1.3-1.2M336.3 253.5l3.6-.7M339.9 252.8l1.3 1.2M337.6 255l3.6-.6M336.3 253.8l1.3 1.2M467.5 275.8c.2 0 .1-.2-.1-.3h-.5c-.2.1-.1.3.1.3zM470.5 277.7c.2-.1.1-.3 0-.3h-.6c-.2 0-.1.2.1.3s.3.1.5 0zM475.2 276.6l-1.8-.2M417.9 238.5v-.3M419.6 239.5v-.3M422.6 238.9v-.3M419.5 238.4c-.1.3 1.6.3 1.5 0M422.6 238.6l-3 .6M419.6 239.2l-1.7-1M417.9 238.2l3-.6M420.9 237.6l1.7 1M419.6 239.5l3-.6M417.9 238.5l1.7 1M482 270.4l-2.8.7M546.3 254.3l-63.6 15.9M480.9 271.4l-.9.2M546.4 255l-62.7 15.7M546.3 255.4l-62.5 15.8M468.1 275.8l-1.8-.2M546.5 253.4v-.1M546.4 253.5h.1M546.4 253.8v-.2M546.3 254.3l.1-.5M626.1 288.5l-79.8-34.2M471.6 274.8c.1-.1.1-.2-.1-.3M625.2 288.8L546.4 255M546.3 255.4l.1-.4M624.4 289.1l-78.1-33.7M546.5 252.8a.6.6 0 0 0 .1-.4M546.5 252.9v-.1M461.8 269.3c.4-.3.7-.1.8.3M550.7 317.7l78.6-27.5M629.8 287.8l-.5 2.4M629.4 287.4a.1.1 0 0 1 .1.1h.1a.1.1 0 0 1 .1.1h.1M629.1 287.5h.3M550.1 317.4l.6.3M551.1 315.1l-.4 2.6M551.1 314.5v.6M458.6 270.9v-.2M463.6 269.5l.2.1M458.6 270.7l2.5-.6M458.8 270.8l-.2-.1M417.3 245.5v-.2M414.7 243.9v-.2M421.8 244.6v-.2M419.2 242.8l2.6 1.6M419 242.9l.2-.1M414.7 243.7l2.5-.5M417.3 245.3l-2.6-1.6M421.8 244.4l-4.5.9M350.5 258.6l-.1-.1M348.6 256.8l1.8 1.7M345 257.2l.7-.1M350.4 258.5l-3.4.6M383.8 288.8l.1.2M383.4 288.9l.4-.1M379.9 289.8l1.4-.4M474.6 276.7c.2-.1.1-.3-.1-.4h-.5c-.2.1-.1.3.1.3zM373.8 213.6l-.8.1"/><path class="aa" d="M374.2 212.4c0-.2.2-.4-.1-.6s-.3.2-.3.4v1.4"/><path class="x" d="M374.2 212.8v-.4M373.8 213.6l-.1-.1"/><path class="aa" d="M371.7 213.2c-.4 0-.5-.2-.5-.5a3.8 3.8 0 0 1-.1-1c0-.5.5-.3.8-.4h1.9c.3-.1.8-.4.8.1s.1.6.1 1-.1.5-.5.6"/><path class="x" d="M350.3 197.1c-.4-.3-.7 0-1.1.1H348c-.3.1-.8 0-.8.5a1.3 1.3 0 0 1 .1.6c0 .2-.2.4.1.6M374.2 212.8l-.4-.3"/><path class="aa" d="M372.1 213.8c0-.5-.1-1-.1-1.6s-.4 0-.4.2 0 .5.1.8"/><path class="x" d="M348.1 199.5v.1M371.7 213.2l-.2-.1"/><path class="aa" d="M373 213.7l-.9.1"/><path class="x" d="M372.1 213.8l-24-14.2M485.7 273.9l-1.8-.2"/><path class="aa" d="M305.4 223.7l-1.1.1M305.8 222.8a1.7 1.7 0 0 1-.1-.7c0-.4-.5-.5-.5-.1a11.1 11.1 0 0 0 .2 1.7"/><path class="x" d="M305.4 223.7l-.2-.2"/><path class="aa" d="M302.7 223.3c-.1 0-.3.2-.5 0s0-.4-.1-.6a4.5 4.5 0 0 0-.1-1.1c0-.3.8-.3 1-.3l1-.2h1.1c.2 0 1-.3 1 0a4.5 4.5 0 0 1 .1 1.1.7.7 0 0 1 .1.6.5.5 0 0 1-.5.1"/><path class="x" d="M288.7 204.7c-.2-.2-.4 0-.6.1h-.7l-1.3.2c-.4 0-1-.2-1 .5a1.3 1.3 0 0 1 .1.6c0 .2-.1.5.1.7M305.8 222.8l-.6-.5M302.7 223.2v.1"/><path class="aa" d="M303.3 224c-.1-.6-.1-1.1-.2-1.7s-.1-.3-.3-.2a.2.2 0 0 0-.1.3v.7"/><path class="x" d="M302.7 223.3l-.1-.2"/><path class="aa" d="M304.3 223.8l-1 .2"/><path class="x" d="M303.3 224l-.7-.7M485 274h-.5c-.2-.1-.2-.3 0-.3h.5c.2 0 .2.2 0 .3z"/><path class="aa" d="M373.7 213.5l-.7.1M374.3 212.2c.1-.3.1-.5-.2-.6s-.4.2-.4.5v1.4"/><path class="x" d="M373.7 213.5l-1.5-1M374.3 212.5a.2.2 0 0 0 0-.3M374.3 212.2l-.1-.1M374.3 212.5h-.1M374.6 212.6h-.3M374.3 212.6l-.2-.1"/><path class="aa" d="M371.3 213.1v-.8c0-.1-.3-.7 0-.7l1.6-.3 1.5-.2c.2 0 .1.2.1.3v.4c0 .3.1.5.1.8"/><path class="x" d="M374.6 212.6l-.3-.1M371.5 213l-.2.1M371.3 213.1l-.1-.1M371.6 212.9h-.1M371.5 213l-.2-.1M371.5 212.6a.4.4 0 0 0 .1.3M371.6 212.9l-.3-.1"/><path class="aa" d="M372.2 213.7a6.6 6.6 0 0 0-.1-1.4c0-.3-.1-.5-.4-.3s-.3.3-.2.6"/><path class="x" d="M371.5 212.6l-.2-.2"/><path class="aa" d="M373 213.6l-.8.1"/><path class="x" d="M372.2 213.7l-.1-.1M468.9 268.7h.5"/><path class="aa" d="M305.2 223.6l-.9.1M305.8 222.2c.2-.3.1-.6-.3-.6s-.5.1-.4.5.1 1 .1 1.5"/><path class="x" d="M305.2 223.6l-2.2-2.2M305.8 222.6c.1-.2.1-.3 0-.4M305.8 222.2l-.1-.1M305.9 222.7h-.1M305.8 222.6l-.1-.2M306.2 222.6l-.3.1M305.9 222.7l-.2-.2"/><path class="aa" d="M302.3 223.2a2.8 2.8 0 0 0-.1-.9c0-.3-.4-.7.1-.8l1.8-.2 1.7-.3c.5 0 .2.5.3.7a2.8 2.8 0 0 0 .1.9"/><path class="x" d="M306.2 222.6l-.3-.3M302.6 223.1l-.3.1M302.3 223.2l-.1-.2M302.6 223.1l-.3-.3M302.6 222.6c-.1.2-.1.3 0 .4M302.6 223l-.3-.3"/><path class="aa" d="M303.4 223.8c0-.5-.1-1-.1-1.5s-1.2-.2-.7.3"/><path class="x" d="M302.6 222.6l-.4-.3"/><path class="aa" d="M304.3 223.7l-.9.1"/><path class="x" d="M303.4 223.8l-.1-.1M473.1 267.7h.1M479.1 173.2h.5M555.5 160.6a12.8 12.8 0 0 1 3.4.6c1 .2.7.3.6 1.2s.1 1.5-.3 1.6M478.7 171.9h.4M558.2 164.2l-.1.8M481.5 172.6h.6"/><path class="y" d="M480 173.5l1 .3"/><path class="x" d="M481 173.8l77.1-8.8M467.9 268.6c0-.7 1.8-.8 2.2-.9l1.3-.3c.4-.1 1.1-.6 1.1.1M479.2 173.1l1.7-.2M478.7 170.9h.1M478.6 171.7v-.2M478.6 171.5h.2M478.3 171.6l.3.1M481.7 172.5h.3M482 172.5h.1M481.7 172.2v.3M481.7 172.2h.3M481.7 171.6h.3"/><path class="y" d="M479.1 173.2l.9.3M478.7 171.9c0-.4.1-.8.1-1.2s-.2-.6.2-.5.2.3.2.5-.1 1.7-.1 2.5"/><path class="y" d="M481.5 172.6c.9.2.6-.1.6-.7a6.6 6.6 0 0 0 .1-1.4c.1-1.3-1-1-1.9-1.2s-1.9-1.1-2 .3a5.7 5.7 0 0 1-.1 1.3c0 .5-.1.9.5 1"/><path class="y" d="M481 173.8c.1-.9.1-1.8.2-2.6s.1-.6.3-.4a.5.5 0 0 1 .1.6 4.9 4.9 0 0 1-.1 1.2M479.2 173.1l.8.2M478.7 170.9a.6.6 0 0 1 0-.6c0-.2 0-.4.3-.4s.4.6.3 1-.1 1.4-.1 2.2M478.6 171.5a1.3 1.3 0 0 1 .1-.6M478.6 171.7l.1-.1"/><path class="y" d="M482 172.5a17 17 0 0 1 .1-2.2c0-.7-1.4-.7-1.8-.8l-1.1-.3c-.3-.1-.7-.3-.7.2s-.1 1.5-.2 2.2M478.3 171.6h.3M481.7 172.5l.3-.1M481.7 171.6a.6.6 0 0 1 0 .6"/><path class="y" d="M480.9 173.5c0-.7.1-1.5.1-2.2s.1-1 .6-.7.3.6.1 1M480 173.3l.9.2"/><path class="x" d="M480.9 173.5h.1M427.8 198l-.6.8M427.2 198.8l.6-.6M477.4 217.2a4.3 4.3 0 0 1-.1.5c0 .2-.1-.1-.1-.2s.1-.3.1-.5.1.1.1.2zM476.2 218.6a7.7 7.7 0 0 1 .2-1.5 2.2 2.2 0 0 1 .1-.8.6.6 0 0 1 .1-.4c0-.1-.2-.5.1-.4M477.1 215.6c-.2.1-.2.4-.2.6s-.1.4-.1.6a4.9 4.9 0 0 0-.1 1.2M486 147.3c-.1.2-.2 0-.3 0M485.7 147.3h-.3M470.2 267.7v.3M470.1 277.9l5.1-1.3M484.6 274.2l1.1-.3-2.5-1.4M477.7 269.4l-3.8-2.2-1.2.2M469.4 268.3l-.4.1M466.3 275.6l3.8 2.3M489.4 188.9a7.6 7.6 0 0 0-.1 1.5M489.8 188.9a.6.6 0 0 0-.1-.4M489.3 190.8c-.3 0-.2-.2-.2-.4M489.1 190.4a3.8 3.8 0 0 1 0-1.5M489.6 191.3l-.3-.1M489.3 191.2a10.3 10.3 0 0 1 .1-1.7M430.2 197c.6.6.2 1.1-.3 1.6M427.8 198.2c.3-.9.7-1.5 1.8-1.5M429.6 196.6a2.1 2.1 0 0 0-1.8 1.6M430.3 197.2a.4.4 0 0 0-.1-.3M429.9 199.9c.3-.1.7.1.6-.4s-.3-.3-.6-.4M432 199.9v-.1M429.9 198.9l2.1.9M432 199.8l-1.8.2M430.5 200.2l1.5-.3"/><path class="x" d="M477.3 218.5a3.7 3.7 0 0 1 .1-1.1v-.5c0-.2.1-.8-.1-.5a7.6 7.6 0 0 0-.3 2.1M476.6 218.6c0-.4.1-.8.1-1.2a.7.7 0 0 0 .1-.5.4.4 0 0 1 .1-.3c0-.1-.1-.4.1-.3M543 205.5c-.4-.2-.6-.1-.7.4M542.3 205.9c0 .2.1.3.3.4"/><path class="x" d="M541.7 207.1c.1-.8-.3-1.9 1-2.1s1.4 1.2 1.7 1.7M542.4 206v-.2M542.1 205.3h-.1M544.5 206.6c-.3-.4-1-1.8-1.8-1.7M462.8 150.5h.2M463 150.6h-.2M544.3 206.1l.3.5M544.7 206.6l-.5-.7M485.5 153.8c.1 0 0 0 0-.1M481 182.4c-2.2 16.3-4.4 33.5-4.4 33.5M482.2 173.6l-.3 2.3M484.8 153.7l-1.9 14.7M489.8 189.8c0-.1.1-.3.1-.4s.1.1.1.3a.8.8 0 0 1-.1.4z"/><path class="x" d="M542.4 205.9c0 .3.1.5.4.5s.5-.1.5-.4-.8-.7-.9-.1M469 268.3l.4.1M475.2 269l2.4.3M473.9 267.2l-.3.7M476.4 269.1c-.2 0-.1.2.1.2h.5c.2 0 .1-.2-.1-.2a.5.5 0 0 0-.5 0zM473.5 267.4c-.2 0-.1.2 0 .2h.5c.2 0 .1-.2-.1-.2zM541.7 206.9c-.3.1-.6-.1-.7.4M489 191.2h-.3M488.7 191.2c0-.3.1-2.1.4-2.3M489 191.2l.3-.2M489 190.4v.8M476.3 218l-.1.7M475.4 218.6h.4M429.5 198.1c0-.3-.1-.4-.4-.4s-.4.1-.4.4a.4.4 0 1 0 .8 0M429.2 197.2c-.7-.1-1.6 1.3-1.9 1.7M429.9 197.9v-.3M544.3 206.3c0-1-1.1-2.2-2.1-2M542.2 204.3c1-.1 1.9 1 2 1.9M541.8 206.3a1.2 1.2 0 0 1-.2-1.6M489.2 191.9v-.2M486 190.9v-.2M493.1 191.3v-.1M490.3 190.3l2.8.9M486 190.7l2.7-.3M489.2 191.7l-3.2-1M493.1 191.2l-3.9.5M486 190.9l3.2 1M489.2 191.9l3.9-.6M477.3 218.2l.4.2M475 218.4l.8-.1M539.2 207.4v-.2M539.2 207.2l2.5-.4M540 207.4l-.8-.2M499.5 150.6l-2.5.3M500 150.5h-.5M464.8 149.7h-.5M467.9 150.3a17 17 0 0 1-3.1-.6M468.6 150.4h-.6M469.4 150.5h-.7M480.7 272c.6-.6 1-1.4 2-.8s.4 1.4.3 2.1M481.8 271.6c.4-.3.7-.2.8.2M471.6 275.2c0-.3-.1-.5-.1-.8v-.4c0-.1.1-.4-.1-.3s-.2 1.4-.2 1.5a2.2 2.2 0 0 0-.1.8c0 .2-.2 1.1 0 .7s.3-1 .5-1.5zM503 149.1c0 .5-1.3.8-1.6.9l-1.9.4-3.9.5M495.6 150.9l-5 .3h-5.7c-3.8 0-7.6-.1-11.3-.4l-4.9-.5-3.7-.7-1.4-.3-.9-.4-.4-.2h-.2l-.2-.2v-.2M471.2 274.9c0 .1-.1.3.1.3"/><path class="x" d="M471.4 274.2c-.1-.2-.1.2-.1.3s-.1.2-.1.4M502.1 150.5c0 .2-.2 0-.3 0h-.3M379.8 301.1l-2-.3M372.1 300l-1.8-.3M375 299.2c0 .1-.1.3.1.3M375.3 298.3c-.2-.1-.2.2-.2.4a.7.7 0 0 0-.1.5M490.4 190.6a1.8 1.8 0 0 1 1.2.3c.2.3-.2.4-.4.4h-.6M490.6 191.4a9.7 9.7 0 0 1-2.4-.1c-.3-.1-1.1-.3-.6-.6a2.2 2.2 0 0 1 1.1-.2M550.4 208.1l-74.9 13.5M544.2 205.9l1.6.5M490.2 189.6l51.3 15.5M544.6 206.5l.3.1M490.3 190l51.2 15.5M493.1 191.3l48.6 14.8M550.7 205.9l-.3 2.2M550.3 205.6h.3a.3.3 0 0 0 .1.2M550.2 205.6h.1M376.4 299.3l-.3-.4"/><path class="x" d="M375.9 298.6a2 2 0 0 0-.4-.8c-.4-.3-.5.3-.6.6a9.7 9.7 0 0 0-.1 1.7c0 .3.1.6.1.9s.3-.2.4-.3a13.4 13.4 0 0 1 1.1-1.4M490.1 188.5h.1M490.1 188.7v-.1M490.1 189.1v-.2M480.6 190.9l8.2-1.1M430.3 197.8l49.5-6.8M426.2 198.4l1.5-.2M480.6 191.2l8.2-1.1M430.2 198.2l49.6-6.9M426.8 198.6h.6M480.5 191.7l5.5-.8M429.9 198.7l49.8-6.9M490.2 188.1v-.2M490.2 188.3v-.2M388.7 295c.5-.4.9-.1.9.5"/><path class="x" d="M386.8 296.2a12.1 12.1 0 0 1 1.6-1.6 1.1 1.1 0 0 1 1.7.8 4.5 4.5 0 0 1 .1 1.1v.6c0 .2-.2.2-.4.2l-2.3-.3M373.8 302.5c.2-.1.4-.3.1-.4a.6.6 0 0 0-.6 0c-.2 0-.3.2-.1.3zM475.6 219.2c0-.2.1-.3.1-.4M475.5 221.6l.1-2.4M475.5 221.6l-53.2-22.3M422.4 197.2l-.1 2.1M422.7 197h-.3M422.9 197h-.2M501.6 152l-.2.2M485.6 152.2c.1.2-.2.1-.3.1h-.3M371.5 300.1c.2-.1.4-.3.1-.4h-.6c-.2 0-.4.2-.1.4zM373.2 302.7l.7-.9M376.2 298.9l.6-.8M376.7 298.8c.2-.1.2-.4-.1-.5s-.6-.2-.7.3M375.4 291.4l2 1.9M379.7 292.7l1.9-.5M377.4 293.3l2.2-.6M259.5 334.7l-.4.1M442.2 354.8l.7.7M383.1 288.3c-.3-.1-.2.3-.3.4v.6M381.3 289.6a5.2 5.2 0 0 1 .2-1.1 4.3 4.3 0 0 1 .1-.5c.1-.2.2-.6.4-.3M370.3 299.7l2.9 3M366.8 293.1l-2.4.6M370.8 292.2l-1 .2"/><path class="x" d="M389.3 298.6l3.9-1-2.4-2.2M373.2 302.7l6.6-1.6M417.9 206.7c-1.4-1.5-3.1-1.8-5-2.3M412.9 204.4c-5.6-1.6-11.2-1.7-17-1.5-3.3.2-13.7 1-16.4 4.1M374 291.4c0-.8.7-.6 1.2-.7l1.6-.4 1.5-.4.8-.2c.3 0 .6-.3.7.1M380 290.3h.2M374.9 291.5l.5-.1M369.8 292.4c-.4-.4-.6-1-1.2-1.3M367.4 292.1c.4-.3 1 .2.9.7"/><path class="x" d="M392.4 297.7a.5.5 0 0 1-.6-.1c-.2-.1 0-.3.2-.3a.6.6 0 0 1 .6 0c.2.2 0 .4-.2.4zM393.2 297.6l-2-.2M379 301.1c.3 0 .4-.3.1-.4h-.6c-.2.1-.3.3-.1.4zM376 298.7c.2.2.4.1.7.1M539.2 207.4l.4.1M486 152.5c0 .2-.2 0-.3 0h-.8c-.1 0-.4.1-.4-.1M485.6 152.2h.2a.1.1 0 0 1 .1.1h-.9M423.6 197.3l6.1-.8M430.6 196.4l49.4-6.7M480.8 189.5l8.2-1.1M489.6 188.3h.6M490.2 188.3l50.2 14.9M541.7 203.6l7.5 2.2M502.4 151.6c.1.2-.2.1-.3.1h-.8c-.1-.1-.2.1-.3-.1M502.5 150.7c.1.2-.2 0-.3.1h-.8c-.1 0-.3.1-.3-.1M501.3 150.5h.2M502.1 150.4h-.8M495.4 148.2l-4.7.2H485c-3.7 0-7.4-.2-11-.4l-4.8-.5c-1.2-.2-2.4-.3-3.6-.6l-1.3-.3-1-.3-.3-.2-.3-.2h-.1a.3.3 0 0 1-.1-.2v-.3l.3-.2.5-.2.7-.2 1.9-.4 2.5-.3 6.4-.4h7.5c2.6 0 5.2.1 7.7.3s4.3.3 6.4.6l2.5.4 1.9.5.7.2.6.2.3.3a.2.2 0 0 1 .2.2v.2l-.3.2-.6.3-.8.2-2.3.4z"/><path class="x" d="M495 148.1l2.8-.3 2.2-.4 1.3-.4.4-.2h.2v-.2c.1 0 .1-.1 0-.2v-.2l-.3-.2-.5-.2-1.4-.4-1.8-.4-3.2-.4-3.7-.4-9.2-.4c-3.1 0-6.2 0-9.3.2l-3.7.3-3 .4-1 .2-.8.3-.5.3h-.1v.2a.1.1 0 0 0 .1.1v.2l.5.3 1 .4 1.3.3 3.5.5 4.6.5c3.5.3 7.1.4 10.6.4h5.3z"/><path class="x" d="M495.8 148.8l-4.9.3H485c-3.7 0-7.5-.1-11.3-.4l-4.9-.5-3.7-.6-1.4-.3-.9-.4-.4-.2h-.3v-.4"/><path class="x" d="M503.2 147.1c-.1.5-1.3.8-1.6.9l-2 .4-3.8.4M463.7 146.1c.1 0 .1-.1.2-.2l.3-.2.5-.2.7-.2 1.8-.3 2.3-.3 6.1-.3h7.1l7.1.4 5.9.5 2.3.4 1.8.4.6.2.5.3.3.2.2.2"/><path d="M479.4 130.6h3c2.6 0 5.2.2 7.7.3l6.4.7 2.5.3 1.9.5.7.2.6.2.3.3c.1.1.2.1.2.2v.2h-.1l-.3.3-.6.2-.8.2-2.3.5-3.2.3-4.7.3H485c-3.7 0-7.4-.1-11-.4l-4.8-.5-3.6-.6-1.3-.3-1-.3-.3-.2-.3-.2h-.1v-.4l.3-.3.5-.2.7-.2 1.9-.4 2.5-.3 6.4-.4h4.5m0-.3h-4.5l-6.5.4-2.4.3-2 .4-.7.2-.5.2-.4.3a.6.6 0 0 0-.1.4v.3l.2.2.3.2.4.2 1 .4 1.4.3 3.6.6 4.7.5c3.6.2 7.3.4 11.1.4h5.7l4.8-.2 3.1-.4 2.4-.4.8-.2.6-.3.4-.3a.4.4 0 0 0 .1-.3c.1 0 .1-.1 0-.2a.5.5 0 0 0-.2-.4l-.4-.3-.6-.2-.7-.3-2-.4-2.4-.4a58.2 58.2 0 0 0-6.4-.6l-7.8-.4z"/><path d="M485 141.6c-3.9 0-7.5-.2-11-.4l-4.8-.5-3.6-.6-1.4-.3-.9-.4h-.4l-.2-.2-.2-.2v-.2c0-.1 0-.2.1-.2l.3-.3.5-.2.7-.2 1.9-.4 2.5-.3 6.4-.4h7.5c2.6 0 5.2.1 7.7.3l6.4.6 2.5.4 2 .5.7.2.5.2.4.3c0 .1.1.1.1.2v.4l-.3.2-.6.3-.8.2-2.3.4-3.2.4-4.7.2H485z" fill="url(#g)"/><path d="M479.4 136.7h3l7.7.3 6.4.7 2.5.4 1.9.4.7.2.6.3.3.2.2.2v.2h-.1l-.3.3-.6.2-.8.3-2.3.4-3.2.3-4.7.3H485c-3.7 0-7.4-.1-11-.4l-4.8-.5-3.6-.5-1.3-.4-1-.3-.3-.2-.3-.2h-.1c-.1-.1-.1-.1-.1-.2v-.2l.3-.2.5-.3.7-.2 1.9-.4 2.5-.3c2.1-.2 4.2-.3 6.4-.3h4.5m0-.1h-4.5a63 63 0 0 0-6.5.4 8.8 8.8 0 0 0-2.4.3l-1.9.3-.8.3-.4.2-.4.2v.3a.3.3 0 0 0 .1.2v.2l.3.2.4.2.9.3 1.4.3a18 18 0 0 0 3.6.6l4.8.5c3.5.3 7.1.4 11 .4h5.7l4.7-.3 3.2-.3 2.4-.5.8-.2.5-.2.4-.3c0-.1.1-.1.1-.2v-.2l-.2-.3-.4-.2-.5-.3-.7-.2-2-.4-2.4-.4a60.1 60.1 0 0 0-6.5-.6l-7.7-.4z"/><path d="M495 135l2.9-.3 2.1-.4 1.4-.4.4-.2h.2v-.2l-.2-.2-.3-.2-.4-.3-1.5-.4-1.8-.3-3.2-.5-3.7-.3c-3-.3-6.1-.4-9.2-.4s-6.2 0-9.3.1l-3.7.3-3 .4-1 .3-.8.2-.5.3v.2a.3.3 0 0 0 .1.2l.6.4.9.3 1.3.3 3.5.6 4.6.4c3.5.3 7.1.4 10.6.4h5.4z" fill="#bdcae7"/><path d="M495 135l2.9-.3 2.1-.4 1.4-.4.4-.2h.2v-.2l-.2-.2-.3-.2-.4-.3-1.5-.4-1.8-.3-3.2-.5-3.7-.3c-3-.3-6.1-.4-9.2-.4s-6.2 0-9.3.1l-3.7.3-3 .4-1 .3-.8.2-.5.3v.2a.3.3 0 0 0 .1.2l.6.4.9.3 1.3.3 3.5.6 4.6.4c3.5.3 7.1.4 10.6.4h5.4z" fill="url(#h)"/><path class="x" d="M495 135l2.9-.3 2.1-.4 1.4-.4.4-.2h.2v-.2l-.2-.2-.3-.2-.4-.3-1.5-.4-1.8-.3-3.2-.5-3.7-.3c-3-.3-6.1-.4-9.2-.4s-6.2 0-9.3.1l-3.7.3-3 .4-1 .3-.8.2-.5.3v.2a.3.3 0 0 0 .1.2l.6.4.9.3 1.3.3 3.5.6 4.6.4c3.5.3 7.1.4 10.6.4h5.4z"/><path class="x" d="M463.7 133.1l.2-.2.3-.3.5-.2h.7l1.8-.4 2.3-.3 6.1-.3c2.4-.1 4.8-.1 7.1 0s4.8.1 7.1.3a56.1 56.1 0 0 1 5.9.6l2.3.3 1.8.5.6.2.5.2.3.2.2.2M498.4 147.7l-2.9-.5-3.9-.5c-3-.2-6-.4-9-.4s-6.1-.1-9.2.1l-3.9.2-3 .4M463.5 150.1c-.2.3-.5.1-.7.1s-.5.2-.7-.1M462.5 150.3h.1M463.2 149.3h-1.1M462.7 149.1c-.1 0-.4-.1-.2-.2M485.2 148.4h-.2M486.3 148.4h-.1M485.6 147.6c-.2 0-.5.2-.6-.1M486.4 147.5c0 .3-.3.1-.4.1h-.4"/><path class="x" d="M485.6 147.4h-.3c-.2 0 .1-.1.1-.1M486 147.3h-.4M480 173.3l.9-.1M480 173.5l.6-.1M304.3 223.7l-1-1M373 213.6l-.8-.5M304.3 223.8l-.1-.1M373 213.7l-.2-.1M628.5 287.7l-82-34.8M546.4 255l-.1-.7M546.5 252.9l-69.1 17.2M419.7 238zM421 238.2c0 .3-.2.2-.3.3h-.9c-.1 0-.3.1-.3-.2M338.2 253.3zM339.6 253.5c0 .3-.2.3-.4.3h-.9c-.2-.1-.4 0-.4-.2M419.2 242.5l.4-.5M420 240.9l36.3 21.5M458.1 263.4l9.1 5.4M471.4 273.7l.3-.7M548.6 317.7l.2.1M548.2 317.3l.6.3M471.6 268h1.4a.1.1 0 0 1-.1-.1h-1.3zM473.2 268.4c0 .3-.2.2-.4.3h-1.1c-.1 0-.3 0-.3-.3M377.8 290.8v.2c0 .1 0 .2.1.2l.3.2h.6l.4-.2h-1.3zM377.7 291"/><path class="x" d="M379.5 291.2c.1.3-.2.3-.4.4h-1.2c-.2 0-.4 0-.4-.3M405.8 205c-.2 0-.5.2-.5-.1M406.7 204.9c.1.3-.3.1-.4.1h-.5M405.7 204.2c-.1-.1-.4.1-.4-.2M406.7 204c.1.3-.3.1-.4.2h-.6M405.8 203.9h-.3c-.2-.1.1-.1.2-.1M406.3 203.7c.1 0 .2.2 0 .2h-.5M418.9 211.7h.1M419 211.8c0 .2-.2.2-.4.2h-.8c-.1 0-.3 0-.3-.2M419 210.9c0 .2-.2.1-.4.2h-.8c-.1-.1-.3 0-.3-.2M417.8 210.6h.1M418.5 210.6c.1 0 .4 0 .3.2h-.8c-.2 0-.5.1-.3-.1M398.7 215.7c0 .2-.2.1-.4.2h-.8c-.2-.1-.4 0-.4-.2M398.2 214.5h.3M398.7 214.7c0 .3-.2.2-.4.2h-.8c-.2 0-.4.1-.4-.2M398.2 214.4h-.6M377.3 296.8l-.5.7M262.8 336.4l-1.6-.2M337.1 258.5l.6-.6M242.9 287l-1.3-.1"/><path class="x" d="M408.9 210.1l-5.1.5a56.2 56.2 0 0 1-5.8.2 47 47 0 0 1-5.3-.2l-5.2-.5a32.9 32.9 0 0 1-4.3-.9l-1.7-.5-1.5-.7a3 3 0 0 1-1.1-.6 2.7 2.7 0 0 1-.8-.7 2.1 2.1 0 0 1-.4-.6 1.1 1.1 0 0 1-.1-.8.6.6 0 0 1 .1-.4 2.1 2.1 0 0 1 .4-.6l.5-.5.7-.5 1.9-.9 2.4-.7 3-.7 3.5-.6c2.5-.3 5.1-.4 7.6-.5a67.8 67.8 0 0 1 7.8.3l3.6.4 3.1.5 2.7.7 2.2.8a5.1 5.1 0 0 1 1.6.9l.6.5.3.5a1.9 1.9 0 0 1 .2.8 1.9 1.9 0 0 1-.3.8 3 3 0 0 1-.8.8l-1.2.8-1.6.7-2.1.7z"/><path class="x" d="M408.5 209.9a32.9 32.9 0 0 0 4.3-.9 16 16 0 0 0 3.3-1.1l1.2-.5.9-.7a1.9 1.9 0 0 0 .6-.7 1.4 1.4 0 0 0 .2-.7 1.3 1.3 0 0 0-.1-.6 1.6 1.6 0 0 0-.4-.7 2.7 2.7 0 0 0-.8-.7l-1.2-.6-1.3-.5-1.8-.6-4-.8-4.8-.5a70.3 70.3 0 0 0-10.6 0 42.3 42.3 0 0 0-5 .5l-4.3.8-3.3 1.1-1.3.6-.9.7-.6.6-.3.7a1.7 1.7 0 0 0 .1.7 4.3 4.3 0 0 0 .4.7l.8.6a3 3 0 0 0 1.1.6 4.2 4.2 0 0 0 1.4.6l1.7.5a30.1 30.1 0 0 0 4.1.9l5 .5a44.3 44.3 0 0 0 5.2.2 46.1 46.1 0 0 0 5.3-.2z"/><path class="x" d="M409.2 210.8l-5.3.6-5.4.2-5.6-.2-4.9-.5-4.4-.8a23.5 23.5 0 0 1-3.5-1.1l-1.2-.6-1-.7-.6-.7-.3-.7M420.4 205.8c-.1 2-3.7 3.2-5 3.6a42.9 42.9 0 0 1-6.2 1.4M378.9 206.1a.7.7 0 0 1 .1-.5.8.8 0 0 1 .2-.5l.5-.5.6-.5 1.7-.9 2.5-.8c1-.2 1.9-.5 2.9-.6l3.6-.6a63.4 63.4 0 0 1 7.6-.4 48.8 48.8 0 0 1 7.6.3l3.4.4 3.1.7 2.5.7 1.8.9.7.5.4.5.3.5a4.3 4.3 0 0 1 .1.5M418.5 205.9h-.1"/><path class="x" d="M418 206.7a4.3 4.3 0 0 0-1-.9l-1.5-.8-2.1-.7-2.4-.6a55.9 55.9 0 0 0-5.9-.8c-2.1-.2-4.3-.2-6.5-.2l-6.6.3a39.1 39.1 0 0 0-5.8 1l-2.4.6-1.9.7a5.3 5.3 0 0 0-1.5.8 4.3 4.3 0 0 0-1 .9M440.5 355.5l.2.1M439.4 354.2l1.3 1.2M484.8 226.8L444 209.4M443.7 210.8l.2-.3M444 209.4l-24.5 3.8M418.7 213.4l-9.3 1.4M408.7 214.9l-10.5 1.7M397.4 216.7l-11.7 1.8M416.1 238.6L396 226.8M395.3 226.4l-12.5-7.4M382.4 220.5l.4-.4M382.8 219l-11.1 1.7M370.7 220.9l-56.7 8.8M310.7 230.2l24.4 23.6M310.8 231.4l-.7.5M229.9 264.9l-1-.1M228.3 263.4l82.4-33.2M418.9 247.8v.6M418.9 246.8v.7M418.9 245.9v.6M420.2 250.7c.5-.1 1.7-.4 1.7-1.1M415.1 249.6c0 .9 1.8 1.1 2.4 1.2a8.2 8.2 0 0 0 2.7-.1M419.4 248.7l.6-.2c.2-.1.4-.2.3-.5s-.6-.4-1-.5"/><path class="x" d="M417.8 247.5c-1 .2-1.5.7-.5 1.1a5 5 0 0 0 2.1.1M376 306.5l.1.8M376 305.2v1M375.9 303.9l.1 1M375.9 303v.6M374.8 303.8c-.1.3.2.2.4.2h.5c.3-.1.6-.2.7-.6M377.7 310.7c.9-.2 2.7-.9 2.7-2.2M371 309c.1 1.3 2 1.8 2.9 1.9a8.2 8.2 0 0 0 3.8-.2M376.7 307.8c1.9-.5 1.9-1.8-.1-2.2M374.6 305.7c-1.1.3-2 1.3-.8 2a3.6 3.6 0 0 0 2.9.1M485.9 153.3c.3.1-1.5.4-1.4.1"/><path class="aa" d="M482.2 169.8l77.4-7.9"/><path class="ae" d="M392.4 245.6a.8.8 0 0 0-.6-1 .7.7 0 0 0-.9.6l-1.1 5a.9.9 0 0 0 .7 1 .8.8 0 0 0 .9-.6zM366.3 229.6a.9.9 0 0 0-.2-1.1.9.9 0 0 0-1.1.2l-2.7 4.1a.8.8 0 0 0 .2 1 .7.7 0 0 0 1.1-.2zM437.8 236.4c-.2-.4-.7-.4-1.1-.2a.8.8 0 0 0-.1 1.1l3.1 4.1a.8.8 0 0 0 1.1.1c.4-.2.4-.7.2-1.1zM519.1 173.4a.8.8 0 0 0-1.1-.2.8.8 0 0 0-.2 1.2l3.1 4a.8.8 0 0 0 1.1.1.7.7 0 0 0 .2-1.1zM411.6 220.2a.8.8 0 0 0-1-.4.6.6 0 0 0-.4.9l1.4 4.5a.7.7 0 0 0 .9.5.8.8 0 0 0 .5-.9zM482.9 176.8a.7.7 0 0 0-.6-.9.7.7 0 0 0-.9.7l-.7 5a.8.8 0 0 0 .7.9.8.8 0 0 0 .9-.7zM449.9 169.9a.7.7 0 0 0-.2-1.1.7.7 0 0 0-1.1.2l-2.9 4.1a.7.7 0 0 0 .2 1.1.8.8 0 0 0 1.1-.1z"/><path class="af" d="M550.4 208.1l-4.3 44.3"/><path class="ag" d="M422.3 199.3l1.8 42.8M475.5 221.6l-2.8 45.8"/><path class="af" d="M489.2 191.9l-2.3 37.8M559.2 164l-9 88.4M481.5 172.6l-6.3 96.4M374.5 211l10.6 7.2M306.1 220.9l7.9 7.9"/><path class="ah" d="M500.5 176.1c-.1-.9-.6-1.6-1-1.5s-.7.8-.5 1.7.6 1.5 1 1.5.7-.9.5-1.7z"/><path stroke="#414042" stroke-width=".26" stroke-linecap="round" stroke-linejoin="round" fill="none" d="M458.5 178.5l41.3-2.3"/><path d="M459.2 178.8c.3-.8.2-1.5-.3-1.7s-.9.4-1.2 1.2-.1 1.5.3 1.6 1-.4 1.2-1.1z" fill="#939598" stroke-width=".09" stroke="#231f20"/><path class="ah" d="M464.7 174.6c.7.1 1.3-.2 1.4-.6s-.4-.9-1.1-1-1.3.2-1.4.6.5.9 1.1 1z"/><path stroke-width=".26" stroke-linecap="round" stroke-linejoin="round" stroke="#231f20" fill="none" d="M464.9 173.8l35.7 7.9"/><ellipse class="ah" cx="500.6" cy="181.7" rx="1.5" ry="1.8"/><path class="al" d="M399.4 131.7h47.3M446.7 131.7l22 42.5M399.4 154.9h44.3M443.7 154.9l22.2 42.5M399.4 164.4H439M439 164.4l7.1 7.1M399.4 95.1h107M506.4 95.1l29.6 67.7M399.4 118h49.9M449.3 118.1l13.3 19.2M399.4 108h49.9M449.3 108.1l13.3 19.2"/><text class="am" transform="translate(349.1 96.9)">Snap on <tspan x="29.5" y="0" letter-spacing="0">c</tspan><tspan x="33.1" y="0">over</tspan></text><text class="am" transform="translate(342.4 109.1)">Lamina<tspan class="ao" x="25.3" y="0">t</tspan><tspan x="27.8" y="0">ed glass</tspan></text><text class="am" transform="translate(328.8 120.3)">Sun p<tspan class="ap" x="19.5" y="0">r</tspan><tspan x="22.3" y="0">o</tspan><tspan class="ao" x="26.6" y="0">t</tspan><tspan x="29.2" y="0">ection l</tspan><tspan x="53.7" y="0" letter-spacing="-.01em">a</tspan><tspan class="ar" x="57.6" y="0">yer</tspan></text><text class="am" transform="translate(380 154.9)"><tspan letter-spacing="-.13em">F</tspan><tspan x="3.3" y="0">abric</tspan></text><text class="am" transform="translate(343.2 165.5)">Mast adjustment</text><text class="am" transform="translate(318.2 131.7)">Wi<tspan class="ap" x="8.8" y="0">r</tspan><tspan x="11.6" y="0">e spring, </tspan><tspan class="ao" x="41.9" y="0">t</tspan><tspan x="44.5" y="0">o </tspan><tspan x="50.5" y="0" letter-spacing="-.01em">k</tspan><tspan class="ar" x="54.5" y="0">eep the </tspan><tspan x="-11.9" y="10.8">fabric tight when it</tspan><tspan x="51.9" y="10.8" letter-spacing="-.02em"></tspan><tspan x="53.2" y="10.8">s closing</tspan></text><path class="av" d="M173.1 76.2h-.1M173 76.2v-.1M173 76.1l-.1-.1M194.8 75.8l.1 13.3M194.9 89.1v.1M194.9 89.2v.1M194.9 89.3h-.1M194.8 89.3v.1M194.8 89.4h-.1M194.7 89.4v.1M194.7 89.5h-.1M194.6 89.5v.1M194.6 89.6h-.1M194.5 89.6h-.1M194.4 89.6v.1M194.4 89.7h-.1M194.3 89.7l-.1.1M194.2 89.8h-.1M194.1 89.8l-.1.1M194 89.9h-.1M193.9 89.9l-.1.1M193.8 90h-.1M193.7 90h-.1M193.6 90l-.3.2M193.3 90.2h-.3M193 90.2l-.3.1M192.7 90.3l-.3.1M192.4 90.4l-.4.1M192 90.5h-.4M191.6 90.5l-.8.2M190.8 90.7l-.9.1M189.9 90.8l-1 .1M188.9 90.9l-1 .1M187.9 91l-1.1.1M186.8 91.1l-1.1.1M185.7 91.2h-1.1M184.6 91.2h-1.1M183.5 91.2l-1.1.1M182.4 91.3l-1.1-.1M181.3 91.2h-1.1M180.2 91.2h-1M179.2 91.2l-1-.1M178.2 91.1l-.9-.1M177.3 91l-.9-.1M176.4 90.9l-.4-.1M176 90.8h-.3M175.7 90.8l-.3-.1M175.4 90.7h-.3M175.1 90.7l-.3-.1M174.8 90.6l-.2-.1M174.6 90.5h-.3M174.3 90.5l-.2-.1M174.1 90.4l-.1-.1M174 90.3h-.1M173.9 90.3h-.1M173.8 90.3l-.2-.1M173.6 90.2h-.1M173.5 90.2v-.1M173.5 90.1h-.1M173.4 90.1V90M173.4 90h-.1M173.3 90h-.1M173.2 90v-.1M173.2 89.9l-.1-.1M173.1 89.8v-.1M173.1 89.7v-.1M169.3 57.2v.1M194.7 37.9l.2-.5M175.8 38.9l-.5-.1M175.3 38.8l-.5-.2M174.8 38.6l-.5-.2M174.3 38.4l-.5-.2M173.8 38.2l-.5-.2M173.3 38l-.5-.2M194.7 41.6l-1.3-.2M172.8 37.8l-.8-.5M172.9 56.9l-.8.3M178.3 55.8l-.9.1M177.4 55.9l-.9.1M176.5 56l-.9.2M175.6 56.2l-1 .2M174.6 56.4l-.8.3M173.8 56.7l-.9.2M194.7 54.3l-1.3.1M178.4 56.9l-.5.3M178.4 59.6l-.5.4M179.8 59l-1.4.6M189.3 57.1l-1.3.1M179.8 56.4l-1.4.5M194.7 54.6h-1.3M229.4 53.5l-4.8.2M224.6 53.7l-13.3.6M211.3 54.3l-4.8.4M206.5 54.7l-2.1.3M204.4 55l-1.9.2M202.5 55.2l-.8.1M201.7 55.3l-.8.1M200.9 55.4l-.8.2M200.1 55.6l-.6.1M199.5 55.7l-.3.1M199.2 55.8h-.3M198.9 55.8l-.2.1M198.7 55.9l-.2.1M198.5 56h-.1M198.4 56h-.1M198.3 56l-.1.1M198.2 56.1h-.1M198.1 56.1l-.1.1M198 56.2h-.1M197.9 56.2l-.1.1M197.8 56.3l-.1.1M229.4 53.5l.1-16.9M224.6 32h.2M224.8 32h.1M224.9 32h.2M225.1 32l.2.1M225.3 32.1h.2M225.5 32.1h.1M225.6 32.1l.2.1M225.8 32.2h.2M226 32.2l.1.1M226.1 32.3l.2.1M226.3 32.4h.2M226.5 32.4l.1.1M226.6 32.5l.2.1M226.8 32.6l.1.1M226.9 32.7l.2.1M227.1 32.8l.2.1M227.3 32.9l.1.1M227.4 33l.1.1M227.5 33.1l.2.1M227.7 33.2l.1.1M227.8 33.3l.2.1M228 33.4l.1.2M228.1 33.6l.1.1M228.2 33.7l.1.1M228.3 33.8l.1.2M228.4 34l.1.1M228.5 34.1l.1.2M228.6 34.3l.1.1M228.7 34.4l.1.2M228.8 34.6l.1.1M228.9 34.7l.1.2M229 34.9v.1M229 35l.1.2M229.1 35.2l.1.2M229.2 35.4v.1M229.2 35.5l.1.2M229.3 35.7v.2M229.3 35.9v.1M229.3 36l.1.2M229.4 36.2v.2M229.4 36.4l.1.2M223.7 31.9h.5M197.6 28.4l.1.1M197.7 28.5l.1.1M197.8 28.6v.1M197.8 28.7l.1.1M197.9 28.8v.1M197.9 28.9h.1M198 28.9v.1M198 29l.1.1M198.1 29.1h.1M198.2 29.1v.1M198.2 29.2l.1.2M198.3 29.4l.2.1M198.5 29.5l.1.1M198.6 29.6l.1.1M198.7 29.7l.1.1M198.8 29.8l.2.1M199 29.9l.1.1M199.1 30l.2.1M199.3 30.1l.1.1M199.4 30.2l.2.2M199.6 30.4h.1M199.7 30.4l.4.2M200.1 30.6l.3.2M200.4 30.8l.4.2M200.8 31l.4.2M201.2 31.2l.4.2M201.6 31.4l.4.2M202 31.6l.5.2M202.5 31.8l.9.3M203.4 32.1l1 .3M204.4 32.4l1 .4M205.4 32.8l1.1.2M206.5 33l1.1.3M207.6 33.3l1.2.3M208.8 33.6l2.5.6M211.3 34.2l3.3.5M214.6 34.7l3.3.5M217.9 35.2l3.4.5M221.3 35.7l8.2.9M71.5 209.3h.1M71.6 209.3l.1.1M71.7 209.4h.1M71.8 209.4l.1.1M71.9 209.5h.1M72 209.5l.1.1M72.1 209.6h.1M72.2 209.6h.1M72.3 209.6l.3.1M72.6 209.7h.1M72.7 209.7l.2.1M72.9 209.8h.1M73 209.8h.1M73.1 209.8l.3.1M73.4 209.9h.4M73.8 209.9l.3.1M74.1 210h.2M74.3 210h.3M74.6 210h.3M74.9 210h.5M75.4 210h.4M75.8 210h.4M76.2 210h.4M76.6 210l.4-.1M77 209.9h.4M77.4 209.9l.4-.1M77.8 209.8h.4M78.2 209.8l.4-.1M78.6 209.7l.3-.1M78.9 209.6l.4-.1M79.3 209.5h.4M79.7 209.5l.4-.2M80.1 209.3h.3M80.4 209.3l.3-.1M80.7 209.2l.4-.2M81.1 209l.3-.1M81.4 208.9l.4-.1M81.8 208.8l.3-.2M82.1 208.6l.3-.1M82.4 208.5l.4-.2M82.8 208.3l.3-.1M83.1 208.2l.3-.2M83.4 208l.3-.2M83.7 207.8l.3-.1M84 207.7l.2-.1M84.2 207.6l.2-.2M84.4 207.4l.2-.1M84.6 207.3l.1-.1M84.7 207.2l.1-.1M84.8 207.1l.1-.1M84.9 207l.1-.1M85 206.9l.1-.1M85.1 206.8h.1M85.2 206.8l.1-.2M85.3 206.6h.1M197.6 26.9l.1-.1M197.7 26.8l.1-.1M197.8 26.7v-.1M197.8 26.6l.1-.1M197.9 26.5v-.1M197.9 26.4l.1-.1M198 26.3l.1-.1M198.1 26.2l.1-.1M198.2 26.1V26M198.2 26l.1-.1M198.3 25.9l.1-.1M198.4 25.8l.1-.2M198.5 25.6l.1-.1M198.6 25.5l.1-.1M198.7 25.4l.1-.1M198.8 25.3l.2-.1M199 25.2l.2-.3M199.2 24.9l.3-.2M199.5 24.7l.3-.2M199.8 24.5l.3-.2M200.1 24.3l.3-.3M200.4 24l.4-.3M200.8 23.7l.4-.2M201.2 23.5l.4-.3M201.6 23.2l.8-.5M202.4 22.7l1-.6M203.4 22.1l1.1-.6M204.5 21.5l1.2-.5M205.7 21l1.3-.7M207 20.3l1.4-.6M208.4 19.7l3.3-1.3M175.3 73.1h.1M175.4 73.1l.1-.1M175.5 73h.3M175.8 73l.2-.1M176 72.9h.3M176.3 72.9l.6-.2M176.9 72.7h.4M177.3 72.7l.9-.1M178.2 72.6l.8-.1M179 72.5l.8-.1M173.1 89.6l-.1-13.5M194.9 89.2v.1M194.9 89.3v.1M194.9 89.4v.1M194.9 89.5l-.1.1M194.8 89.6v.1M194.8 89.7v.1M194.8 89.8v.1M194.8 89.9l-.1.1M194.7 90v.1M194.7 90.1v.1M194.7 90.2l-.1.1M194.6 90.3v.1M194.6 90.4v.1M194.6 90.5l-.1.1M194.5 90.6l-.1.1M194.4 90.7v.1M194.4 90.8l-.1.1M194.3 90.9l-.1.1M194.2 91v.1M194.2 91.1l-.1.1M194.1 91.2l-.1.1M194 91.3l-.1.1M193.9 91.4l-.1.1M193.8 91.5h-.1M193.7 91.5v.1M193.7 91.6h-.1M193.6 91.6v.1M193.6 91.7l-.2.1M193.4 91.8l-.1.1M193.3 91.9h-.1M193.2 91.9l-.1.1M193.1 92h-.2M192.9 92l-.1.1M192.8 92.1l-.1.1M192.7 92.2h-.2M192.5 92.2l-.1.1M192.4 92.3l-.1.1M192.3 92.4h-.2M192.1 92.4l-.2.1M191.9 92.5h-.2M191.7 92.5l-.1.1M191.6 92.6l-.4.1M191.2 92.7l-.4.1M190.8 92.8l-.5.1M190.3 92.9l-.5.1M189.8 93l-.5.1M189.3 93.1l-.5.1M188.8 93.2l-.5.1M188.3 93.3h-.7M187.6 93.3l-1.2.1M186.4 93.4l-1.2.1M185.2 93.5l-1.3.1M183.9 93.6h-1.2M182.7 93.6h-1.2M181.5 93.6l-1.2-.1M180.3 93.5h-.6M179.7 93.5l-.6-.1M179.1 93.4h-.5M178.6 93.4l-.5-.1M178.1 93.3l-.5-.1M177.6 93.2l-.4-.1M177.2 93.1h-.4M176.8 93.1l-.4-.1M176.4 93l-.2-.1M176.2 92.9h-.2M223.7 31.9l-7.1-1M216.6 30.9l-3.6-.7M213 30.2l-3.6-.7M209.4 29.5l-3.3-.8M206.1 28.7l-2.2-.5M203.9 28.2l-2-.6M201.9 27.6l-1-.3M200.9 27.3l-1-.4M199.9 26.9l-.9-.3M199 26.6l-1-.4M71.3 206.3l-.1.1M71.2 206.4v.1M71.2 206.5l-.1.1M71.1 206.6H71M71 206.6v.1M71 206.7l-.1.1M70.9 206.8v.1M70.9 206.9h-.1M70.8 206.9v.1M70.8 207l-.1.1M70.7 207.1v.1M70.7 207.2v.1M70.7 207.3l-.1.1M70.6 207.4v.1M70.6 207.5v.1M70.6 207.6v.1M70.6 207.7l-.1.1M70.5 207.8v.1M70.5 207.9v.1M70.5 208h.1M70.6 208v.1M70.6 208.1v.1M70.6 208.2v.1M70.6 208.3v.1M70.6 208.4h.1M70.7 208.4v.1M70.7 208.5v.1M70.7 208.6h.1M70.8 208.6v.1M70.8 208.7v.1M70.8 208.8h.1M70.9 208.8v.1M70.9 208.9h.1M71 208.9v.1M71 209h.1M71.1 209v.1M71.1 209.1h.1M71.2 209.1v.1M71.2 209.2h.1M71.3 209.2h.1M71.4 209.2v.1M71.4 209.3h.1M207.6 76l-.7-.8M216.1 75.5l-.2.1M215.9 75.6l-.2.3M215.7 75.9l-.3.2M215.4 76.1l-.3.2M215.1 76.3l-.2.2M214.9 76.5l-.3.1M214.6 76.6l-.3.2M214.3 76.8l8 46.8s-.6 2.7-3.1 1.9a5.1 5.1 0 0 1-3.2-2.7L207.6 76M247.1 38.3l-16.8-1.2M230.3 37.1l-7.8-.8M222.5 36.3l-3.6-.4M218.9 35.9l-3.5-.5M215.4 35.4l-3.3-.6M212.1 34.8l-3-.6M209.1 34.2l-1.4-.3M207.7 33.9l-1.4-.3M206.3 33.6l-1.3-.4M205 33.2l-1.2-.4M203.8 32.8l-.6-.2M203.2 32.6l-.6-.2M202.6 32.4l-.5-.1M202.1 32.3l-.5-.2M201.6 32.1l-.5-.3M201.1 31.8l-.4-.2M200.7 31.6l-.5-.2M200.2 31.4l-.2-.1M200 31.3l-.1-.1M199.9 31.2l-.2-.1M199.7 31.1l-.2-.2M199.5 30.9l-.2-.1M199.3 30.8l-.2-.1M171.2 59.9h.1M171.4 59.9l.1.1M171.6 60h.1M171.8 60l.1.1M172 60.1h.1M197 59.1V59M197 59h.1M197.1 58.9l.1-.1M229.4 53.5v.1M229.4 53.6v.1M229.4 53.7h-.1M229.3 53.7v.1M229.3 53.8v.1M229.3 53.9v.1M229.3 54l-.1.1M229.2 54.1v.1M229.2 54.2l-.1.1M229.1 54.3l-.1.1M229 54.4v.1M229 54.5h-.1M228.9 54.5v.1M228.9 54.6h-.1M228.8 54.6l-.1.1M228.7 54.7l-.1.1M228.6 54.8h-.1M228.5 54.8l-.1.1M228.4 54.9h-.1M228.3 54.9l-.1.1M228.2 55h-.1M228.1 55h-.1M228 55h-.1M227.9 55h-.1M227.8 55h-.1M227.7 55h-.1M203.9 56.8l-1.6.2M202.3 57l-1.6.2M200.7 57.2l-1.5.3M199.2 57.5l-1.6.4M189.3 56.9v.3M189.3 56.9v.3M194.7 55.3l-1.1.2M193.6 55.5l-1.1.2M192.5 55.7l-.5.1M192 55.8l-.5.1M191.5 55.9l-.4.1M191.1 56l-.2.1M190.9 56.1l-.2.1M190.7 56.2h-.2M190.5 56.2l-.2.1M190.3 56.3h-.1M190.2 56.3l-.1.1M190.1 56.4h-.1M190 56.4l-.1.1M189.9 56.5h-.1M189.8 56.5h-.1M189.7 56.5l-.1.1M189.6 56.6v.1M189.6 56.7h-.1M189.5 56.7l-.1.1M189.4 56.8l-.1.1M194.8 56.9l.1.3M205.6 73.5v-8.2M218.7 65.3v8.2M217 75.3h-.2M216.8 75.3l-.2.1M216.6 75.4h-.2M216.4 75.4h-.2M216.2 75.4l-.2.1M216 75.5h-.3M215.7 75.5h-.5M215.2 75.5l-.6.1M214.6 75.6h-.6M214 75.6h-1.3M212.7 75.6h-1.3M211.4 75.6h-1.3M210.1 75.6h-.6M209.5 75.6l-.6-.1M208.9 75.5h-.5M208.4 75.5h-.3M208.1 75.5l-.2-.1M207.9 75.4h-.3M207.6 75.4l-.1-.1M207.5 75.3h-.1M207.4 75.3h-.2M207.2 75.3h-.1M207.1 75.3l-.1-.1M207 75.2h-.1M206.9 75.2l-.1-.1M206.8 75.1h-.1M206.7 75.1h-.1M206.6 75.1l-.1-.1M206.5 75h-.1M206.4 75l-.1-.1M206.3 74.9l-.1-.1M206.2 74.8h-.1M206.1 74.8v-.1M206.1 74.7l-.1-.1M206 74.6v-.1M206 74.5h-.1M205.9 74.5l-.1-.1M205.8 74.4v-.1M205.8 74.3l-.1-.1M205.7 74.2v-.1M205.7 74.1V74M205.7 74v-.1M205.7 73.9h-.1M205.6 73.9v-.1M205.6 73.8v-.1M205.6 73.7v-.1M205.6 73.6v-.1M218.7 73.5v.1M218.7 73.6h-.1M218.6 73.6v.1M218.6 73.7v.1M218.6 73.8v.1M218.6 73.9v.1M218.6 74l-.1.1M218.5 74.1v.1M218.5 74.2l-.1.1M218.4 74.3v.1M218.4 74.4v.1M218.4 74.5h-.1M218.3 74.5v.1M218.3 74.6h-.1M218.2 74.6l-.1.1M218.1 74.7v.1M218.1 74.8h-.1M218 74.8l-.1.1M217.9 74.9v.1M217.9 75h-.1M217.8 75l-.1.1M217.7 75.1h-.1M217.6 75.1h-.1M217.5 75.1l-.1.1M217.4 75.2h-.1M217.3 75.2h-.1M217.2 75.2v.1M217.2 75.3h-.1M217.1 75.3h-.1M179.8 73.2V55.8M188 57.2v15.9M188 55.8v1.4M174.2 55.6l-.1-16.5M193.4 54.3v1.2M194.8 75.6v.1M188.7 72.4h.8M189.5 72.4l.8.1M190.3 72.5l.6.1M190.9 72.6h.4M191.3 72.6l.3.1M191.6 72.7h.2M191.8 72.7h.2M192 72.7l.2.1M192.2 72.8h.1M192.3 72.8l.1.1M192.4 72.9h.1M192.5 72.9h.1M192.6 72.9h.1M192.7 72.9l.2.1M192.9 73l.1.1M193 73.1h.1M193.1 73.1l.1.1M193.2 73.2h.1M193.3 73.2l.1.1M193.4 73.3h.1M193.5 73.3l.1.1M193.6 73.4l.1.1M193.7 73.5h.1M193.8 73.5l.1.1M193.9 73.6l.1.1M194 73.7l.1.1M194.1 73.8v.1M194.1 73.9h.1M194.2 73.9v.1M194.2 74h.1M194.3 74v.1M194.3 74.1h.1M194.4 74.1v.1M194.4 74.2v.1M194.4 74.3l.1.1M194.5 74.4l.1.1M194.6 74.5v.1M194.6 74.6l.1.2M194.7 74.8v.1M194.7 74.9v.1M194.7 75v.1M194.7 75.1l.1.1M194.8 75.2v.1M194.8 75.3v.1M194.8 75.4v.1M194.8 75.5v.1M172.9 76v-.1M172.9 75.9l.1-.1M173 75.8v-.1M173 75.7v-.1M173 75.6v-.1M173 75.5v-.1M173 75.4l.1-.1M173.1 75.3v-.1M173.1 75.2v-.1M173.1 75.1V75M173.1 75h.1M173.2 75v-.2M173.2 74.8h.1M173.3 74.8v-.1M173.3 74.7v-.1M173.3 74.6l.1-.1M173.4 74.5v-.1M173.4 74.4h.1M173.5 74.4v-.1M173.5 74.3h.1M173.6 74.3v-.1M173.6 74.2v-.1M173.6 74.1h.1M173.7 74.1l.1-.1M173.8 74l.1-.1M173.9 73.9h.1M174 73.9v-.1M174 73.8l.1-.1M174.1 73.7h.1M174.2 73.7l.1-.1M174.3 73.6h.1M174.4 73.6l.1-.1M174.5 73.5v-.1M174.5 73.4h.1M174.6 73.4l.1-.1M174.7 73.3h.1M174.8 73.3h.2M175 73.3l.1-.1M175.1 73.2l.1-.1M175.2 73.1h.1M199.1 30.7l-.1-.1M199 30.6l-.2-.1M198.8 30.5l-.1-.2M198.7 30.3l-.2-.1M198.5 30.2l-.2-.1M198.3 30.1l-.1-.2M198.2 29.9l-.1-.1M198.1 29.8l-.1-.1M198 29.7l-.1-.1M197.9 29.6l-.1-.2M197.8 29.4l-.1-.1M197.7 29.3l-.1-.1M193.4 39.2v15.1M218.1 73.8h-.2M217.9 73.8h-.1M217.8 73.8h-.2M217.6 73.8l-.2.1M217.4 73.9h-.3M217.1 73.9l-.5.1M216.6 74l-1.1.1M215.5 74.1h-1.1M214.4 74.1h-1.3M213.1 74.1l-1.3.1M211.8 74.2l-1.4-.1M210.4 74.1h-1.2M209.2 74.1l-1.1-.1M208.1 74h-.5M207.6 74l-.4-.1M207.2 73.9h-.4M206.8 73.9h-.2M206.6 73.9l-.2-.1M206.4 73.8h-.1M206.3 73.8h-.2M206.1 73.8l-.1-.1M206 73.7h-.1M205.9 73.7h-.1M205.8 73.7v-.1M205.8 73.6h-.1M205.7 73.6h-.1M205.6 73.6v-.1M209.7 63.7v-7.5M214.6 55.8v7.8M216.7 63.5h.1M216.8 63.5h.1M216.9 63.5h.1M217 63.5h.1M217.1 63.5h.1M217.2 63.5v.1M217.2 63.6h.1M217.3 63.6h.1M217.4 63.6l.1.1M217.5 63.7h.1M217.6 63.7h.1M217.7 63.7v.1M217.7 63.8h.1M217.8 63.8l.1.1M217.9 63.9h.1M218 63.9v.1M218 64h.1M218.1 64v.1M218.1 64.1h.1M218.2 64.1v.1M218.2 64.2h.1M218.3 64.2v.1M218.3 64.3l.1.1M218.4 64.4v.1M218.4 64.5h.1M218.5 64.5v.1M218.5 64.6v.1M218.5 64.7h.1M218.6 64.7v.1M218.6 64.8v.1M218.6 64.9v.1M218.6 65v.1M218.6 65.1l.1.1M218.7 65.2v.1M205.6 65.3v-.1M205.6 65.2v-.1M205.6 65.1V65M205.6 65v-.1M205.6 64.9h.1M205.7 64.9v-.1M205.7 64.8v-.1M205.7 64.7v-.1M205.7 64.6l.1-.1M205.8 64.5v-.1M205.8 64.4h.1M205.9 64.4v-.1M205.9 64.3l.1-.1M206 64.2v-.1M206 64.1h.1M206.1 64.1V64M206.1 64h.1M206.2 64l.1-.1M206.3 63.9h.1M206.4 63.9v-.1M206.4 63.8h.1M206.5 63.8v-.1M206.5 63.7h.1M206.6 63.7h.1M206.7 63.7l.1-.1M206.8 63.6h.1M206.9 63.6h.1M207 63.6l.1-.1M207.1 63.5h.1M207.2 63.5h.1M207.3 63.5h.1M207.4 63.5h.1M176 92.9l-.2-.1M175.8 92.8l-.1-.1M175.7 92.7h-.2M175.5 92.7h-.1M175.4 92.7l-.1-.1M175.3 92.6l-.2-.1M175.1 92.5h-.1M175 92.5l-.1-.1M174.9 92.4h-.1M174.8 92.4l-.2-.1M174.6 92.3l-.1-.1M174.5 92.2l-.1-.1M174.4 92.1l-.1-.1M174.3 92h-.1M174.2 92l-.1-.1M174.1 91.9l-.1-.1M174 91.8v-.1M174 91.7h-.1M173.9 91.7l-.1-.1M173.8 91.6v-.1M173.8 91.5h-.1M173.7 91.5v-.1M173.7 91.4h-.1M173.6 91.4v-.1M173.6 91.3l-.1-.1M173.5 91.2l-.1-.1M173.4 91.1V91M173.4 91v-.1M173.4 90.9h-.1M173.3 90.9v-.1M173.3 90.8v-.1M173.3 90.7l-.1-.1M173.2 90.6v-.1M173.2 90.5v-.1M173.2 90.4l-.1-.1M173.1 90.3v-.1M173.1 90.2v-.1M173.1 90.1V90M173.1 90v-.1M173.1 89.9v-.1M173.1 89.8v-.1M227.6 55l-10.9.6M216.7 55.6l-8.6.7M208.1 56.3l-3.2.4M204.9 56.7l-1.6.2M203.3 56.9l-1.6.2M201.7 57.1l-1.2.2M200.5 57.3l-1.2.2M199.3 57.5l-.4.1M198.9 57.6l-.4.1M198.5 57.7l-.5.2M198 57.9l-.4.1M197.6 25.3l.2.2M197.8 25.5l.3.1M198.1 25.6l.4.2M198.5 25.8l.5.3M199 26.1l.5.2M199.5 26.3l.5.2M200 26.5l.6.3M200.6 26.8l1.2.4M201.8 27.2l1.5.5M203.3 27.7l1.5.5M204.8 28.2l1.5.4M206.3 28.6l1.5.4M207.8 29l1.9.4M209.7 29.4l1.9.5M211.6 29.9l3.8.7M215.4 30.6l4.6.7M220 31.3l4.6.7M118.3 155l56.9-62.2"/><path class="aw" d="M90.5 185.4l27.8-30.4"/><path class="av" d="M71.3 206.3l19.2-20.9M98.5 192.4l-13.1 14.2"/><path class="aw" d="M126 162.4l-27.5 30"/><path class="av" d="M186.2 96.9L126 162.4M175.2 92.8l-.2-.3M191.9 92.5l-.2.3M191.7 92.8l-.2.3M191.5 93.1l-.2.3M191.3 93.4l-.2.2M191.1 93.6l-.3.3M190.8 93.9l-.2.3M190.6 94.2l-.3.2M190.3 94.4l-.2.3M190.1 94.7l-.3.2M189.8 94.9l-.2.2M189.6 95.1l-.3.2M189.3 95.3l-.3.2M189 95.5l-.3.2M188.7 95.7l-.3.2M188.4 95.9l-.3.2M188.1 96.1l-.3.1M187.8 96.2l-.3.2M187.5 96.4l-.4.1M187.1 96.5l-.3.1M186.8 96.6l-.3.2M186.5 96.8l-.3.1M214.6 63.6v.1M214.6 63.7h-.1M214.5 63.7h-.1M214.4 63.7l-.7.1M213.7 63.8h-.7M213 63.8h-.7M212.3 63.8h-.6M211.7 63.8h-.7M211 63.8l-.7-.1M210.3 63.7h-.6M214.6 63.4h.7M215.3 63.4l.6.1M215.9 63.5h.5M216.4 63.5h.2M216.6 63.5h.1M216.7 63.5h.1M216.8 63.5l.1.1M216.9 63.6h.1M217 63.6v.1M217 63.7h-.1M216.9 63.7h-.1M216.8 63.7l-.1.1M216.7 63.8h-.1M216.6 63.8h-.2M216.4 63.8h-.3M216.1 63.8l-.6.1M215.5 63.9h-.8M214.7 63.9h-.9M213.8 63.9l-2 .1M211.8 64l-1.9-.1M209.9 63.9h-.8M209.1 63.9h-.7M208.4 63.9l-.3-.1M208.1 63.8h-.2M207.9 63.8h-.3M207.6 63.8h-.1M207.5 63.8l-.1-.1M207.4 63.7h-.1M207.3 63.7h-.1M207.2 63.7v-.1M207.2 63.6h.1M207.3 63.6h.1M207.4 63.6v-.1M207.4 63.5h.1M207.5 63.5h.1M207.6 63.5h.1M207.7 63.5h.2M207.9 63.5h.2M208.1 63.5l.5-.1M208.6 63.4h1.1M218.7 65.3l-.6.2M218.1 65.5h-.1M218 65.5h-.2M217.8 65.5l-.3.1M217.5 65.6h-.9M216.6 65.6l-1.1.1M215.5 65.7h-1.1M214.4 65.7h-2.6M211.8 65.7h-2.6M209.2 65.7h-1.1M208.1 65.7l-.9-.1M207.2 65.6h-.5M206.7 65.6l-.3-.1M206.4 65.5h-.3M206.1 65.5h-.1M206 65.5l-.1-.1M205.9 65.4h-.1M205.8 65.4h-.1M205.7 65.4h-.1M205.6 65.4v-.1M214.7 75.6l1.5-.2M207.5 75.3l1.6.2M218.7 73.5l-.6.3M188 73.1h-.1M187.9 73.1v.1M187.9 73.2h-.1M187.8 73.2l-.1.1M187.7 73.3h-.1M187.6 73.3h-.1M187.5 73.3h-.1M187.4 73.3h-.1M187.3 73.3l-.2.1M187.1 73.4h-.4M186.7 73.4h-.6M186.1 73.4l-.8.1M185.3 73.5h-.8M184.5 73.5h-.7M183.8 73.5h-.8M183 73.5h-.7M182.3 73.5h-.7M181.6 73.5l-.6-.1M181 73.4h-.2M180.8 73.4h-.3M180.5 73.4h-.1M180.4 73.4h-.1M180.3 73.4l-.1-.1M180.2 73.3h-.1M180.1 73.3h-.1M180 73.3h-.1M179.9 73.3v-.1M179.9 73.2h-.1M193.4 55.5l-4.8.2M188.6 55.7l-4.8.1M183.8 55.8l-4.8-.1M179 55.7l-4.8-.1M193.4 39.2h-.1M193.3 39.2l-.1-.1M193.2 39.1h-.1M193.1 39.1h-.1M193 39.1h-.2M192.8 39.1h-.1M192.7 39.1l-.5-.1M192.2 39h-.5M191.7 39l-1.3-.1M190.4 38.9l-3.4-.1M187 38.8h-7.1M179.9 38.8h-3.1M176.8 38.8l-1.2.1M175.6 38.9h-.5M175.1 38.9h-.3M174.8 38.9l-.2.1M174.6 39h-.1M174.5 39h-.1M174.4 39h-.1M174.3 39l-.1.1M174.2 39.1h-.1M188 72.4h1M189 72.4l.8.1M189.8 72.5l.6.1M190.4 72.6h.4M190.8 72.6h.2M191 72.6l.2.1M191.2 72.7h.2M191.4 72.7h.1M191.5 72.7h.1M191.6 72.7l.1.1M191.7 72.8h.1M191.8 72.8h.1M191.9 72.8v.1M191.9 72.9h.1M192 72.9h.1M192.1 72.9v.1M192.1 73v.1M192.1 73.1h-.1M192 73.1v.1M192 73.2h-.1M191.9 73.2v.1M191.9 73.3h-.1M191.8 73.3h-.1M191.7 73.3h-.1M191.6 73.3l-.1.1M191.5 73.4h-.2M191.3 73.4h-.2M191.1 73.4l-.2.1M190.9 73.5h-.2M190.7 73.5l-.6.1M190.1 73.6l-.5.1M189.6 73.7l-1.3.1M188.3 73.8l-1.5.1M186.8 73.9h-1.6M185.2 73.9l-1.7.1M183.5 74h-1.6M181.9 74l-1.5-.1M180.4 73.9h-1.5M178.9 73.9l-.6-.1M178.3 73.8h-.6M177.7 73.8l-.5-.1M177.2 73.7h-.2M177 73.7l-.2-.1M176.8 73.6h-.2M176.6 73.6h-.2M176.4 73.6h-.1M176.3 73.6l-.1-.1M176.2 73.5h-.1M176.1 73.5h-.1M176 73.5v-.1M176 73.4h-.1M175.9 73.4h-.1M175.8 73.4v-.1M175.8 73.3h-.1M175.7 73.3v-.1M175.7 73.2h.1M175.8 73.2v-.1M175.8 73.1h.1M175.9 73.1h.1M176 73.1V73M176 73h.1M176.1 73h.1M176.2 73v-.1M176.2 72.9h.1M176.3 72.9h.2M176.5 72.9h.1M176.6 72.9l.2-.1M176.8 72.8h.2M177 72.8l.5-.1M177.5 72.7l.5-.1M178 72.6h.6M178.6 72.6l1.2-.1M194.8 75.7v.1M194.8 75.8h-.1M194.7 75.8v.1M194.7 75.9l-.1.1M194.6 76h-.1M194.5 76h-.1M194.4 76v.1M194.4 76.1h-.1M194.3 76.1l-.1.1M194.2 76.2h-.1M194.1 76.2h-.1M194 76.2l-.2.1M193.8 76.3h-.3M193.5 76.3l-.3.1M193.2 76.4h-.2M193 76.4l-.7.1M192.3 76.5l-.8.2M191.5 76.7h-.8M190.7 76.7l-.9.1M189.8 76.8l-2 .2M187.8 77l-2.1.1M185.7 77.1h-2.3M183.4 77.1h-2.2M181.2 77.1h-2.1M179.1 77.1l-1.9-.1M177.2 77l-.9-.1M176.3 76.9l-.7-.1M175.6 76.8l-.6-.1M175 76.7h-.5M174.5 76.7l-.3-.1M174.2 76.6l-.2-.1M174 76.5h-.2M173.8 76.5h-.2M173.6 76.5v-.1M173.6 76.4h-.1M173.5 76.4h-.1M173.4 76.4l-.1-.1M173.3 76.3h-.1M173.2 76.3h-.1M173.1 76.3v-.1M173.1 76.2"/><path class="ax" d="M169.3 57.3v.1M169.3 57.4v.1M169.3 57.5v.1M169.3 57.6v.1M169.3 57.7l.1.1M169.4 57.8v.1M169.4 57.9v.1M169.4 58v.1M169.4 58.1l.1.1M169.5 58.2v.1M169.5 58.3v.1M169.5 58.4l.1.1M169.6 58.5v.1M169.6 58.6l.1.1M169.7 58.7v.1M169.7 58.8h.1M169.8 58.8l.1.1M169.9 58.9v.1M169.9 59l.1.1M170 59.1l.1.1M170.1 59.2l.1.1M170.2 59.3l.1.1M170.3 59.4l.1.1M197.6 26.1l.1 31.1M197.6 26.1v-.3M197.6 25.8v-.3M197.6 25.5v-.3M197.6 25.2v-.3M197.6 24.9l-.1-.3M197.5 24.6v-.3M197.5 24.3l-.1-.3M197.4 24l-.1-.3M197.3 23.7l-.1-.3M197.2 23.4l-.1-.2M197.1 23.2l-.1-.3M197 22.9l-.1-.3M196.9 22.6l-.1-.3M196.8 22.3l-.2-.2M196.6 22.1l-.1-.3M196.5 21.8l-.2-.3M196.3 21.5l-.1-.2M196.2 21.3l-.2-.3M196 21l-.2-.2M195.8 20.8l-.2-.2M195.6 20.6l-.2-.3M195.4 20.3l-.1-.1M195.3 20.2l-.3-.3M195 19.9l-.2-.2M194.8 19.7l-.2-.2M194.6 19.5l-.2-.2M194.4 19.3l-.3-.2M194.1 19.1l-.2-.1M193.9 19l-.3-.2M193.6 18.8l-.2-.2M193.4 18.6l-.3-.1M193.1 18.5l-.2-.1M192.9 18.4l-.3-.1M192.6 18.3l-.3-.2M192.3 18.1l-.3-.1M192 18l-.3-.1M191.7 17.9l-.2-.1M191.5 17.8h-.3M191.2 17.8l-.3-.1M190.9 17.7l-.3-.1M190.6 17.6h-.3M190.3 17.6l-.3-.1M190 17.5h-.3M189.7 17.5h-.3M189.4 17.5h-.3M176.5 17.4h-.3M176.2 17.4l-.3.1M175.9 17.5l-.3.1M175.6 17.6h-.3M175.3 17.6l-.3.1M175 17.7l-.2.1M174.8 17.8l-.3.1M174.5 17.9l-.3.1M174.2 18l-.2.1M174 18.1l-.3.2M173.7 18.3l-.3.1M173.4 18.4l-.2.1M173.2 18.5l-.3.2M172.9 18.7l-.2.1M172.7 18.8l-.3.2M172.4 19l-.2.2M172.2 19.2l-.2.2M172 19.4l-.2.2M171.8 19.6l-.2.2M171.6 19.8l-.2.2M171.4 20l-.2.2M171.2 20.2l-.2.2M171 20.4l-.2.3M170.8 20.7l-.2.2M170.6 20.9l-.2.3M170.4 21.2l-.1.2M170.3 21.4l-.2.2M170.1 21.6l-.1.3M170 21.9l-.1.3M169.9 22.2l-.2.2M169.7 22.4l-.1.3M169.6 22.7l-.1.3M169.5 23l-.1.2M169.4 23.2v.3M169.4 23.5l-.1.3M169.3 23.8l-.1.3M169.2 24.1v.3M169.2 24.4l-.1.3M169.1 24.7v.3M169.1 25v.3M169.1 25.3l-.1.3M169 25.6v.2M169.3 57.2l-.3-31.5M177.7 17.3l11.4.2"/><path class="ay" d="M177.7 17.3h-.3M177.4 17.3h-.4M177 17.3l-.2.1M176.8 17.4h-.3"/><path class="ax" d="M177.9 57.2V60M172.1 57.2h5.8M172 37.3l.1 19.9M194.9 37.4l-22.9-.1M189.3 57.2h5.6M189.3 60v-2.8M170.4 59.5h.1M170.5 59.5v.1M170.5 59.6h.2M170.7 59.6v.1M170.7 59.7l.1.1M170.8 59.8h.1M170.9 59.8h.1M171 59.8l.1.1M171.1 59.9h.1M171.3 59.9h.1M171.5 60h.1M171.7 60h.1M171.9 60.1h.1M172.1 60.1h.1M194.9 60h.1M195 60l.1-.1M195.1 59.9h.1M195.2 59.9h.1M195.3 59.9h.1M195.4 59.9h.1M195.5 59.9h.1M195.6 59.9h.1M195.7 59.9l.1-.1M195.8 59.8h.1M195.9 59.8h.1M196 59.8l.1-.1M196.1 59.7l.1-.1M196.2 59.6h.1M196.3 59.6h.1M196.4 59.6l.1-.1M196.5 59.5l.1-.1M196.6 59.4l.1-.1M196.7 59.3h.1M196.8 59.3l.1-.1M196.9 59.2l.1-.1M197.1 59v-.1M197.2 58.8l.1-.1M197.3 58.7v-.1M197.3 58.6l.1-.1M197.4 58.5l.1-.1M197.5 58.4v-.1M197.5 58.3v-.1M197.5 58.2l.1-.1M197.6 58.1V58M197.6 58v-.1M197.6 57.9v-.1M197.6 57.8v-.1M197.6 57.7l.1-.1M197.7 57.6v-.1M197.7 57.5v-.1M197.7 57.4v-.2M194.9 60h-5.6M177.9 60l-5.7.1M194.9 57.2V37.4"/><path class="az" d="M197.6 29.1H169M197.6 25.4H169"/><path class="ba" d="M212.5 55.1h-.1M212.4 55.1h-.1M212.3 55.1h-.1M212.2 55.1h-.1M212.1 55.1l-.1-.1M212 55h-.1M211.9 55h-.1M211.8 55h-.1M211.7 55h-.1M211.6 55v-.1M211.6 54.9h-.1M211.5 54.9v-.1M211.5 54.8h-.1M211.4 54.8h-.1M211.3 54.8v-.1M211.3 54.7h-.1M211.2 54.7v-.1M211.2 54.6h-.1M211.1 54.6v-.1M211.1 54.5h-.1M211 54.5l-.1-.1M210.9 54.4v-.1M210.9 54.3h-.1M210.8 54.3v-.1M210.8 54.2v-.1M210.8 54.1l-.1-.1M210.7 54v-.1M210.7 53.9l-.1-.1M210.6 53.8v-.1M210.6 53.7v-.1M210.6 53.6v-.1M180.1 55.3l14.1-1.1M194.2 54.2l14.3-.6M169.2 57.1l2.5-.6M171.7 56.5l1.6-.3M173.3 56.2l1.7-.3M175 55.9l1.7-.2M176.7 55.7l1.6-.2M178.3 55.5l1.6-.2M195.9 56l-7.3.7M188.6 56.7l-3.3.3M185.3 57l-3.2.4M182.1 57.4l-2.8.5M179.3 57.9l-1.3.3M178 58.2l-1.3.2M176.7 58.4l-1.1.3M175.6 58.7l-.5.1M175.1 58.8l-.5.2M174.6 59l-.5.1M174.1 59.1l-.5.2M173.6 59.3l-.2.1M173.4 59.4l-.1.1M173.3 59.5l-.2.1M173.1 59.6l-1.1.5M211.2 55.1l-15.3.9M194.8 56.6v.1M194.8 56.7h-.1M194.7 56.7v.1M227.5 42.7v10.8M227.5 42.7l-9.1-.5M218.4 42.2l-7.4-.5M211 41.7l-3.3-.4M207.7 41.3l-3.1-.3M204.6 41l-2.7-.4M201.9 40.6l-1.2-.2M200.7 40.4l-1.2-.3M199.5 40.1l-.7-.1M198.8 40l-.5-.2M198.3 39.8l-.6-.1M197.7 39.7l-.5-.1M197.2 39.6l-.3-.1M196.9 39.5l-.2-.1M196.7 39.4l-.2-.1M196.5 39.3l-.2-.1M196.3 39.2l-.2-.1M196.1 39.1h-.2M195.9 39.1l-.1-.1M195.8 39h-.1M195.7 39l-.1-.1M195.6 38.9h-.1M195.5 38.9l-.1-.1M195.4 38.8l-.1-.1M195.3 38.7h-.1M195.2 38.7v-.1M195.2 38.6h-.1M195.1 38.6v-.1M195.1 38.5h-.1M195 38.5l-.1-.1M194.9 38.4v-.1M194.9 38.3h-.1M194.8 38.3v-.1M194.8 38.2h-.1M194.7 38.2v-.1M194.7 38.1V38M212.5 42.7h15M193.3 41.4l-3.5-.2M189.8 41.2l-3.5-.5M186.3 40.7l-3.5-.5M182.8 40.2l-3.5-.6M179.3 39.6l-3.5-.7M212.5 42.7l-17.8-1.1M212.5 53.5V42.7M179.8 55.6l-1.6.2M193.4 54.4l-6.8.5M186.6 54.9l-6.8.7M212.5 53.5l-17.8.8M216.2 53.5h-3.7M187.9 57.2l-1.3.2M186.6 57.4l-1.4.2M185.2 57.6l-1.4.3M183.8 57.9l-1.4.3M182.4 58.2l-1.3.4M181.1 58.6l-1.4.4M216.2 55.1l-9 .4M207.2 55.5l-9 .7M198.2 56.2l-9 .9M193.4 54.6l-2.8.2M190.6 54.8l-2.7.3M187.9 55.1l-2.8.4M185.1 55.5l-2.7.4M182.4 55.9l-2.7.5M216.2 53.5l-10.7.5M205.5 54l-10.8.6M216.2 55.1v-1.6M197.4 27.7l.2-.8M197.6 29.2l-.2-.8M177.4 83l.1-.2M177.5 82.8l.1-.2M210.6 36.5v-.1M210.6 36.4v-.2M210.6 36.2v-.1M210.6 36.1v-.2M210.6 35.9v-.1M210.6 35.8l.1-.1M210.7 35.7v-.1M210.7 35.6v-.2M210.7 35.4l.1-.1M210.8 35.3v-.1M210.8 35.2v-.1M210.8 35.1l.1-.1M210.9 35v-.2M210.9 34.8l.1-.1M211 34.7v-.1M211 34.6l.1-.1M211.1 34.5v-.1M211.1 34.4l.1-.1M211.2 34.3l.1-.1M211.3 34.2l.1-.1M211.4 34.1V34M211.4 34l.1-.1M211.5 33.9l.1-.1M211.6 33.8l.1-.1M211.7 33.7l.1-.1M211.8 33.6v-.1M211.8 33.5h.1M211.9 33.5l.1-.1M212 33.4l.1-.1M212.1 33.3l.1-.1M212.2 33.2l.1-.1M212.3 33.1h.1M212.4 33.1l.1-.1M212.5 33l.1-.1M212.6 32.9l.1-.1M212.7 32.8h.1M212.8 32.8l.1-.1M212.9 32.7l.1-.1M213 32.6h.2M213.2 32.6l.1-.1M213.3 32.5h.1M213.4 32.5l.1-.1M213.5 32.4h.1M213.6 32.4l.1-.1M213.7 32.3h.1M213.8 32.3h.2M214 32.3l.1-.1M214.1 32.2h.1M214.2 32.2l.1-.1M214.3 32.1h.2M214.5 32.1h.1M214.6 32.1l.1-.1M214.7 32h.1M214.8 32h.1M214.9 32l.1-.1M215 31.9h.2M215.2 31.9h.1M215.3 31.9h.1M215.4 31.9h.1M215.5 31.9h.2M215.7 31.9h.1M215.8 31.9h.1M215.9 31.9h.1M216 31.9h.2M208.5 53.6l2.1-.1M210.6 36.5v17M223.7 31.9h-7.5M211.2 55.1h1.3M212.5 55.1h3.7M189.3 59.6l-.1.2M223.7 55l-16 1M207.7 56l-6.8.7M200.9 56.7l-2.9.3M198 57l-1.4.2M196.6 57.2l-1.3.2M195.3 57.4l-1.4.3M193.9 57.7l-.6.1M193.3 57.8l-.6.2M192.7 58l-.6.1M192.1 58.1l-.5.2M191.6 58.3l-.3.1M191.3 58.4h-.2M191.1 58.4l-.2.1M190.9 58.5l-.2.1M190.7 58.6l-.2.1M190.5 58.7h-.1M190.4 58.7l-.1.1M190.3 58.8h-.1M190.2 58.8l-.1.1M190.1 58.9h-.1M190 58.9l-.1.1M189.9 59l-.1.1M189.8 59.1h-.1M189.7 59.1v.1M189.7 59.2h-.1M189.6 59.2v.1M189.6 59.3h-.1M189.5 59.3v.1M189.5 59.4h-.1M189.4 59.4v.1M189.4 59.5h-.1M189.3 59.5v.1M223.7 53.5V55M223.7 53.5l-9.7.3M214 53.8l-9.7.7M204.3 54.5l-9.6.8M227.5 53.5h-3.8M227.5 53.5l-16.5.8M211 54.3l-6.3.4M204.7 54.7l-2.8.3M201.9 55l-2.4.3M199.5 55.3l-1.2.2M198.3 55.5l-.6.1M197.7 55.6l-.5.1M197.2 55.7l-.5.1M196.7 55.8l-.4.1M196.3 55.9l-.2.1M196.1 56h-.2M195.9 56l-.1.1M195.8 56.1l-.2.1M195.6 56.2h-.1M195.5 56.2h-.1M195.4 56.2l-.1.1M195.3 56.3h-.1M195.2 56.3l-.1.1M195.1 56.4h-.1M195 56.4v.1M195 56.5h-.1M194.9 56.5v.1M194.9 56.6h-.1M179.7 55.8v-.3M187.9 55.5v.3M206.4 73.7l-.1-.2M206.3 73.5v-.2M206.3 73.3l-.1-.2M206.2 73.1v-.2M206.2 72.9l-.1-.2M206.1 72.7v-.2M206.1 72.5l-.1-.2M206 72.3v-.2M206 72.1v-.2M206 71.9v-.2M206 71.7l-.1-.2M205.9 71.5v-.2M205.9 71.3v-.2M205.9 71.1l.1-.2M206 70.9v-.2M206 70.7v-.2M206 70.5v-.2M206 70.3l.1-.2M206.1 70.1v-.2M206.1 69.9l.1-.2M206.2 69.7v-.2M206.2 69.5l.1-.2M206.3 69.3l.1-.2M206.4 69.1l.1-.2M206.5 68.9v-.2M206.5 68.7l.1-.2M206.6 68.5l.1-.2M206.7 68.3l.1-.1M206.8 68.2l.1-.2M206.9 68l.1-.2M207 67.8l.2-.1M207.2 67.7l.1-.2M207.3 67.5l.1-.1M207.4 67.4l.2-.2M207.6 67.2l.1-.1M207.7 67.1l.2-.2M207.9 66.9l.1-.1M208 66.8l.2-.2M208.2 66.6l.2-.1M208.4 66.5l.1-.1M208.5 66.4l.2-.1M208.7 66.3l.2-.1M208.9 66.2l.2-.1M209.1 66.1l.1-.1M209.2 66l.2-.1M209.4 65.9l.2-.1M209.6 65.8l.2-.1M209.8 65.7h.2M210 65.7l.2-.1M210.2 65.6h.2M210.4 65.6l.2-.1M210.6 65.5h.2M210.8 65.5l.2-.1M211 65.4h.2M211.2 65.4h.2M211.4 65.4h.2M211.6 65.4h.2M211.8 65.4h.2M212 65.4h.2M212.2 65.4h.2M212.4 65.4h.2M212.6 65.4h.2M212.8 65.4l.2.1M213 65.5l.2.1M213.2 65.6h.2M213.4 65.6h.2M213.6 65.6l.2.1M213.8 65.7l.2.1M214 65.8l.2.1M214.2 65.9h.2M214.4 65.9l.2.1M214.6 66l.1.1M214.7 66.1l.2.1M214.9 66.2l.2.1M215.1 66.3l.2.1M215.3 66.4l.1.2M215.4 66.6l.2.1M215.6 66.7l.1.1M215.7 66.8l.2.2M215.9 67l.1.1M216 67.1l.2.2M216.2 67.3l.1.1M216.3 67.4l.2.2M216.5 67.6l.1.1M216.6 67.7l.1.2M216.7 67.9l.1.2M216.8 68.1l.1.2M216.9 68.3l.1.1M217 68.4l.1.2M217.1 68.6l.1.2M217.2 68.8l.1.2M217.3 69l.1.2M217.4 69.2v.1M217.4 69.3l.1.2M217.5 69.5l.1.2M217.6 69.7v.3M217.6 70l.1.2M217.7 70.2v.2M217.7 70.4v.1M217.7 70.5v.2M217.7 70.7l.1.3M217.8 71v.2M217.8 71.2v.2M217.8 71.4v.2M217.8 71.6l-.1.2M217.7 71.8v.2M217.7 72v.2M217.7 72.2v.2M217.7 72.4l-.1.2M217.6 72.6v.2M217.6 72.8v.2M217.6 73l-.1.2M217.5 73.2l-.1.2M217.4 73.4l-.1.2M217.3 73.6l-.1.2M217.2 73.8v.1M217.2 73.9l-.1.2M217.1 74.1l-.1.2M217 74.3l-.1.2M216.9 74.5l-.2.1M216.7 74.6l-.1.2M216.6 74.8l-.1.2M216.5 75l-.1.1M216.4 75.1l-.2.2M216.2 75.3l-.1.2M209.6 56.2V53M214.5 53v2.8M206.3 53v-9.9M217.8 43.1V53M197.3 27.8v-.5M175 92.5l-.2-.3M174.8 92.2l-.2-.3M174.6 91.9l-.1-.3M174.5 91.6l-.1-.3M174.4 91.3l-.1-.4M174.3 90.9l-.2-.3M174.1 90.6l-.1-.3M174 90.3V90M174 90l-.1-.4M173.9 89.6l-.1-.3M173.8 89.3V89M173.8 89l-.1-.4M173.7 88.6v-.3M173.7 88.3l-.1-.4M173.6 87.9v-.3M173.6 87.6v-.3M173.6 87.3l.1-.4M173.7 86.9v-.2M173.7 86.7v-.3M173.7 86.4l.1-.3M173.8 86.1v-.3M173.8 85.8v-.3M173.8 85.5l.1-.2M173.9 85.3l.1-.3M174 85l.1-.2M174.1 84.8v-.3M174.1 84.5l.1-.3M174.2 84.2l.1-.2M174.3 84l.1-.3M174.4 83.7l.1-.2M174.5 83.5l.1-.3M174.6 83.2l.2-.2M174.8 83l.1-.3M174.9 82.7l.1-.2M175 82.5l.2-.3M175.2 82.2l.1-.2M175.3 82l.2-.2M175.5 81.8l.2-.3M175.7 81.5l.1-.2M175.8 81.3l.2-.2M176 81.1l.2-.2M176.2 80.9l.2-.2M176.4 80.7l.2-.3M176.6 80.4l.2-.1M176.8 80.3l.2-.2M177 80.1l.2-.2M177.2 79.9l.3-.2M177.5 79.7l.2-.2M177.7 79.5l.2-.1M177.9 79.4l.3-.2M178.2 79.2l.2-.1M178.4 79.1l.2-.2M178.6 78.9l.3-.2M178.9 78.7l.2-.1M179.1 78.6l.3-.1M179.4 78.5l.2-.1M179.6 78.4l.3-.1M179.9 78.3l.3-.1M180.2 78.2l.2-.2M180.4 78h.3M180.7 78l.3-.1M181 77.9l.3-.1M181.3 77.8l.2-.1M181.5 77.7h.3M181.8 77.7h.3M182.1 77.7l.3-.1M182.4 77.6h.2M182.6 77.6l.4-.1M183 77.5h.2M183.2 77.5h.3M183.5 77.5h.3M183.8 77.5h.3M184.1 77.5h.2M184.3 77.5l.3.1M184.6 77.6h.3M184.9 77.6h.3M185.2 77.6l.3.1M185.5 77.7h.2M185.7 77.7l.3.1M186 77.8l.3.1M186.3 77.9l.3.1M186.6 78h.2M186.8 78l.3.1M187.1 78.1l.3.1M187.4 78.2l.2.2M187.6 78.4l.3.1M187.9 78.5l.2.1M188.1 78.6l.3.1M188.4 78.7l.2.2M188.6 78.9l.2.1M188.8 79l.3.2M189.1 79.2l.2.1M189.3 79.3l.2.2M189.5 79.5l.3.1M189.8 79.6l.2.2M190 79.8l.2.2M190.2 80l.2.2M190.4 80.2l.2.2M190.6 80.4l.2.2M190.8 80.6l.2.2M191 80.8l.2.2M191.2 81l.1.2M191.3 81.2l.2.2M191.5 81.4l.1.2M191.6 81.6l.2.3M191.8 81.9l.1.2M191.9 82.1l.2.2M192.1 82.3l.1.3M192.2 82.6l.2.2M192.4 82.8l.1.3M192.5 83.1l.1.2M192.6 83.3l.1.3M192.7 83.6l.1.2M192.8 83.8l.1.3M192.9 84.1v.3M192.9 84.4l.1.2M193 84.6l.1.3M193.1 84.9l.1.3M193.2 85.2v.2M193.2 85.4l.1.3M193.3 85.7v.3M193.3 86v.3M193.3 86.3l.1.3M193.4 86.6v.3M193.4 86.9v.2M193.4 87.1v.3M193.4 87.4v.3M193.4 87.7v.3M193.4 88l-.1.3M193.3 88.3v.3M193.3 88.6l-.1.2M193.2 88.8v.3M193.2 89.1l-.1.3M193.1 89.4v.2M193.1 89.6l-.1.3M193 89.9l-.1.3M192.9 90.2l-.1.3M192.8 90.5l-.1.2M192.7 90.7l-.1.3M192.6 91l-.1.3M192.5 91.3l-.1.2M192.4 91.5l-.1.3M192.3 91.8l-.1.2M192.2 92l-.2.3M192 92.3l-.2.2M209.6 63.7l.7-.1M210.3 63.6l.5-.1M210.8 63.5h.6M211.4 63.5h.7M212.1 63.5h.6M212.7 63.5h.6M213.3 63.5l.6.1M213.9 63.6h.6M214.5 53h-.2M209.6 53h4.9M214.3 53h-4.7M206.3 53h.2M206.5 53l.2-.1M206.7 52.9h.1M206.8 52.9h.1M206.9 52.9h9.3M216.2 52.9h1.2M217.4 52.9l.3.1M217.7 53h.1M217.8 53h-.1M217.7 53h-.4M217.3 53l-5.5.1M211.8 53.1l-5.5-.1M217.3 43h-3.9M213.4 43h-3.8M209.6 43h-2.5M207.1 43h-.5M206.6 43l-.1.1M206.5 43.1h-.1M206.4 43.1h-.1M206.3 43.1h.1M206.4 43.1h.1M206.5 43.1v.1M206.5 43.2h.2M206.7 43.2h.2M206.9 43.2h3.8M210.7 43.2h3.8M214.5 43.2h2.4M216.9 43.2h.5M217.4 43.2h.2M217.6 43.2l.1-.1M217.7 43.1h.1M217.8 43.1h-.1M217.7 43.1l-.2-.1M217.5 43h-.2M212.1 43.1l5.2-.1M187.9 55.5h-.1M187.8 55.5l-.2.1M187.6 55.6h-.4M187.2 55.6h-.6M186.6 55.6l-3 .1M183.6 55.7l-2.8-.1M180.8 55.6h-.7M180.1 55.6h-.2M179.9 55.6h-.1M179.8 55.6v-.1M179.8 55.5h-.1M179.7 55.5h.1M179.8 55.5h.1M179.9 55.5h.2M180.1 55.5h1M181.1 55.5l2.9-.1M184 55.4h2.8M186.8 55.4l.5.1M187.3 55.5h.4M187.7 55.5h.1M187.8 55.5h.1M174.2 55.6l4.8-.3M179 55.3h4.8M183.8 55.3h4.8M188.6 55.3l4.8.2"/><path class="bb" d="M103 187.4c0-3.8-3.6-6.8-8.2-6.8M105 185.4c0-3.7-3.7-6.7-8.2-6.7M107 183.4c0-3.7-3.7-6.8-8.2-6.8M108.5 181.3c0-3.7-3.7-6.8-8.2-6.8"/><path d="M125.7 166.5c1.4-1.5 1-4.1-.9-5.8l-5.3-4.9c-1.9-1.7-4.5-1.9-5.8-.5l-23.3 25.2c-1.4 1.5-1 4.1.9 5.8l5.3 4.9c1.9 1.7 4.5 1.9 5.8.5z" stroke-width=".07" stroke="#000" stroke-linecap="round" stroke-linejoin="round" fill="none"/></svg>