<svg xmlns="http://www.w3.org/2000/svg" viewBox="0 0 693.8 682.5"><defs><style>.a,.b,.c,.d,.e,.h,.l,.n,.t{fill:none}.a,.b,.c,.d,.e,.h,.n,.t{stroke:#000;stroke-linecap:round;stroke-linejoin:round}.a,.t{stroke-width:.25px}.a,.n{stroke-dasharray:2}.b{stroke-width:.13px}.c{stroke-width:.5px}.d,.n{stroke-width:.1px}.e{stroke-width:.31px}.g{fill:#231f20}.g,.j{font-family:Dosis-Medium,Dosis;font-weight:500}.g{font-size:14.76px}.h{stroke-width:.16px;stroke-dasharray:1.05 .52}.i{fill:#949090;opacity:.67}.j{font-size:12.65px}.j,.m{fill:#f3811f}.k{letter-spacing:0}.l{stroke:#f3811f;stroke-width:.52px}</style></defs><path class="a" d="M429 431.9l51.7 90.7"/><path class="b" d="M504.2 341.5l-1.4 114.6 1.9 3.4M424.3 482.6a.8.8 0 0 1-.7-.7q0-.7.6-.6a.8.8 0 0 1 .7.7q0 .8-.6.6z"/><path class="c" d="M327.7 338.8l-1.8-4.4 87.1-25.1 10.3 1.6"/><path class="d" d="M508.2 339.7l4.4 2.6-1.9 115.3-5.8 7.8"/><path class="b" d="M598 614.8c.5.1.7.3.7.8s-.3.7-.8.6a.8.8 0 0 1-.7-.8c0-.6.3-.7.8-.6z"/><path class="a" d="M508.8 473.7l23.3 111.2M596.8 510.5l-64.7 74.4M594.5 623.2l-62.4-38.3M532.1 584.9l-114.3 36.6"/><path class="b" d="M583.2 311.7c-.2-.2-.2-.6.2-.6a1.3 1.3 0 0 1 .8.3c.3.3.3.6-.1.6a.8.8 0 0 1-.9-.3z"/><path class="c" d="M590.5 311.7l-82.3 28"/><path class="a" d="M532.1 584.9l-25-10.5"/><path class="b" d="M594.5 623.2l6.7-117.8"/><path class="c" d="M622.5 369c.2.2-.3.1-.4.2h-.4c-.1 0-.8.2-.9.1"/><path class="b" d="M517 334.1a1.4 1.4 0 0 0-.9-.3c-.4 0-.5.4-.2.7a1.4 1.4 0 0 0 .9.3c.4 0 .5-.4.2-.7z"/><path class="c" d="M689.7 340.7l3.9-.4-73 30-11.8 3.5"/><path class="b" d="M411.4 372.7l6.2-1.6 88.3-30.1 2.3-1.3"/><path class="c" d="M590.5 311.7l-5.6-3-74.3 25-2.4 6"/><path class="b" d="M549.5 323.1a.3.3 0 0 1 .2-.6 1.1 1.1 0 0 1 .8.3c.3.3.3.6-.1.7a1.1 1.1 0 0 1-.9-.4zM654.2 355.8h.7c.2-.1.5 0 .7-.3M653.9 355.8c-.1.2.2 0 .3 0M687.3 342.3l.7-.2.5-.2a3.5 3.5 0 0 0-1.4.3M687 342.3c-.1.2.2 0 .3 0"/><path class="d" d="M506.4 462.5l1.5 7.3 88.9 40.7 4.4-5.1-94.8-42.9z"/><path class="b" d="M551.4 485.4c-.5-.2-.7.1-.8.6s0 .8.5 1 .7-.1.7-.6 0-.8-.4-1zM593.3 504.4a.9.9 0 0 1 .4 1.1c0 .5-.3.8-.8.6s-.5-.6-.5-1.1.3-.8.9-.6zM507.9 469.8l.9 3.9-1.7 100.7-2.4-1M512.4 467.7c-.5-.2-.7.1-.7.6a.8.8 0 0 0 .4 1c.5.2.7-.2.7-.6s0-.8-.4-1z"/><path class="c" d="M327.7 338.8l-2.8.8 78.6 32 7.9 1.1-83.7-33.9z"/><path class="b" d="M402.9 370c.1 0 .2.2 0 .2h-.4l-.9-.2c-.1 0-.2-.2-.1-.2h.5zM331.4 341l-.8-.2c-.2 0-.8 0-.5.2l.9.2c.1 0 .7-.1.4-.2zM365.8 355a2.7 2.7 0 0 0-1.2-.3M365.7 355.2h.3c.1-.1-.1-.1-.2-.1M365.7 355.2l-.9-.2h-.4c-.2-.1.1-.2.2-.2M506 566.3a1.1 1.1 0 0 1 .3.8c.1.3 0 .8-.3.5a1.1 1.1 0 0 1-.2-.8c-.1-.3 0-.8.2-.5zM506.7 524.5c.3.3.3-.3.3-.5a1.6 1.6 0 0 0-.3-.9c-.3-.3-.3.3-.3.6a1.1 1.1 0 0 0 .3.8zM507.4 476.5c.4.3.4-.3.4-.6s-.1-.6-.3-.8-.4.3-.3.5a1.3 1.3 0 0 0 .2.9zM503.7 563.3c-.3-.3-.3.3-.3.6a1.3 1.3 0 0 0 .3.8c.2.3.3-.3.3-.6a2.6 2.6 0 0 0-.3-.8zM504.3 521.7a1.1 1.1 0 0 1-.3-.8c0-.3 0-.8.3-.5a1.1 1.1 0 0 1 .3.8c0 .3 0 .9-.3.5zM505 473.9a.8.8 0 0 1-.3-.8c0-.3 0-1 .3-.6a1.1 1.1 0 0 1 .3.8c0 .3 0 .9-.3.6zM423.3 437.4c-.4 0-.6-.2-.6-.7s.1-.7.6-.6a.7.7 0 0 1 .6.7q.2.8-.6.6z"/><path class="c" d="M507.5 679.8l11.5.6 78.4-51.7-2.9-5.5M417.8 621.5l3.1-4.2 78.5-43.2 5.3-.7"/><path class="b" d="M496.2 577c-.3 0 .1-.3.2-.4l.8-.2c.3 0 0 .4-.2.4zM689.7 340.7l-80.9 33.1M557.9 650.8c.4.4.5.8 0 1s-.7 0-1-.3-.5-.8 0-1 .7 0 1 .3zM590.1 629.7c.3.4.5.5 1 .3s.3-.6 0-.9-.6-.5-1-.3-.3.6 0 .9zM520 675.7c.3.4.4.8-.1 1s-.8.1-1.1-.3-.4-.8.1-1 .7-.1 1.1.3zM426 615.7a1.2 1.2 0 0 0-.8.1c-.2.1-.7.5-.3.5a1.2 1.2 0 0 0 .8-.2c.2 0 .7-.4.3-.4zM463.9 594.8h-.7c-.3.1-.7.5-.3.5l.8-.2c.2 0 .6-.3.2-.3z"/><path class="a" d="M572.7 375.7l117-35"/><path class="b" d="M504.7 573.4l1.7-110.9M608.8 373.8l-36.1 1.9"/><path class="c" d="M504.7 573.4l-24-50.8M422.5 368.9l1 46.8 2.1 10.3M480.7 522.6l-53 8.1"/><path class="b" d="M508.2 339.7l-5.9 1.5M430.7 426.6a.9.9 0 0 1-.6-.6c-.1-.3-.1-.8.3-.6s.4.3.5.6.1.8-.2.6z"/><path class="d" d="M425.6 426l1.1-3.9 76.1 34 3.6 6.4-80.8-36.5z"/><path class="b" d="M499.7 457.7c.4.2.5-.2.4-.6a1.3 1.3 0 0 0-.6-.7c-.4-.2-.5.2-.4.6a1.1 1.1 0 0 0 .6.7zM498.7 676.8c.5.4.3.7-.1 1s-.7.4-1.1.1-.3-.7.1-1a.9.9 0 0 1 1.1-.1z"/><path class="c" d="M598.6 312.7c-.4-.1-.2-.5.1-.6a.8.8 0 0 1 .8-.1c.4.1.3.5 0 .6a1.4 1.4 0 0 1-.9.1z"/><path class="b" d="M508.2 339.7l-1.8 122.8"/><path class="c" d="M417.8 621.5l-2.1 5.5 84.2 55.3 7.6-2.5-89.7-58.3z"/><path class="b" d="M422.1 626.9a.7.7 0 0 0-1 .1c-.4.2-.6.6-.1.9s.6.1 1-.1.6-.6.1-.9zM464.1 441.7c.3.1.4-.3.3-.6a1.1 1.1 0 0 0-.6-.7c-.4-.2-.5.2-.3.6a1 1 0 0 0 .6.7z"/><path class="c" d="M639.5 324.5c-.4-.1-.3-.4 0-.6a1.4 1.4 0 0 1 .9-.1c.4.1.4.5 0 .7a1.4 1.4 0 0 1-.9 0z"/><path class="b" d="M572.7 375.7l-60.1-33.4M459 651a.9.9 0 0 0-1.1 0c-.4.3-.5.7-.1 1a.9.9 0 0 0 1.1-.1c.4-.3.6-.6.1-.9z"/><path class="a" d="M510.7 457.6l62-81.9"/><path class="b" d="M600.6 570.6c.5.1.8 0 .8-.6s-.2-.8-.7-.9-.8 0-.8.6.2.8.7.9z"/><path class="c" d="M425.6 426l-4.9 7.1 2.1 94.7 4.9 2.9"/><path class="b" d="M603.6 519.6c.5.1.8-.1.8-.7s-.2-.8-.7-.9-.8.1-.8.7.2.7.7.9z"/><path class="c" d="M590.5 311.7l6.5-1.9 93.2 26.9-.5 4-99.2-29z"/><path class="a" d="M599.5 497.4l-26.8-121.7"/><path class="b" d="M683.3 337.3a1.6 1.6 0 0 0 1-.1c.4-.2.4-.6 0-.7a1.1 1.1 0 0 0-1 .1c-.3.2-.4.6 0 .7z"/><path class="c" d="M601.2 505.4l5.8 10.5-6.4 106.7-6.1.6"/><path class="b" d="M509.2 402.3c.5.1.7-.2.7-.7a.8.8 0 0 0-.7-.9c-.6 0-.8.2-.8.7s.3.8.8.9zM508.4 448.6c.5.1.7.3.7.8s-.2.8-.7.7-.7-.3-.7-.8.2-.8.7-.7z"/><path class="a" d="M572.7 375.7l17.8-64"/><path class="b" d="M608.8 373.8l-7.6 131.6M424.4 411.3c-.3-.3-.3.4-.3.7s.1.5.3.7.2-.3.2-.6a1.2 1.2 0 0 0-.2-.8zM510 348.9c.6.1.8-.2.8-.8s-.2-.7-.8-.8-.7.1-.7.7.2.8.7.9zM427.7 530.7L425.6 426"/><path class="a" d="M503.8 468.6l-23.1 54"/><path class="b" d="M425.1 522q-.6-.2-.6.6c.1.4.2.6.6.7s.7-.1.6-.6a.7.7 0 0 0-.6-.7zM417.8 621.5l86.9-48.1"/><path class="a" d="M532.1 584.9l-24.6 94.9"/><path class="b" d="M507.5 679.8l87-56.6M446.3 355.5l-34.9 17.2M502.3 341.2l-56 14.3M411.4 372.7l96.8-33"/><path class="a" d="M426.7 422.1l17.8-60.7"/><path class="c" d="M446.3 355.5l-23-44.6"/><path class="b" d="M424.4 368.2l1.2 57.8"/><path class="a" d="M446.3 355.5l-118.6-16.8"/><path class="b" d="M327.7 338.7l95.6-27.8"/><path class="a" d="M502.8 456.1l-54-96.2"/><path class="c" d="M499.3 343l.7-.2h.3c.2 0 .3.1.4-.1M499.1 343c0 .2.2 0 .2 0M463.5 355.3c.2.2-.3.1-.4.1h-.4c-.3.1-.5.3-.8.2"/><path class="b" d="M374.8 322.7a.9.9 0 0 0-.9-.3c-.4 0-.6.3-.3.6a.8.8 0 0 0 .9.3c.4 0 .6-.3.3-.6zM410.4 312.4c-.3-.3-.1-.6.3-.7a1.4 1.4 0 0 1 .9.3c.3.3.1.6-.3.7a1.6 1.6 0 0 1-.9-.3z"/><path class="c" d="M420.8 369.8c.3.1-.3.1-.4.1l-.4.2-.8.2"/><path class="b" d="M332.8 334.8a1.1 1.1 0 0 0-.9-.3c-.5 0-.7.3-.4.7a1 1 0 0 0 1 .3c.4 0 .6-.3.3-.7zM610 384.4c.4.3.5-.3.5-.7s0-.8-.4-1-.5.3-.5.7a1 1 0 0 0 .4 1z"/><path class="d" d="M506.4 462.5l-2.6 6.1-1.4 99.9 2.3 4.9"/><path class="c" d="M608.8 373.8l3.3 5-7.1 120.3-3.8 6.3"/><path class="b" d="M603.7 491.4a1.3 1.3 0 0 1 .4 1c0 .3-.1.9-.4.6a1.3 1.3 0 0 1-.4-1c0-.3.1-.9.4-.6zM606.6 441.8c.5.3.5-.3.5-.7s0-.7-.4-.9-.5.2-.4.6a1.2 1.2 0 0 0 .3 1zM504.8 447.5c-.5-.1-.7.1-.7.7a.9.9 0 0 0 .7.8c.5.1.8-.1.7-.7s-.2-.7-.7-.8zM506.2 348a.8.8 0 0 1-.7-.9c0-.6.2-.8.7-.7s.7.3.8.8-.2.9-.8.8zM505.5 401.3c-.5-.1-.7-.3-.7-.9s.2-.8.7-.7a.8.8 0 0 1 .7.9c0 .5-.2.8-.7.7zM431.5 430.3c-.4-.1-.4.3-.3.6a1.3 1.3 0 0 0 .6.7c.3.1.4-.3.3-.6a2 2 0 0 0-.6-.7zM464.8 445.5c-.4-.2-.4.2-.3.5a1.1 1.1 0 0 0 .6.7c.4.2.4-.2.3-.6a.9.9 0 0 0-.6-.6z"/><path class="b" d="M425.6 426l3.4 5.9 75.7 34.6M500.4 461.6c.4.1.5.4.6.7s.1.8-.3.6a1 1 0 0 1-.6-.7c-.2-.4-.1-.8.3-.6zM510.7 457.6l88.8 39.8 1.7 8"/><path class="b" d="M552.3 480.7c-.4-.2-.5-.5-.4-1s.2-.8.7-.6.5.5.5 1-.3.8-.8.6zM594.3 499.5c.5.3.7 0 .8-.6s0-.8-.5-1-.7.1-.8.6a.7.7 0 0 0 .5 1zM513.2 463.1c-.4-.2-.4-.5-.4-.9s.2-.9.7-.6a.7.7 0 0 1 .4.9c0 .5-.2.8-.7.6z"/><path class="e" d="M564.6 454.3h-17.3M547.3 454.3v49.5"/><text transform="matrix(.94 0 0 1 551.4 451.8)" font-family="Dosis-Medium,Dosis" font-weight="500" fill="#231f20" font-size="15.55">a.</text><text class="g" transform="matrix(.94 0 0 1 15.3 521.5)">a. JOINERY</text><path class="c" d="M9.3 667.7L81.8 644M81.8 644l56.1-39.4M90.6 655.3l53.7-37.7M5.4 652l69.5-21.2M74.9 630.8l37.8-26.5M112.7 604.3l7.8 12.5M34.5 672.4l56.1-17.1M34.5 672.4L31 659.5"/><path class="h" d="M42.6 640.7l7.1 27M54.9 636.7l6.9 27.1M89.2 621l15.3 24.5M99.3 614.4l15.1 23.1"/><path class="i" d="M61.8 669.7l-9.2 2.7-10-38.9 9.2-2.7 10 38.9zM116.5 644l-8 5.7-21-33.6 7.9-5.6 21.1 33.5z"/><text class="j" transform="matrix(.94 0 0 1 124.4 565.1)"><tspan class="k">c</tspan><tspan x="5.2" y="0">onnecting knot</tspan></text><text class="j" transform="matrix(.94 0 0 1 157.6 667.7)">plexiglass</text><path class="l" d="M157.6 665.1h-26.3M131.3 665.1v-42.9M96.8 621v-59.6M97 561.4h25.6"/><path class="m" d="M98.9 621.6a2.1 2.1 0 1 1-4.1 0 2 2 0 0 1 2-2.1 2.1 2.1 0 0 1 2.1 2.1zM133.3 621.1a2 2 0 1 1-4 0 2 2 0 1 1 4 0z"/><path class="b" d="M188.2 453.7c.1.5.3.7.8.7s.7-.3.6-.8-.2-.7-.7-.7-.7.3-.7.8zM145.6 455.8c0 .5-.2.8-.7.8s-.7-.2-.7-.7.2-.7.7-.8a.6.6 0 0 1 .7.7zM235.4 451.3c0 .5.2.7.7.7s.7-.2.7-.8-.3-.7-.8-.7-.6.3-.6.8zM28.2 451.3c-.1.5-.3.7-.8.7s-.6-.2-.6-.8.2-.7.7-.7.7.3.7.8zM118 455.8c-.1.5.1.8.6.8s.7-.2.7-.7-.1-.7-.6-.8-.7.2-.7.7zM75.3 453.7c0 .5-.2.7-.7.7s-.7-.3-.7-.8a.6.6 0 0 1 .7-.7c.5 0 .7.3.7.8z"/><path class="c" d="M131.8 453.6c6.4-21.5 12.9-43 19.3-64.5"/><path class="d" d="M131.8 453.6l110.9-5.6"/><path class="n" d="M242.7 448l-91.6-58.9"/><path class="b" d="M244.8 389.1c0 .5.2.7.7.7s.7-.2.7-.7-.2-.8-.7-.8-.7.2-.7.8zM244.8 439.4c0 .5.2.7.7.7s.7-.2.7-.7-.2-.7-.7-.7-.7.2-.7.7zM244.8 338.7c0-.5.2-.7.7-.7s.7.2.7.7-.2.8-.7.8-.7-.3-.7-.8z"/><path class="d" d="M242.7 330.1V448"/><path class="n" d="M242.7 330.1l-91.6 59"/><path class="b" d="M235.4 326.8c0-.5.2-.7.7-.7s.7.3.7.8-.3.7-.8.7-.6-.3-.6-.8z"/><path class="c" d="M112.4 389.1c6.5-21.5 12.9-43.1 19.4-64.6"/><path class="d" d="M131.8 324.5l-111 5.6M20.8 330.1V448"/><path class="c" d="M131.8 453.6c-6.5-21.5-12.9-43-19.4-64.5"/><path class="d" d="M131.8 453.6l-111-5.6"/><path class="n" d="M20.8 330.1l91.6 59M20.8 448l91.6-58.9"/><path class="b" d="M145.6 322.3c0-.5-.2-.8-.7-.8s-.7.2-.7.7.2.8.7.8a.6.6 0 0 0 .7-.7zM188.2 324.4c.1-.5.3-.7.8-.7s.7.3.6.8-.2.7-.7.7-.7-.2-.7-.8zM18.7 389.1c0-.6-.2-.8-.7-.8s-.7.2-.7.8.2.7.7.7.7-.2.7-.7zM18.7 439.4c0 .5-.2.7-.7.7s-.7-.2-.7-.7.2-.7.7-.7.7.2.7.7zM28.2 326.8c-.1-.5-.3-.7-.8-.7s-.6.3-.6.8.2.7.7.7.7-.3.7-.8zM18.7 338.7c0-.5-.2-.7-.7-.7s-.7.2-.7.7.2.8.7.8.7-.3.7-.8zM118 322.3c-.1-.5.1-.8.6-.8s.7.2.7.7-.1.8-.6.8-.7-.2-.7-.7zM75.3 324.4c0-.5-.2-.7-.7-.7s-.7.3-.7.8a.6.6 0 0 0 .7.7c.5 0 .7-.2.7-.8z"/><path class="c" d="M151.1 389.1l-19.3-64.6"/><path class="d" d="M131.8 324.5l110.9 5.6"/><path class="c" d="M20.8 330.1l1.8-6 100.7-5 8.5 5.4"/><path class="c" d="M242.7 330.1l-1.8-6-100.6-5-8.5 5.4M20.8 448l1.8 6 100.7 5 8.5-5.4"/><path class="c" d="M242.7 448l-1.8 6-100.6 5-8.5-5.4"/><text class="g" transform="matrix(.94 0 0 1 15.3 269.2)">4<tspan x="6.8" y="0" letter-spacing="-.01em">”</tspan><tspan x="11.5" y="0" letter-spacing="0">x4” MODULE</tspan></text><path class="c" d="M20.8 330.1l-5.6 3.6M15.2 333.7v110.7M15.2 444.4l5.6 3.6M242.7 330.1l5.6 3.6M248.3 333.7v110.7M248.3 444.4l-5.6 3.6"/><text class="j" transform="matrix(.94 0 0 1 227 302.1)">s<tspan class="k" x="5" y="0">c</tspan><tspan x="10.2" y="0">o</tspan><tspan x="16.2" y="0" letter-spacing="-.02em">r</tspan><tspan x="20.4" y="0" letter-spacing="0">e line</tspan></text><path class="l" d="M198.5 358.6v-59.7M198.7 298.9h25.5"/><path class="m" d="M200.5 359.2a2 2 0 1 1-2-2.1 2 2 0 0 1 2 2.1z"/><text class="j" transform="matrix(.94 0 0 1 104.5 303.9)">th<tspan x="10.3" y="0" letter-spacing="-.01em">r</tspan><tspan x="14.5" y="0">ead hole</tspan></text><path class="l" d="M75 323.7v-23M75.1 300.7h25.6"/><path class="t" d="M387 1.7l6.6-1.6M455.2 36.5l3.5-3.5M466.5 36.1l-.1-2.8M417.1 6.4l-1 .3M458.7 33l7.7.3M404.4 19.3l1.8-2.6M476 35.9l-3.1-.5M403.3 4.2l2.1.7M400.4 99.3l-1-3M403.3 4.2l-.4-2.6M466.5 39.3l6.4-3.9M405.4 4.9l.8 11.8M406 13.1l6.1-6.3M406.2 16.7l9.9-10M404.4 19.3l12.7-12.9M393.6.1l9.3 1.5M400.4 99.3l4.7 3.9M398.3 109.6l2.1-10.3M417.1 6.4l-5 .4M396.4 111.4l-16.5 6.9M336.8 55l43.1 63.3M365.3 54.9l31.1 56.5M379.9 118.3l-14.6-63.4M365.3 54.9l-28.5.1M337.8 48.8l43.5-46.6M387 1.7l-21.7 53.2M466.5 36.1l-.7 81.5M387 1.7L336.8 55M403.3 4.2l-38 50.7M387 1.7l-5.7.5M387 1.7l16.3 2.5M336.8 55l1-6.2M372.5 51.8l31.9-32.5M466.5 41.7l9.5-5.8M454.6 125.8l4.1-5.3M458.7 120.5l.6-78.2M455.2 36.5l4.1 5.8M455.2 36.5l-.6 89.3M454.6 125.8l-74.7-7.5M379.9 118.3l4.4 4.5M384.3 122.8l65.1 6.8M454.6 125.8l-5.2 3.8M454.2 106.6l.4 19.2M379.9 118.3l74.3-11.7M454.2 106.6l-57.8 4.8M465.8 117.6l-7.1-6.7M455.2 36.5l-1 70.1M455.2 36.5l11.3-.4M466.5 36.1L459 79.3M378.1 37.8l26.3-18.5M403.3 4.2l1.1 15.1M372.5 51.8l34.8 49.2M399.4 96.3l6.9 5.7M374.4 71.5l25 24.8M372.5 51.8l-5.3.5M372.5 51.8l26.9 44.5M449.3 107.1l-42-6M379.9 118.3l-5.4-1.8M396.4 111.4l3-15.1M374.5 116.5l-37.4-55.1M336.8 55l.3 6.4M476 35.9l3.5 4.8M476 35.9l-.8 74.9M475.2 110.8l-9.1-33M478.8 106.3l.7-65.6M475.2 110.8l3.6-4.5M470.7 114.1h.1M475.2 110.8l-4.4 3.3M465.8 117.6l9.4-6.8M396.4 111.4l10.9-10.3M458.7 117l7.1.6M407.3 101.1l25.8 7.3M572.6 42.3l25.7 4.1M619.5 37.2l-9.4.2M604.5 33.8l10.6-.3M619.5 37.2l-4.4-3.7M610.1 42.2l9.4-5M598.4 32.5l-77 2.4M525.8 30.4l67.2-2.5M598.4 37.4l-51.9 9.8M598.4 32.5l-5.4-4.6M554.9 45.6l.1 57.3M540.1 112.6l10.8-10.3M521.9 118.9l-3.4-5.6M518.5 113.3l-.5-72.9M521.4 34.9l-3.4 5.5M521.4 34.9l.5 84M546.5 47.2l-6.4 65.4M540.1 112.6l-18.2 6.3M521.9 118.9l24.6-71.7M610.2 35.1l-.8 83.1M589.5 107.9l-38.6-5.6M550.9 102.3l25.1 6.9M609.4 118.2l9.3-6.1M602.1 117.7l7.3.5M613.7 115.4h.6M618.7 112.1l-4.4 3.3M618.7 112.1l3.6-4.5M622.3 107.6L623 42M619.5 37.2L623 42M619.5 37.2l-.8 74.9M618.7 112.1l-8.9-33.3M597.8 125.9l4.3-5.5M602.1 120.4l.6-82M598.4 32.5l4.3 5.9M598.4 32.5l-.6 93.4M597.8 125.9l-75.9-7M597.8 125.9l-5.4 4.1M597.6 107.1l.2 18.8M521.4 34.9l4.4-4.5M598.3 46.4l-.7 60.7M521.9 118.9l75.7-11.8M526.3 123.5l66.1 6.5M610.2 35.1l-7.8 44.7M597.6 107.1l-57.5 5.5M609.4 118.2l-7.3-6.8M521.9 118.9l4.4 4.6M544.7 65.7l6.2 36.6M598.4 32.5l11.8 2.6M546.5 47.2l-25.1-12.3M598.4 32.5l-51.9 14.7M554.5 45.7l-3.6 56.6"/><path class="c" d="M622.3 107.6l-3.6 4.5M618.7 112.1l-9.3 6.1M609.4 118.2l-7.3-.5M602.1 117.7l.3 2.1M602.7 120.4l-4.9 5.5M597.8 125.9l-5.4 4.1M592.4 130l-66.1-6.5M526.3 123.5l-4.4-4.6M521.9 118.9l-3.4-5.6M518.5 113.3l-.5-72.9M518 40.4l3.4-5.5M521.4 34.9l4.4-4.5M525.8 30.4l67.2-2.5M593 27.9l5.4 4.6M598.4 32.5l6.6 1.4M605 33.9l10.1-.4M615.1 33.5l4.4 3.7M619.5 37.2L623 42M623 42l-.7 65.6M597.3 107.1l-7.8.8M589.5 107.9l-34.5-5M555 102.3l-.1-56.2M554.9 46.1l17.7-3.8M572.6 42.3l25.7 4.1M598.3 46.4l-.7 60.3M329.1 109.5l-3.8.9"/><path class="t" d="M299 103l-4.5-3.3"/><path class="c" d="M305.9 120.6l1-3"/><path class="t" d="M.3 10.7l1.9-3.5M127.3 75.2l-2.5-1.6"/><path class="c" d="M34.5 9.1l-3.2-3.3M65 7.7l-1.7-2.3"/><path class="t" d="M48.4 10.8l.4-2.7M48.4 10.8l-.9-2.6M34.5 9.1l1.6-2.3M64.9 65.4l.2-3.2"/><path class="c" d="M305.9 120.6l4.4 3.3"/><path class="t" d="M192.3 90.4l-1.5-3.3"/><path class="c" d="M65 7.7l3 1.1M278.1 133.8l10.6.4M98.9 72.8l1.1-2.5M100.5 102.9l68.2 14.5M174.3 112.7l-5.6 4.7M288.7 134.2l21.6-10.3M68 8.8l32 61.5"/><path class="t" d="M192.3 90.4l-12.4 19.3M64.9 65.4L45.1 79.9M65.3 71.1l-2.2-4.4M66.1 70.7l-1.2-5.3M200.5 98.6l-8.2-8.2M186.6 99.3l9.5 1.7"/><path class="c" d="M36.1 6.8l11.4 1.4"/><path class="t" d="M127.3 75.2l13.7 3.5M131.3 87.7l-4-12.5"/><path class="c" d="M48.8 8.1l14.5-2.7"/><path class="t" d="M128 77.4l12.3 2"/><path class="c" d="M2.2 7.2l29.1-1.4"/><path class="t" d="M136.3 83.1l-6.8-1.1"/><path class="c" d="M332.6 107.2l-3.5 2.3"/><path class="t" d="M305.9 120.6l-11.4-20.9M294.5 99.7l-47.7 1.7M34.9 84.4l3.5 5.4"/><path class="c" d="M180.1 119.8l90.3 19.2"/><path class="t" d="M93.9 76.2l30.9-2.6M201.6 98l-10.8-10.9M189.6 87.2l-59.8 1.9"/><path class="c" d="M304.4 102.5l28.2 4.7"/><path class="t" d="M96 96.8l94.8-9.7M305.9 120.6l-91.3-29.7M62.8 58.3L48.4 10.8M278.1 133.8l27.8-13.2M.3 10.7l34.2-1.6"/><path class="c" d="M234 94.3l60.5 5.4"/><path class="t" d="M229.4 95.7l4.6-1.4M174.3 112.7L96 96.8"/><path class="c" d="M96 96.8l4.5 6.1"/><path class="t" d="M34.9 84.4L96 96.8M129.8 89.1L96 96.8M71.8 68.2l58 20.9M278.1 133.8l-63.5-42.9"/><path class="c" d="M124.8 73.6l17 4.4"/><path class="t" d="M.3 10.7l64.8 51.5"/><path class="c" d="M98.9 72.8l25.9.8"/><path class="t" d="M48.4 10.8L65 7.7M98.9 72.8l-9.6 1.7M65 7.7l33.9 65.1M98.9 72.8l-50.5-62"/><path class="c" d="M.3 10.7l.3 7.2"/><path class="t" d="M67 70.4l-1.9-8.2M34.5 9.1l30.6 53.1M65.1 62.2L34.9 84.4M214.6 90.9l-40.3 21.8M278.1 133.8l-103.8-21.1"/><path class="c" d="M278.1 133.8l-7.7 5.2"/><path class="t" d="M96 96.8l-4.2 4.3M129.8 89.1l-5-15.5M294.5 99.7l34.6 9.8"/><path class="c" d="M174.3 112.7l5.8 7.1M30.5 82L.6 17.9"/><path class="t" d="M34.5 9.1l13.9 1.7"/><path class="c" d="M91.8 101.1L38.4 89.8"/><path class="t" d="M96 96.8L71.8 68.2M143.4 76.5l27.1 11.3"/><path class="c" d="M234 94.3l-90.6-17.8"/><path class="t" d="M71.8 68.2L34.9 84.4M129.8 89.1l13.6-12.6M.3 10.7l34.6 73.7"/><path class="c" d="M34.9 84.4L30.5 82M306.9 117.6L299 103M299 103l26.3 7.4"/><path class="t" d="M190.8 87.1l-16.5 25.6M312.7 106.9l-12.7-2.1"/><path class="c" d="M304.1 102.4l-9.6-2.7"/></svg>