<svg xmlns="http://www.w3.org/2000/svg" viewBox="0 0 2324.7 1617">
  <defs>
    <pattern id="a" width="60.8" height="72" patternTransform="translate(17.1 65.9) rotate(-90)" patternUnits="userSpaceOnUse">
      <path style="fill:none" d="M0 0h60.8v72H0z"/>
      <path style="fill:none;stroke:#231f20;stroke-width:2.5px" d="M60.8 0v72"/>
      <path style="fill:none;stroke:#231f20;stroke-width:.5px" d="M30.4 0v72"/>
      <path style="fill:none;stroke:#231f20;stroke-width:.75px" d="M26.6 0v72"/>
      <path style="fill:none;stroke:#231f20" d="M22.8 0v72"/>
      <path style="fill:none;stroke:#231f20;stroke-width:1.25px" d="M19 0v72"/>
      <path style="fill:none;stroke:#231f20;stroke-width:1.5px" d="M15.2 0v72"/>
      <path style="fill:none;stroke:#231f20;stroke-width:1.75px" d="M11.4 0v72"/>
      <path style="fill:none;stroke:#231f20;stroke-width:2px" d="M7.6 0v72"/>
      <path style="fill:none;stroke:#231f20;stroke-width:2.25px" d="M3.8 0v72"/>
      <path style="fill:none;stroke:#231f20;stroke-width:2.5px" d="M0 0v72"/>
      <path style="fill:none;stroke:#231f20;stroke-width:.75px" d="M34.2 0v72"/>
      <path style="fill:none;stroke:#231f20" d="M38 0v72"/>
      <path style="fill:none;stroke:#231f20;stroke-width:1.25px" d="M41.8 0v72"/>
      <path style="fill:none;stroke:#231f20;stroke-width:1.5px" d="M45.6 0v72"/>
      <path style="fill:none;stroke:#231f20;stroke-width:1.75px" d="M49.4 0v72"/>
      <path style="fill:none;stroke:#231f20;stroke-width:2px" d="M53.2 0v72"/>
      <path style="fill:none;stroke:#231f20;stroke-width:2.25px" d="M57 0v72"/>
      <path style="fill:none;stroke:#231f20;stroke-width:2.5px" d="M60.8 0v72M0 0v72"/>
    </pattern>
  </defs>
  <path style="fill:none;stroke:#000;stroke-linecap:round;stroke-linejoin:round;stroke-width:.25px" d="M1035.5 1321v20.7M1732 1321v20.7M1819.7 1210.6l-16.6 77.2M1035.5 1331.3h158.2M1465.4 1331.3h-199.5M1532.5 1321v20.7M1837 928.6h110.1v3.66H1837zM970.1 1298.3h-20.6M1809.7 1208.3l20.1 4.4M1793 1285.7l20.1 4.4M1193.7 1321v20.7M1265.9 1321v20.7M1465.4 1321v20.7M1732 1331.3h-199.5M275.3 664v491.9"/>
  <path d="M1837 932.3V930a110 110 0 0 1 97.5-107l2.2-.3M959.8 1220.9v77.4M970.1 1220.9h-20.6M1483.5 579.1h70v27.42h-70zM261.9.1h2062.7v27.54H261.9zM1456 600.4l-.2 2.1a124.1 124.1 0 0 1-79.8 105.4l-1.9.7M1373.9 708.3l-41.7-116.5-3.6 1.2 41.8 116.6 3.5-1.3M1255.6 378.5V262.6h-230.4v115.9M1197.2 956.4h89.4v199.5h-89.4zM2205 650.2h20.6M2205 437h20.6M1936.7 932.3v233.9h288.9v-516M2205 437V182.4h-247.6v639.8" style="fill:none;stroke:#000;stroke-linecap:round;stroke-linejoin:round;stroke-width:.25px"/>
  <path style="fill:none;stroke:#000;stroke-linecap:round;stroke-linejoin:round;stroke-width:.25px" d="M1957.4 932.3v213.3H2205V650.2M1957.4 932.3h-20.7M1957.4 822.2h-20.7M1957.4 949.5h-20.7M1957.4 805h-20.7M1957.4 750h-20.7M1957.4 1004.5h-20.7M1947.1 949.5v55M1947.1 805v-55M1936.7 1145.6h-113.5l-37.8 175.4"/>
  <path style="fill:none;stroke:#000;stroke-linecap:round;stroke-linejoin:round;stroke-width:.25px" d="M1936.7 1166.2h-96.9l-37.8 175.5M1327.9 600.4v356h-86M1228.1 942.6v209.8M1241.9 963.2v189.2"/>
  <path style="fill:none;stroke:#000;stroke-linecap:round;stroke-linejoin:round;stroke-width:.25px" d="M1224.4 942.6h20.9v20.64h-20.9zM1307.2 182.4v230.5M1307.2 495.4v89.5M1080.2 378.5H970.1M1080.2 392.3H970.1M956.4 161.8v251.1M970.1 182.4v230.5M970.1 406h-13.7M970.1 502.3h-13.7M970.1 495.4h-13.7M970.1 412.9h-13.7M1080.2 378.5l81.7-49.1 17.9 43.8M1069.9 378.5v13.8M1214.3 378.5v13.8M1307.2 378.5H1204M1307.2 392.3H1204M1080.2 378.5v13.8M1204 378.5v13.8M1321 406h-13.8M1321 502.3h-13.8M1321 495.4h-13.8M1321 412.9h-13.8M1321 412.9V182.4M970.1 495.4v89.5M956.4 495.4v89.5M1323.5 583.1h8.6v17.22h-8.6zM1456 583.1h8.6v17.22h-8.6zM1936.7 598.6h-472.1M1936.7 584.9h-472.1M1321 584.9v-89.5M1323.5 584.9h-2.5M1307.2 584.9H970.1M1224.7 1152.4h20.6v17.22h-20.6zM1314.1 605.5h-344M1062.7 1155.9h-92.6M1062.7 798.1h-92.6M1062.7 798.1v357.8M970.1 781h-13.7M970.1 787.9h-13.7M970.1 781v540M970.1 674.3h-13.7M970.1 667.4h-13.7M970.1 605.5v68.8M956.4 598.6v75.7M1314.1 942.6h-86M1314.1 677.8h-86v-10.4M970.1 667.4h258M1208.6 680.6h103.2v103.14h-103.2zM1314.1 605.5v337.1M2225.6 437V161.8h-288.9M1936.7 182.4v639.8M1062.7 987.4h-92.6M1062.7 873.8h-92.6M979.8 883.9h72.6v67.44h-72.6zM979.8 961.1h72.6v16.56h-72.6z"/>
  <path d="M1241.2 715.3l1-.2h.5c13.1-4 9.9-22.7-3.8-22h-.4l-1.1.2a11.2 11.2 0 0 0 2.8 22.1h1M1238.9 763.8l1-.2h.5a11.2 11.2 0 0 0-3.7-22h-.6l-.9.2c-13.3 3.4-10.9 22 2.7 22.1h1M1271.3 738.4l1-.2h.5l.5-.2a11.2 11.2 0 0 0-4.3-21.8h-1.4c-13.3 3.3-10.9 22.3 2.7 22.1h1l1-.2h.5c12.8-3.8 10.1-22.1-3.3-22h-1c-13.7 2.2-12.6 21.5 1.3 22.3h1.5M1293.5 768.9l1-.2h.5c13.1-3.9 9.9-22.5-3.7-22h-.6l-.9.2c-13.3 3.2-10.9 22.2 2.7 22.1h1M1293.5 710.6h1l.5-.2c13.1-4.1 9.8-22.4-3.7-22h-.6l-.9.2a11.2 11.2 0 0 0 2.7 22.1h1M1785.4 1321H970.1M956.4 781v141M956.4 935.8v220.1M956.4 922H681.2M956.4 935.8H681.2M189.3 540.2l86 123.8M254.6 664l-85.9-123.8M189.3 182.4v357.8M543.6 182.4v299.3h123.8M254.6 664v512.5M956.4 1155.9H275.3M949.5 1176.5H254.6M168.7 161.8v378.4M1936.7 182.4H189.3M1936.7 161.8h-1768M681.2 529.9h-13.8M681.2 636.5h-13.8M681.2 182.4v347.5M681.2 636.5v519.4M667.4 182.4v347.5M667.4 636.5v519.4M763.7 516.1v-13.8M873.8 516.1v-13.8M956.4 502.3h-82.6M763.7 502.3h-82.5M956.4 516.1h-82.6M763.7 516.1h-82.5M956.4 412.9H846.3v-13.8h110.1M846.3 399.1V182.4M859.1 195.8h86v191.82h-86zM956.4 412.9H846.3M961.6 396.8h4.8v80.4h-4.8zM168.7 302.8H.1v460.9M254.6 763.7H.1M251.2 658.9l13.9-9.6M180.5 557.2l13.9-9.6" style="fill:none;stroke:#000;stroke-linecap:round;stroke-linejoin:round;stroke-width:.25px"/>
  <path style="fill:none;stroke:#000;stroke-linecap:round;stroke-linejoin:round;stroke-width:.25px;stroke-dasharray:10" d="M1802 1506.7H956.4v110.1"/>
  <path style="fill:none;stroke:#000;stroke-linecap:round;stroke-linejoin:round;stroke-width:.25px" d="M949.5 1176.5v165.2M1802 1341.7H949.5"/>
  <path style="fill:none;stroke:#000;stroke-linecap:round;stroke-linejoin:round;stroke-width:.25px;stroke-dasharray:8,3" d="M157 1341.7L37.4 1222.1"/>
  <path style="fill:none;stroke:#000;stroke-linecap:round;stroke-linejoin:round;stroke-width:.25px;stroke-dasharray:10" d="M157 1341.7v275.1"/>
  <path style="fill:none;stroke:#000;stroke-linecap:round;stroke-linejoin:round;stroke-width:.25px" d="M261.9 20.8H.1v282M254.6 805H130.8M254.6 846.3H130.8M254.6 887.6H130.8M254.6 928.9H130.8M254.6 970.1H130.8M254.6 1011.4H130.8M254.6 1052.7H130.8M254.6 1094H130.8M254.6 1135.3H130.8M130.8 763.7v371.6"/>
  <path style="fill:none;stroke:#000;stroke-linecap:round;stroke-linejoin:round;stroke-width:.059999998658895px" d="M1933.2 787.2h1.7M1934 807.1v-39.8M1934.9 807.1v-39.8M1934.9 787.2h-1.7M1934 807.1v-39.8M1933.2 807.1v-39.8M1933.2 807.1h1.7-1.7v-39.8h1.7-1.7M1934.9 807.1v-39.8M1934.9 807.1v-39.8M1933.2 807.1v-39.8M1927.8 770.4h1.7M1934 766.5l-10.8 7.7M1929.5 770.4v1.7M1934.9 767.3l-10.8 7.8M1929.5 772.1h-1.6M1934.1 768.2l-10.8 7.7M1927.9 772.1l-.1-1.7M1933.2 767.3l-10.8 7.8"/>
  <path style="fill:none;stroke:#000;stroke-linecap:round;stroke-linejoin:round;stroke-width:.059999998658895px" d="M1933.2 766.5h1.7v1.7h-1.6l-.1-1.7-10.8 7.7.1 1.7h1.6v-1.7h-1.7M1934.9 766.5l-10.8 7.7M1934.9 768.2l-10.8 7.7M1933.3 768.2l-10.8 7.7M1915.8 799.7l.7-1.5M1898.2 790.8l35.8 16.3M1898.6 790l35.8 16.3M1916.5 798.2l-.7 1.5M1898.2 790.8l35.8 16.3M1897.9 791.6l35.8 16.2M1897.9 791.6l.7-1.6-.7 1.6 35.8 16.2.7-1.5-.7 1.5M1898.6 790l35.8 16.3M1898.6 790l35.8 16.3M1897.9 791.6l35.8 16.2M1932.9 801.8v-1.7M1933.2 807.1l-.6-12.3M1932.9 800.1h1.7M1934 806.2l-.6-12.2M1934.6 800.1v1.7M1934.9 807.1l-.6-12.3M1934.6 801.8h-1.7M1934 807.9l-.6-12.2"/>
  <path d="M1932.6 794v1.7h1.7V794zm.6 13.9v-1.7h1.7v1.7l-2.3-12.2zM1933.2 806.2l-.6-12.2M1934.9 806.2l-.6-12.2M1934.9 807.9l-.6-12.2M1927.6 785.3l1.5-.7M1933.4 794.8l-10.2-19.7M1934.2 794.4l-10.2-19.7M1929.1 784.6l-1.5.7M1933.4 794.8l-10.2-19.7M1932.7 795.2l-10.2-19.7" style="fill:none;stroke:#000;stroke-linecap:round;stroke-linejoin:round;stroke-width:.059999998658895px"/>
  <path style="fill:none;stroke:#000;stroke-linecap:round;stroke-linejoin:round;stroke-width:.059999998658895px" d="M1932.7 795.2l1.5-.8-1.5.8-10.2-19.7 1.5-.8-1.5.8M1934.2 794.4l-10.2-19.7M1934.2 794.4l-10.2-19.7M1932.7 795.2l-10.2-19.7M1921.6 796l-.1-1.8M1909.6 795.4l23.8-.6M1909.6 794.5l23.8-.5M1921.5 794.2l.1 1.8M1909.6 795.4l23.8-.6M1909.6 796.2l23.9-.5"/>
  <path style="fill:none;stroke:#000;stroke-linecap:round;stroke-linejoin:round;stroke-width:.059999998658895px" d="M1909.6 796.2v-1.7 1.7l23.9-.5-.1-1.7.1 1.7M1909.6 794.5l23.8-.5M1909.6 794.5l23.8-.5M1909.6 796.2l23.9-.5M1915.7 778.4l.9 1.4M1934 767.3l-35.8 23.5M1934.5 768.1l-35.8 23.4M1916.6 779.8l-.9-1.4M1934 767.3l-35.8 23.5M1933.6 766.6l-35.9 23.5M1933.6 766.6l.9 1.5-.9-1.5-35.9 23.5 1 1.4-1-1.4M1934.5 768.1l-35.8 23.4M1934.5 768.1l-35.8 23.4M1933.6 766.6l-35.9 23.5M1903.1 792.2h1.7M1898.2 790l11.4 4.5M1904.8 792.2l-.1 1.7M1899.1 790.8l11.4 4.6M1904.7 793.9h-1.6M1898.2 791.7l11.4 4.5M1903.1 793.9v-1.7M1897.4 790.8l11.4 4.6"/>
  <path style="fill:none;stroke:#000;stroke-linecap:round;stroke-linejoin:round;stroke-width:.059999998658895px" d="M1897.4 790h1.7l-.1 1.7h-1.7l.1-1.7 11.4 4.5v1.7h1.7v-1.7h-1.7M1899.1 790l11.4 4.5M1899 791.7l11.5 4.5M1897.3 791.7l11.5 4.5M1917.1 785.7l-1.4-1M1923.2 775.1l-13.6 20.3M1922.5 774.6l-13.6 20.3M1915.7 784.7l1.4 1M1923.2 775.1l-13.6 20.3M1924 775.6l-13.7 20.2"/>
  <path style="fill:none;stroke:#000;stroke-linecap:round;stroke-linejoin:round;stroke-width:.059999998658895px" d="M1924 775.6l-1.5-1 1.5 1-13.7 20.2-1.4-.9 1.4.9M1922.5 774.6l-13.6 20.3M1922.5 774.6l-13.6 20.3M1924 775.6l-13.7 20.2M1859.5 700.4v-1.5M1851.8 684l15.5 31.3M1859.5 698.9l1.7-.2M1852.7 683.2l15.3 31.2M1861.2 698.7v1.4M1853.5 683.8l15.4 31.2M1861.2 700.1l-1.7.3M1852.7 684.6l15.3 31.3M1851.8 684.7v-1.4l1.7-.3v1.5l-1.7.2 15.5 31.3 1.6-.3v-1.4l-1.6.2v1.5M1851.8 683.3l15.5 31.2M1853.5 683l15.4 31.3M1853.5 684.5l15.4 31.2M1919.8 674l1.6-.4M1932.2 716.5l-23.1-85.3M1933 716.2l-23.1-85.2M1921.4 673.6l-1.6.4M1931.3 716.7l-23.1-85.3M1931.3 716.7l1.7-.5-1.7.5-23.1-85.3 1.7-.4-1.7.4M1933 716.2l-23.1-85.2M1933 716.2l-23.1-85.2M1931.3 716.7l-23.1-85.3M1888.9 746.4l-1.4.9M1868 715.1l40.4 63.4M1867.3 715.6l40.3 63.4M1887.5 747.3l1.4-.9M1868 715.1l40.4 63.4M1868.8 714.7l40.3 63.4"/>
  <path style="fill:none;stroke:#000;stroke-linecap:round;stroke-linejoin:round;stroke-width:.059999998658895px" d="M1868.8 714.7l-1.5.9 1.5-.9 40.3 63.4-1.5.9 1.5-.9M1867.3 715.6l40.3 63.4M1867.3 715.6l40.3 63.4M1868.8 714.7l40.3 63.4M1932.8 684.3h1.8M1933.7 765.8v-163M1934.6 765.8v-163M1934.6 684.3h-1.8M1933.7 765.8v-163M1932.8 765.8v-163M1932.8 765.8h1.8-1.8v-163h1.8-1.8M1934.6 765.8v-163M1934.6 765.8v-163M1932.8 765.8v-163M1876.1 736.3l-1.6.6M1852.7 683.9l45.2 105.3M1851.8 684.2l45.3 105.4M1874.5 736.9l1.6-.6M1852.7 683.9l45.2 105.3M1853.5 683.6l45.1 105.3M1853.5 683.6l-1.7.6 1.7-.6 45.1 105.3-1.5.7 1.5-.7M1851.8 684.2l45.3 105.4M1851.8 684.2l45.3 105.4M1853.5 683.6l45.1 105.3M1893.8 644l-1.2-1.3M1933.7 602.8l-81 81.1M1933.1 602.2l-81 81.1M1892.6 642.7l1.2 1.3M1933.7 602.8l-81 81.1M1934.3 603.4l-81 81.1"/>
  <path style="fill:none;stroke:#000;stroke-linecap:round;stroke-linejoin:round;stroke-width:.059999998658895px" d="M1934.3 603.4l-1.2-1.2 1.2 1.2-81 81.1-1.2-1.2 1.2 1.2M1933.1 602.2l-81 81.1M1933.1 602.2l-81 81.1M1934.3 603.4l-81 81.1M1920.6 617.6v-1.5M1933 602.6l-24.7 28.4M1920.6 616.1l1.6.3M1933.7 602.1l-24.6 28.4M1922.2 616.4v1.5M1934.5 603l-24.6 28.4M1922.2 617.9l-1.6-.3M1933.7 603.5l-24.6 28.4"/>
  <path style="fill:none;stroke:#000;stroke-linecap:round;stroke-linejoin:round;stroke-width:.059999998658895px" d="M1933 603.4v-1.5l1.5.4v1.4l-1.5-.3-24.7 28.3 1.6.4v-1.4l-1.6-.4v1.4M1933 601.9l-24.7 28.4M1934.5 602.3l-24.6 28.4M1934.5 603.7l-24.6 28.4M1919.5 747.2l1.6.6M1908.4 778.5l23.8-62M1909.1 778.9l23.9-62.1M1921.1 747.8l-1.6-.6M1908.4 778.5l23.8-62M1907.5 778.2l23.9-62M1907.5 778.2l1.6.7-1.6-.7 23.9-62 1.6.6-1.6-.6M1909.1 778.9l23.9-62.1M1909.1 778.9l23.9-62.1M1907.5 778.2l23.9-62M1933.8 740.5v1.2M1934.6 765.8l-1.5-49.3M1933.8 741.7h-1.7M1933.7 766.4l-1.5-49.3M1932.1 741.7v-1.2M1932.8 765.8l-1.5-49.3M1932.1 740.5h1.7"/>
  <path d="M1933.1 717.1v-1.2h-1.8v1.2zm1.5 48.1v1.2h-1.8v-1.2l.3-49.3zM1934.6 766.4l-1.5-49.3M1932.8 766.4l-1.5-49.3M1932.8 765.2l-1.5-49.3M1916.3 778.3l-1-1.5M1897.9 789.2l35.8-23.4M1897.4 788.5l35.9-23.4M1915.3 776.8l1 1.5M1897.9 789.2l35.8-23.4M1898.3 790l35.9-23.5" style="fill:none;stroke:#000;stroke-linecap:round;stroke-linejoin:round;stroke-width:.059999998658895px"/>
  <path style="fill:none;stroke:#000;stroke-linecap:round;stroke-linejoin:round;stroke-width:.059999998658895px" d="M1898.3 790l-.9-1.5.9 1.5 35.9-23.5-.9-1.4.9 1.4M1897.4 788.5l35.9-23.4M1897.4 788.5l35.9-23.4M1898.3 790l35.9-23.5M1889.3 673.6l-1.5-.8M1909.1 631.2l-41.1 83.9M1908.3 630.8l-41 84M1887.8 672.8l1.5.8M1909.1 631.2l-41.1 83.9M1909.9 631.6l-41.1 83.9M1909.9 631.6l-1.6-.8 1.6.8-41.1 83.9-1.5-.7 1.5.7M1908.3 630.8l-41 84M1908.3 630.8l-41 84M1909.9 631.6l-41.1 83.9M1902.2 784.7V783M1897 789.2l10.5-10.7M1902.2 783l1.7.1M1897.9 788.4l10.5-10.7M1903.9 783.1v1.6M1898.7 789.3l10.5-10.7M1903.9 784.7h-1.7M1897.9 790.1l10.5-10.8"/>
  <path style="fill:none;stroke:#000;stroke-linecap:round;stroke-linejoin:round;stroke-width:.059999998658895px" d="M1897 790.1v-1.7l1.7.1v1.6h-1.7l10.5-10.8 1.7.1v-1.7h-1.7v1.6M1897 788.4l10.5-10.7M1898.7 788.5l10.5-10.8M1898.7 790.1l10.5-10.7M1801.1 623.9l-1-1.3M1775.8 643.2l49.7-39.8M1775.2 642.5l49.8-39.8M1800.1 622.6l1 1.3M1775.8 643.2l49.7-39.8M1776.3 643.9l49.7-39.8M1776.3 643.9l-1.1-1.4 1.1 1.4 49.7-39.8-1-1.4 1 1.4M1775.2 642.5l49.8-39.8M1775.2 642.5l49.8-39.8M1776.3 643.9l49.7-39.8M1864.8 615.8l.5-1.7M1825.5 603.4l79.1 23.1M1825.7 602.6l79.2 23.1M1865.3 614.1l-.5 1.7M1825.5 603.4l79.1 23.1M1825.3 604.2l79 23.1"/>
  <path style="fill:none;stroke:#000;stroke-linecap:round;stroke-linejoin:round;stroke-width:.059999998658895px" d="M1825.3 604.2l.4-1.6-.4 1.6 79 23.1.6-1.6-.6 1.6M1825.7 602.6l79.2 23.1M1825.7 602.6l79.2 23.1M1825.3 604.2l79 23.1M1891.4 641.6l1.2 1.2M1932.5 601.6l-81 81.1M1933.1 602.2l-81 81.1M1892.6 642.8l-1.2-1.2M1932.5 601.6l-81 81.1M1931.9 601l-81 81.1M1931.9 601l1.2 1.2-1.2-1.2-81 81.1 1.2 1.2-1.2-1.2M1933.1 602.2l-81 81.1M1933.1 602.2l-81 81.1M1931.9 601l-81 81.1M1810.9 671.3l-.4 1.6M1851.5 682.7l-81.6-21.2M1851.3 683.5l-81.6-21.2M1810.5 672.9l.4-1.6M1851.5 682.7l-81.6-21.2M1851.7 681.8l-81.6-21.1"/>
  <path style="fill:none;stroke:#000;stroke-linecap:round;stroke-linejoin:round;stroke-width:.059999998658895px" d="M1851.7 681.8l-.4 1.7.4-1.7-81.6-21.1-.4 1.6.4-1.6M1851.3 683.5l-81.6-21.2M1851.3 683.5l-81.6-21.2M1851.7 681.8l-81.6-21.1M1773.5 631.4l1.7.3M1769.9 661.5l8.9-59.9M1770.8 661.6l8.9-59.9M1775.2 631.7l-1.7-.3M1769.9 661.5l8.9-59.9M1769 661.3l9-59.8"/>
  <path style="fill:none;stroke:#000;stroke-linecap:round;stroke-linejoin:round;stroke-width:.059999998658895px" d="M1769 661.3l1.8.3-1.8-.3 9-59.8 1.7.2-1.7-.2M1770.8 661.6l8.9-59.9M1770.8 661.6l8.9-59.9M1769 661.3l9-59.8M1838.8 677.7h1.5M1851.5 681.8l-24-8.3M1840.3 677.7l-.1 1.7M1852.3 682.7l-24.1-8.4M1840.2 679.4h-1.6M1851.4 683.5l-24-8.3M1838.6 679.4l.2-1.7M1850.7 682.7l-24-8.4M1850.8 681.8h1.5l-.1 1.7h-1.6l.2-1.7-24-8.3-.2 1.7h1.5l.2-1.7h-1.5M1852.3 681.8l-24-8.3M1852.2 683.5l-24.1-8.3M1850.6 683.5l-24-8.3M1855.7 602.5v-1.7M1778.8 601.6h153.7M1778.8 600.8h153.7M1855.7 600.8v1.7M1778.8 601.6h153.7M1778.8 602.5h153.7"/>
  <path style="fill:none;stroke:#000;stroke-linecap:round;stroke-linejoin:round;stroke-width:.059999998658895px" d="M1778.8 602.5v-1.7 1.7h153.7v-1.7 1.7M1778.8 600.8h153.7M1778.8 600.8h153.7M1778.8 602.5h153.7M1772 653.1v-1.6M1769 661.4l5.9-18.3M1772 651.5h1.7M1769.9 660.7l5.9-18.3M1773.7 651.5v1.7M1770.8 661.5l5.8-18.3M1773.7 653.2l-1.7-.1M1769.9 662.3l5.9-18.3M1769 662.2v-1.5h1.8v1.6l-1.8-.1 5.9-18.2h1.7v-1.6h-1.7v1.6M1769 660.7l5.9-18.3M1770.8 660.7l5.8-18.3M1770.8 662.3l5.8-18.3M1801.6 601.7h1.2M1778.9 600.8l46.6 1.7M1802.8 601.7v1.7M1779.5 601.6l46.6 1.8M1802.8 603.4h-1.2M1778.8 602.5l46.7 1.8M1801.6 603.4v-1.7M1778.2 601.6l46.7 1.8"/>
  <path style="fill:none;stroke:#000;stroke-linecap:round;stroke-linejoin:round;stroke-width:.059999998658895px" d="M1778.2 600.8h1.3l-.1 1.7h-1.2v-1.7l46.7 1.7-.1 1.8h1.3v-1.8h-1.2M1779.5 600.8l46.6 1.7M1779.4 602.5l46.7 1.8M1778.2 602.5l46.6 1.8M1917.7 613.3h1.5M1932.4 600.8l-28 24.9M1919.2 613.3l.3 1.5M1933.3 601.6l-27.9 24.9M1919.5 614.8h-1.5M1932.7 602.4l-27.9 24.9M1918 614.8l-.3-1.5M1931.8 601.6l-27.9 24.9M1931.6 600.8h1.5l.4 1.6h-1.5l-.4-1.6-27.9 24.9.3 1.6h1.5l-.3-1.6h-1.5M1933.1 600.8l-27.9 24.9M1933.5 602.4l-28 24.9M1932 602.4l-28 24.9M1865.6 649.7l.9 1.5M1904.6 626.5l-77.2 47.8M1905.1 627.2l-77.2 47.9M1866.5 651.2l-.9-1.5M1904.6 626.5l-77.2 47.8M1904.2 625.7l-77.2 47.9"/>
  <path style="fill:none;stroke:#000;stroke-linecap:round;stroke-linejoin:round;stroke-width:.059999998658895px" d="M1904.2 625.7l.9 1.5-.9-1.5-77.2 47.9.9 1.5-.9-1.5M1905.1 627.2l-77.2 47.9M1905.1 627.2l-77.2 47.9M1904.2 625.7l-77.2 47.9M1802 658l-.9 1.5M1827.4 674.3l-51.6-31.1M1827 675.1l-51.7-31.2M1801.1 659.5l.9-1.5M1827.4 674.3l-51.6-31.1M1827.9 673.6l-51.7-31.1"/>
  <path style="fill:none;stroke:#000;stroke-linecap:round;stroke-linejoin:round;stroke-width:.059999998658895px" d="M1827.9 673.6l-.9 1.5.9-1.5-51.7-31.1-.9 1.4.9-1.4M1827 675.1l-51.7-31.2M1827 675.1l-51.7-31.2M1827.9 673.6l-51.7-31.1M1711.7 663.9l-.6-1.6M1656.8 682.7l109.2-39.2M1656.5 681.8l109.2-39.1M1711.1 662.3l.6 1.6M1656.8 682.7l109.2-39.2M1657.1 683.5l109.1-39.2M1657.1 683.5l-.6-1.7.6 1.7 109.1-39.2-.5-1.6.5 1.6M1656.5 681.8l109.2-39.1M1656.5 681.8l109.2-39.1M1657.1 683.5l109.1-39.2M1746.4 624.2l1.2-1.2M1766 643.5l-37.9-39.8M1766.6 642.9l-37.9-39.8M1747.6 623l-1.2 1.2M1766 643.5l-37.9-39.8M1765.3 644.1l-37.8-39.8"/>
  <path style="fill:none;stroke:#000;stroke-linecap:round;stroke-linejoin:round;stroke-width:.059999998658895px" d="M1765.3 644.1l1.3-1.2-1.3 1.2-37.8-39.8 1.2-1.2-1.2 1.2M1766.6 642.9l-37.9-39.8M1766.6 642.9l-37.9-39.8M1765.3 644.1l-37.8-39.8M1699.3 600.9v1.7M1776.1 601.7h-153.7M1776.1 602.6h-153.7M1699.3 602.6v-1.7M1776.1 601.7h-153.7M1776.1 600.9h-153.7M1776.1 600.9v1.7-1.7h-153.7v1.7-1.7M1776.1 602.6h-153.7M1776.1 602.6h-153.7M1776.1 600.9h-153.7M1615.5 648.4l-1.7-.3M1622.4 601.7l-15.5 93.2M1621.6 601.6l-15.5 93.1M1613.8 648.1l1.7.3M1622.4 601.7l-15.5 93.2M1623.2 601.9l-15.4 93.1"/>
  <path style="fill:none;stroke:#000;stroke-linecap:round;stroke-linejoin:round;stroke-width:.059999998658895px" d="M1623.2 601.9l-1.6-.3 1.6.3-15.4 93.1-1.7-.3 1.7.3M1621.6 601.6l-15.5 93.1M1621.6 601.6l-15.5 93.1M1623.2 601.9l-15.4 93.1M1687.2 679l-.3-1.7M1606.9 694.9l160.3-33.3M1606.7 694l160.3-33.3M1686.9 677.3l.3 1.7M1606.9 694.9l160.3-33.3M1607.1 695.7l160.3-33.3"/>
  <path style="fill:none;stroke:#000;stroke-linecap:round;stroke-linejoin:round;stroke-width:.059999998658895px" d="M1607.1 695.7l-.4-1.7.4 1.7 160.3-33.3-.4-1.7.4 1.7M1606.7 694l160.3-33.3M1606.7 694l160.3-33.3M1607.1 695.7l160.3-33.3M1770.8 631.6l1.7.2M1767.2 661.6l8.9-59.9M1768 661.7l9-59.8M1772.5 631.8l-1.7-.2M1767.2 661.6l8.9-59.9M1766.3 661.4l9-59.8"/>
  <path style="fill:none;stroke:#000;stroke-linecap:round;stroke-linejoin:round;stroke-width:.059999998658895px" d="M1766.3 661.4l1.7.3-1.7-.3 9-59.8 1.7.3-1.7-.3M1768 661.7l9-59.8M1768 661.7l9-59.8M1766.3 661.4l9-59.8M1621.1 616.7v-1.5M1621.6 601.7l-1 28.5M1621.1 615.2h1.7M1622.4 601l-1 28.5M1622.8 615.2v1.5M1623.2 601.7l-.9 28.5M1622.8 616.7h-1.7M1622.4 602.5l-1 28.5M1621.6 602.5V601h1.6v1.5l-2.6 28.5h1.7v-1.5h-1.7v1.5l1-28.5zM1621.6 601l-1 28.5M1623.2 601l-.9 28.5M1623.2 602.5l-.9 28.5M1632.6 689.6h-1.2M1607 695.7l50-12.2M1631.4 689.6l-.2-1.7M1606.3 694.9l49.9-12.2M1631.2 687.9h1.2M1606.8 694l49.9-12.2M1632.4 687.9l.2 1.7M1607.5 694.9l49.9-12.2M1607.6 695.7h-1.2l-.2-1.7h1.2l.2 1.7 49.9-12.2-.2-1.7h-1.2l.3 1.7h1.1M1606.4 695.7l50-12.2M1606.2 694l49.9-12.2M1607.4 694l49.9-12.2M1765.7 653.3v-1.6M1766.3 661.6l-1.2-18.1M1765.7 651.7h1.7M1767.2 660.8l-1.2-18.1M1767.4 651.7v1.6M1768.1 661.6l-1.3-18.1M1767.4 653.3h-1.7M1767.2 662.4l-1.2-18.1"/>
  <path style="fill:none;stroke:#000;stroke-linecap:round;stroke-linejoin:round;stroke-width:.059999998658895px" d="M1766.3 662.4v-1.6h1.8v1.6l-3-18.1h1.7v-1.6h-1.7v1.6l1.2 18.1zM1766.3 660.8l-1.2-18.1M1768.1 660.8l-1.3-18.1M1768.1 662.4l-1.3-18.1M1752.7 603.6h-1.2M1776.1 602.6l-48 2M1751.5 603.6v-1.7M1775.5 601.7l-48 2M1751.5 601.9h1.2M1776.1 600.9l-48 1.9M1752.7 601.9v1.7M1776.7 601.7l-48 2M1775.5 600.9h1.2v1.68h-1.2zM1776.7 602.6l-48 2v-1.8h-1.2v1.8h1.2M1775.5 602.6l-48 2M1775.5 600.9l-48 1.9M1776.7 600.9l-48 1.9M1674.5 616.1l.5 1.7M1728.1 603.7l-106.7 26.5M1728.3 604.6l-106.6 26.5M1675 617.8l-.5-1.7M1728.1 603.7l-106.7 26.5M1727.9 602.9l-106.6 26.5"/>
  <path style="fill:none;stroke:#000;stroke-linecap:round;stroke-linejoin:round;stroke-width:.059999998658895px" d="M1727.9 602.9l.4 1.7-.4-1.7-106.6 26.5.4 1.7-.4-1.7M1728.3 604.6l-106.6 26.5M1728.3 604.6l-106.6 26.5M1727.9 602.9l-106.6 26.5M1639.9 656l-1.5.9M1621.4 630.2l35.4 52.5M1620.7 630.7l35.4 52.5M1638.4 656.9l1.5-.9M1621.4 630.2l35.4 52.5M1622.2 629.8l35.4 52.4"/>
  <path style="fill:none;stroke:#000;stroke-linecap:round;stroke-linejoin:round;stroke-width:.059999998658895px" d="M1622.2 629.8l-1.5.9 1.5-.9 35.4 52.4-1.5 1 1.5-1M1620.7 630.7l35.4 52.5M1620.7 630.7l35.4 52.5M1622.2 629.8l35.4 52.4M1577 602.1h1.6M1570.1 601l15.5 2.2M1578.6 602.1v1.6M1570.9 601.8l15.4 2.2M1578.6 603.7h-1.6M1570.1 602.6l15.5 2.3M1577 603.7v-1.6M1569.3 601.8l15.5 2.2M1569.3 601h1.6l-.1 1.6h-1.5V601l15.5 2.2v1.7h1.5l.1-1.7h-1.6M1570.9 601l15.5 2.2M1570.8 602.6l15.5 2.3M1569.3 602.6l15.5 2.3M1569.8 676.3v-1.5M1569.2 689l1.1-27M1569.8 674.8l1.6.1M1570.1 688.3l1.1-27M1571.4 674.9v1.4M1570.9 689l1.1-27M1571.4 676.3h-1.6M1570.1 689.8l1.1-27M1569.2 689.8v-1.5l1.7.1v1.4h-1.7l1.1-27h1.7v-1.4l-1.7-.1v1.5M1569.2 688.3l1.1-27M1570.9 688.4l1.1-27M1570.9 689.8l1.1-27M1599.1 692h1.6M1605.2 694.1l-10.6-4.1M1600.7 692l-.1 1.7M1606 694.9l-10.7-4.1M1600.6 693.7h-1.5M1605.2 695.7l-10.7-4.1M1599.1 693.7V692M1604.4 694.9l-10.7-4.1M1604.4 694.1h1.6v1.6h-1.6v-1.6l-10.7-4.1v1.6h1.6V690h-1.6M1606 694.1l-10.7-4.1M1606 695.7l-10.7-4.1M1604.4 695.7l-10.7-4.1M1616.9 616.9v-1.5M1619.9 601.7l-5.9 28.8M1616.9 615.4l1.7.1M1620.7 601.1l-5.9 28.8M1618.6 615.5v1.4M1621.5 601.9l-5.9 28.7M1618.6 616.9h-1.7M1620.7 602.5l-5.9 28.8M1619.9 602.5v-1.4h1.6v1.4h-1.6l-5.9 28.7 1.6.1v-1.4l-1.6-.1v1.4M1619.9 601.1l-5.9 28.7M1621.5 601.1l-5.9 28.8M1621.5 602.5l-5.9 28.8M1577.6 632.8l1.5.4M1571.2 662l14.4-58M1571.9 662.2l14.5-58M1579.1 633.2l-1.5-.4M1571.2 662l14.4-58M1570.4 661.9l14.4-58.1"/>
  <path style="fill:none;stroke:#000;stroke-linecap:round;stroke-linejoin:round;stroke-width:.059999998658895px" d="M1570.4 661.9l1.5.3-1.5-.3 14.4-58.1 1.6.4-1.6-.4M1571.9 662.2l14.5-58M1571.9 662.2l14.5-58M1570.4 661.9l14.4-58.1M1582.2 676.9l1.3-1M1594.5 690.8l-23.3-28.8M1595.2 690.3l-23.4-28.7M1583.5 675.9l-1.3 1M1594.5 690.8l-23.3-28.8M1593.9 691.3l-23.3-28.7"/>
  <path style="fill:none;stroke:#000;stroke-linecap:round;stroke-linejoin:round;stroke-width:.059999998658895px" d="M1593.9 691.3l1.3-1-1.3 1-23.3-28.7 1.2-1-1.2 1M1595.2 690.3l-23.4-28.7M1595.2 690.3l-23.4-28.7M1593.9 691.3l-23.3-28.7M1605.5 661l-1.6-.6M1614.8 630.5l-20.3 60.3M1614.1 630.3l-20.3 60.2M1603.9 660.4l1.6.6M1614.8 630.5l-20.3 60.3M1615.6 630.8l-20.3 60.3"/>
  <path style="fill:none;stroke:#000;stroke-linecap:round;stroke-linejoin:round;stroke-width:.059999998658895px" d="M1615.6 630.8l-1.5-.5 1.5.5-20.3 60.3-1.5-.6 1.5.6M1614.1 630.3l-20.3 60.2M1614.1 630.3l-20.3 60.2M1615.6 630.8l-20.3 60.3M1599.7 617.9l1-1.2M1585.6 604l29.2 26.5M1586.2 603.4l29.2 26.5M1600.7 616.7l-1 1.2M1585.6 604l29.2 26.5M1585 604.6l29.3 26.5"/>
  <path style="fill:none;stroke:#000;stroke-linecap:round;stroke-linejoin:round;stroke-width:.059999998658895px" d="M1585 604.6l1.2-1.2-1.2 1.2 29.3 26.5 1.1-1.2-1.1 1.2M1586.2 603.4l29.2 26.5M1586.2 603.4l29.2 26.5M1585 604.6l29.3 26.5M1570.9 689v-87.2M1570.9 645.4h-1.7M1570.1 689v-87.2M1569.2 689v-87.2M1569.2 645.4h1.7M1570.1 689v-87.2M1570.9 689h-1.7 1.7v-87.2h-1.7 1.7M1570.9 689v-87.2M1569.2 689v-87.2M1569.2 689v-87.2M1587.8 691.2l-.3 1.6M1605.2 694.9l-35.1-5.9M1605.1 695.7l-35.1-5.8M1587.5 692.8l.3-1.6M1605.2 694.9l-35.1-5.9M1605.4 694.1l-35.2-5.8"/>
  <path style="fill:none;stroke:#000;stroke-linecap:round;stroke-linejoin:round;stroke-width:.059999998658895px" d="M1605.4 694.1l-.3 1.6.3-1.6-35.2-5.8-.2 1.6.2-1.6M1605.1 695.7l-35.1-5.8M1605.1 695.7l-35.1-5.8M1605.4 694.1l-35.2-5.8M1613.8 648.5l-1.7-.3M1620.7 601.8l-15.5 93.1M1619.9 601.7l-15.5 93M1612.1 648.2l1.7.3M1620.7 601.8l-15.5 93.1M1621.5 601.9L1606 695"/>
  <path style="fill:none;stroke:#000;stroke-linecap:round;stroke-linejoin:round;stroke-width:.059999998658895px" d="M1621.5 601.9l-1.6-.2 1.6.2L1606 695l-1.6-.3 1.6.3M1619.9 601.7l-15.5 93M1619.9 601.7l-15.5 93M1621.5 601.9L1606 695M1595.4 602.6V601M1570.1 601.8h50.6M1570.1 601h50.6M1595.4 601v1.6M1570.1 601.8h50.6M1570.1 602.6h50.6"/>
  <path style="fill:none;stroke:#000;stroke-linecap:round;stroke-linejoin:round;stroke-width:.059999998658895px" d="M1570.1 602.6V601v1.6h50.6V601v1.6M1570.1 601h50.6M1570.1 601h50.6M1570.1 602.6h50.6"/>
  <path style="fill:none;stroke:#000;stroke-linecap:round;stroke-linejoin:round;stroke-width:.75px" d="M1776.1 601.7h-153.7l-15.5 93.2M1606.9 694.9l160.3-33.3 8.9-59.9M1898.2 790.8l35.8 16.3M1932.5 601.6l-81 81.1-81.6-21.2"/>
  <path style="fill:none;stroke:#000;stroke-linecap:round;stroke-linejoin:round;stroke-width:.059999998658895px" d="M1933.7 765.8v-163"/>
  <path style="fill:none;stroke:#000;stroke-linecap:round;stroke-linejoin:round;stroke-width:.75px" d="M1570.1 601.8h50.6l-15.5 93.1"/>
  <path style="fill:none;stroke:#000;stroke-linecap:round;stroke-linejoin:round" d="M1769.9 661.5l8.9-59.9"/>
  <path style="fill:none;stroke:#000;stroke-linecap:round;stroke-linejoin:round;stroke-width:.75px" d="M1605.2 694.9l-35.1-5.9v-87.2"/>
  <path style="fill:none;stroke:#000;stroke-linecap:round;stroke-linejoin:round" d="M1778.8 601.6h153.7"/>
  <g style="opacity:.2">
    <path style="stroke:#000;stroke-linecap:round;stroke-linejoin:round;fill:url(#a)" d="M1933.7 602.8l-81 81.1 45.2 105.3 35.8-23.4v-.6l-1.5-49.3v.6l1.5-113.7"/>
  </g>
  <path style="fill:none;stroke:#000;stroke-linecap:round;stroke-linejoin:round" d="M1933.7 602.8l-81 81.1 45.2 105.3 35.8-23.4v-.6l-1.5-49.3v.6l1.5-113.7"/>
  <path style="fill:none;stroke:#000;stroke-linecap:round;stroke-linejoin:round;stroke-width:.75px" d="M1934 807.1v-39.8l-35.8 23.5"/>
  <path style="fill-rule:evenodd" d="M1930.6 820.6l1.1.5 7.5-7.5-.5-1.1-8.1 8.1z"/>
  <path style="fill:none;stroke:#000;stroke-linecap:round;stroke-linejoin:round;stroke-width:.502031696542389px" d="M1930.6 820.6l1.1.5 7.5-7.5-.5-1.1-8.1 8.1z"/>
  <path style="fill-rule:evenodd" d="M1572.2 813.9l-.4-1-7.3 7.3.9.5 6.8-6.8z"/>
  <path style="fill:none;stroke:#000;stroke-linecap:round;stroke-linejoin:round;stroke-width:.455135611851462px" d="M1572.2 813.9l-.4-1-7.3 7.3.9.5 6.8-6.8z"/>
  <text transform="translate(1760.3 820.6) rotate(180)" style="font-size:18px;font-family:Dosis-Medium,Dosis;font-weight:500;letter-spacing:.002007378472222222em">
    8<tspan x="9.2" y="0" style="letter-spacing:-.004014756944444444em">&apos;</tspan><tspan x="11.7" y="0" style="letter-spacing:.012044270833333334em">-</tspan><tspan x="19.4" y="0" style="letter-spacing:.001953125em">10</tspan><tspan x="33.7" y="0" style="letter-spacing:-.011013454861111112em"> </tspan><tspan x="37.1" y="0">1</tspan><tspan x="41.6" y="0" style="letter-spacing:-.011013454861111112em">/</tspan><tspan x="49.9" y="0">2</tspan><tspan x="58.7" y="0" style="letter-spacing:.00005425347222222222em">&quot;</tspan>
  </text>
  <path style="fill:none;stroke:#000;stroke-linecap:round;stroke-linejoin:round;stroke-width:.25px" d="M1568.4 692.4v1.5"/>
  <path style="fill:none;stroke:#000;stroke-linecap:round;stroke-linejoin:round;stroke-width:.25px;stroke-dasharray:3.0014634132385254,3.0014634132385254" d="M1568.4 696.9v118.6"/>
  <path style="fill:none;stroke:#000;stroke-linecap:round;stroke-linejoin:round;stroke-width:.25px" d="M1568.4 817v1.5"/>
  <path style="fill:none;stroke:#000;stroke-linecap:round;stroke-linejoin:round;stroke-width:.059999998658895px" d="M1934.9 808.7v9.8"/>
  <path style="fill:none;stroke:#000;stroke-linecap:round;stroke-linejoin:round;stroke-width:.25px" d="M1936.2 816.8h-1.5"/>
  <path style="fill:none;stroke:#000;stroke-linecap:round;stroke-linejoin:round;stroke-width:.25px;stroke-dasharray:2.9765853881835938,2.9765853881835938" d="M1931.7 816.8h-361.6"/>
  <path style="fill:none;stroke:#000;stroke-linecap:round;stroke-linejoin:round;stroke-width:.25px" d="M1568.6 816.8h-1.5"/>
</svg>
